G75*
%MOIN*%
%OFA0B0*%
%FSLAX24Y24*%
%IPPOS*%
%LPD*%
%AMOC8*
5,1,8,0,0,1.08239X$1,22.5*
%
%ADD10C,0.0100*%
%ADD11C,0.0050*%
%ADD12C,0.0070*%
%ADD13C,0.0000*%
%ADD14C,0.0120*%
%ADD15C,0.0030*%
%ADD16C,0.0060*%
%ADD17C,0.0040*%
%ADD18C,0.0080*%
%ADD19R,0.0007X0.0007*%
%ADD20R,0.0007X0.0007*%
%ADD21R,0.0007X0.0021*%
%ADD22R,0.0007X0.0035*%
%ADD23R,0.0007X0.0042*%
%ADD24R,0.0007X0.0056*%
%ADD25R,0.0007X0.0007*%
%ADD26R,0.0007X0.0070*%
%ADD27R,0.0007X0.0084*%
%ADD28R,0.0007X0.0028*%
%ADD29R,0.0007X0.0105*%
%ADD30R,0.0007X0.0035*%
%ADD31R,0.0007X0.0126*%
%ADD32R,0.0007X0.0091*%
%ADD33R,0.0007X0.0140*%
%ADD34R,0.0007X0.0007*%
%ADD35R,0.0007X0.0091*%
%ADD36R,0.0007X0.0168*%
%ADD37R,0.0007X0.0077*%
%ADD38R,0.0007X0.0196*%
%ADD39R,0.0007X0.0098*%
%ADD40R,0.0007X0.0287*%
%ADD41R,0.0007X0.0119*%
%ADD42R,0.0007X0.0301*%
%ADD43R,0.0007X0.0133*%
%ADD44R,0.0007X0.0308*%
%ADD45R,0.0007X0.0322*%
%ADD46R,0.0007X0.0196*%
%ADD47R,0.0007X0.0063*%
%ADD48R,0.0007X0.0329*%
%ADD49R,0.0007X0.0343*%
%ADD50R,0.0007X0.0294*%
%ADD51R,0.0007X0.0350*%
%ADD52R,0.0007X0.0294*%
%ADD53R,0.0007X0.0364*%
%ADD54R,0.0007X0.0371*%
%ADD55R,0.0007X0.0301*%
%ADD56R,0.0007X0.0385*%
%ADD57R,0.0007X0.0392*%
%ADD58R,0.0007X0.0077*%
%ADD59R,0.0007X0.0084*%
%ADD60R,0.0007X0.0077*%
%ADD61R,0.0007X0.0063*%
%ADD62R,0.0007X0.0063*%
%ADD63R,0.0007X0.0063*%
%ADD64R,0.0007X0.0056*%
%ADD65R,0.0007X0.0553*%
%ADD66R,0.0007X0.0553*%
%ADD67R,0.0007X0.0091*%
%ADD68R,0.0007X0.0560*%
%ADD69R,0.0007X0.0553*%
%ADD70R,0.0007X0.0553*%
%ADD71R,0.0007X0.0091*%
%ADD72R,0.0007X0.0560*%
%ADD73R,0.0007X0.0098*%
%ADD74R,0.0007X0.0098*%
%ADD75R,0.0007X0.0098*%
%ADD76R,0.0007X0.0147*%
%ADD77R,0.0007X0.0084*%
%ADD78R,0.0007X0.0140*%
%ADD79R,0.0007X0.0105*%
%ADD80R,0.0007X0.0462*%
%ADD81R,0.0007X0.0112*%
%ADD82R,0.0007X0.0126*%
%ADD83R,0.0007X0.0133*%
%ADD84R,0.0007X0.0042*%
%ADD85R,0.0007X0.0147*%
%ADD86R,0.0007X0.0028*%
%ADD87R,0.0007X0.0147*%
%ADD88R,0.0007X0.0154*%
%ADD89R,0.0007X0.0147*%
%ADD90R,0.0007X0.0133*%
%ADD91R,0.0007X0.0126*%
%ADD92R,0.0007X0.0455*%
%ADD93R,0.0007X0.0119*%
%ADD94R,0.0007X0.0112*%
%ADD95R,0.0007X0.0350*%
%ADD96R,0.0007X0.0462*%
%ADD97R,0.0007X0.0462*%
%ADD98R,0.0007X0.0455*%
%ADD99R,0.0007X0.0070*%
%ADD100R,0.0007X0.0126*%
%ADD101R,0.0007X0.0133*%
%ADD102R,0.0007X0.0567*%
%ADD103R,0.0007X0.0567*%
%ADD104R,0.0007X0.0084*%
%ADD105R,0.0007X0.0336*%
%ADD106R,0.0007X0.0476*%
%ADD107R,0.0007X0.0336*%
%ADD108R,0.0007X0.0490*%
%ADD109R,0.0007X0.0497*%
%ADD110R,0.0007X0.0343*%
%ADD111R,0.0007X0.0511*%
%ADD112R,0.0007X0.0343*%
%ADD113R,0.0007X0.0511*%
%ADD114R,0.0007X0.0532*%
%ADD115R,0.0007X0.0546*%
%ADD116R,0.0007X0.0357*%
%ADD117R,0.0007X0.0588*%
%ADD118R,0.0007X0.0364*%
%ADD119R,0.0007X0.0623*%
%ADD120R,0.0007X0.0658*%
%ADD121R,0.0007X0.0371*%
%ADD122R,0.0007X0.0700*%
%ADD123R,0.0007X0.0378*%
%ADD124R,0.0007X0.0707*%
%ADD125R,0.0007X0.0714*%
%ADD126R,0.0007X0.0385*%
%ADD127R,0.0007X0.0714*%
%ADD128R,0.0007X0.0392*%
%ADD129R,0.0007X0.0721*%
%ADD130R,0.0007X0.0399*%
%ADD131R,0.0007X0.0728*%
%ADD132R,0.0007X0.0406*%
%ADD133R,0.0007X0.0735*%
%ADD134R,0.0007X0.0420*%
%ADD135R,0.0007X0.0434*%
%ADD136R,0.0007X0.0749*%
%ADD137R,0.0007X0.0763*%
%ADD138R,0.0007X0.0749*%
%ADD139R,0.0007X0.0756*%
%ADD140R,0.0007X0.0763*%
%ADD141R,0.0007X0.0770*%
%ADD142R,0.0007X0.0777*%
%ADD143R,0.0007X0.0784*%
%ADD144R,0.0007X0.0777*%
%ADD145R,0.0007X0.0798*%
%ADD146R,0.0007X0.0798*%
%ADD147R,0.0007X0.0805*%
%ADD148R,0.0007X0.0805*%
%ADD149R,0.0007X0.0826*%
%ADD150R,0.0007X0.0826*%
%ADD151R,0.0007X0.0847*%
%ADD152R,0.0007X0.1785*%
%ADD153R,0.0007X0.1785*%
%ADD154R,0.0007X0.1771*%
%ADD155R,0.0007X0.1771*%
%ADD156R,0.0007X0.1764*%
%ADD157R,0.0007X0.1757*%
%ADD158R,0.0007X0.1757*%
%ADD159R,0.0007X0.1743*%
%ADD160R,0.0007X0.1743*%
%ADD161R,0.0007X0.1729*%
%ADD162R,0.0007X0.1729*%
%ADD163R,0.0007X0.1722*%
%ADD164R,0.0007X0.1715*%
%ADD165R,0.0007X0.1708*%
%ADD166R,0.0007X0.1701*%
%ADD167R,0.0007X0.1701*%
%ADD168R,0.0007X0.1687*%
%ADD169R,0.0007X0.1680*%
%ADD170R,0.0007X0.1673*%
%ADD171R,0.0007X0.1659*%
%ADD172R,0.0007X0.1358*%
%ADD173R,0.0007X0.0021*%
%ADD174R,0.0007X0.1337*%
%ADD175R,0.0007X0.0154*%
%ADD176R,0.0007X0.1316*%
%ADD177R,0.0007X0.0224*%
%ADD178R,0.0007X0.1043*%
%ADD179R,0.0007X0.0210*%
%ADD180R,0.0007X0.1008*%
%ADD181R,0.0007X0.0175*%
%ADD182R,0.0007X0.0973*%
%ADD183R,0.0007X0.0945*%
%ADD184R,0.0007X0.0931*%
%ADD185R,0.0007X0.0924*%
%ADD186R,0.0007X0.0917*%
%ADD187R,0.0007X0.0077*%
%ADD188R,0.0007X0.0917*%
%ADD189R,0.0007X0.0903*%
%ADD190R,0.0007X0.0896*%
%ADD191R,0.0007X0.0896*%
%ADD192R,0.0007X0.0903*%
%ADD193R,0.0007X0.0910*%
%ADD194R,0.0007X0.0910*%
%ADD195R,0.0007X0.0448*%
%ADD196R,0.0007X0.0448*%
%ADD197R,0.0007X0.0427*%
%ADD198R,0.0007X0.0434*%
%ADD199R,0.0007X0.0427*%
%ADD200R,0.0007X0.0427*%
%ADD201R,0.0007X0.0413*%
%ADD202R,0.0007X0.0420*%
%ADD203R,0.0007X0.0413*%
%ADD204R,0.0007X0.0399*%
%ADD205R,0.0007X0.0413*%
%ADD206R,0.0007X0.0413*%
%ADD207R,0.0007X0.0392*%
%ADD208R,0.0007X0.0406*%
%ADD209R,0.0007X0.0399*%
%ADD210R,0.0007X0.0406*%
%ADD211R,0.0007X0.0357*%
%ADD212R,0.0007X0.0336*%
%ADD213R,0.0007X0.0357*%
%ADD214R,0.0007X0.0322*%
%ADD215R,0.0007X0.0308*%
%ADD216R,0.0007X0.0322*%
%ADD217R,0.0007X0.0287*%
%ADD218R,0.0007X0.0315*%
%ADD219R,0.0007X0.0280*%
%ADD220R,0.0007X0.0301*%
%ADD221R,0.0007X0.0266*%
%ADD222R,0.0007X0.0280*%
%ADD223R,0.0007X0.0252*%
%ADD224R,0.0007X0.0266*%
%ADD225R,0.0007X0.0238*%
%ADD226R,0.0007X0.0245*%
%ADD227R,0.0007X0.0189*%
%ADD228R,0.0007X0.0175*%
%ADD229R,0.0007X0.0189*%
%ADD230R,0.0007X0.0154*%
%ADD231R,0.0007X0.0161*%
%ADD232R,0.0007X0.0112*%
%ADD233R,0.0007X0.0014*%
%ADD234R,0.0007X0.0042*%
D10*
X000250Y000180D02*
X000250Y019865D01*
X019935Y019865D01*
X019935Y000180D01*
X000250Y000180D01*
D11*
X002000Y000970D02*
X003000Y000970D01*
X004000Y000970D02*
X005000Y000970D01*
X006000Y000970D02*
X007000Y000970D01*
X007000Y002470D01*
X007000Y004470D02*
X007000Y005970D01*
X002000Y005970D01*
X002000Y004470D01*
X002000Y002470D02*
X002000Y000970D01*
X000894Y006930D02*
X014280Y006930D01*
X014319Y006932D01*
X014357Y006938D01*
X014394Y006947D01*
X014431Y006960D01*
X014466Y006977D01*
X014499Y006996D01*
X014530Y007019D01*
X014559Y007045D01*
X014585Y007074D01*
X014608Y007105D01*
X014627Y007138D01*
X014644Y007173D01*
X014657Y007210D01*
X014666Y007247D01*
X014672Y007285D01*
X014674Y007324D01*
X014673Y007324D02*
X014673Y019135D01*
X014674Y019135D02*
X014672Y019174D01*
X014666Y019212D01*
X014657Y019249D01*
X014644Y019286D01*
X014627Y019321D01*
X014608Y019354D01*
X014585Y019385D01*
X014559Y019414D01*
X014530Y019440D01*
X014499Y019463D01*
X014466Y019482D01*
X014431Y019499D01*
X014394Y019512D01*
X014357Y019521D01*
X014319Y019527D01*
X014280Y019529D01*
X014280Y019528D02*
X000894Y019528D01*
X000894Y019529D02*
X000855Y019527D01*
X000817Y019521D01*
X000780Y019512D01*
X000743Y019499D01*
X000708Y019482D01*
X000675Y019463D01*
X000644Y019440D01*
X000615Y019414D01*
X000589Y019385D01*
X000566Y019354D01*
X000547Y019321D01*
X000530Y019286D01*
X000517Y019249D01*
X000508Y019212D01*
X000502Y019174D01*
X000500Y019135D01*
X000500Y007324D01*
X000502Y007285D01*
X000508Y007247D01*
X000517Y007210D01*
X000530Y007173D01*
X000547Y007138D01*
X000566Y007105D01*
X000589Y007074D01*
X000615Y007045D01*
X000644Y007019D01*
X000675Y006996D01*
X000708Y006977D01*
X000743Y006960D01*
X000780Y006947D01*
X000817Y006938D01*
X000855Y006932D01*
X000894Y006930D01*
X002075Y007324D02*
X002862Y007324D01*
X002862Y007323D02*
X002901Y007325D01*
X002939Y007331D01*
X002976Y007340D01*
X003013Y007353D01*
X003048Y007370D01*
X003081Y007389D01*
X003112Y007412D01*
X003141Y007438D01*
X003167Y007467D01*
X003190Y007498D01*
X003209Y007531D01*
X003226Y007566D01*
X003239Y007603D01*
X003248Y007640D01*
X003254Y007678D01*
X003256Y007717D01*
X003254Y007756D01*
X003248Y007794D01*
X003239Y007831D01*
X003226Y007868D01*
X003209Y007903D01*
X003190Y007936D01*
X003167Y007967D01*
X003141Y007996D01*
X003112Y008022D01*
X003081Y008045D01*
X003048Y008064D01*
X003013Y008081D01*
X002976Y008094D01*
X002939Y008103D01*
X002901Y008109D01*
X002862Y008111D01*
X002075Y008111D01*
X002036Y008109D01*
X001998Y008103D01*
X001961Y008094D01*
X001924Y008081D01*
X001889Y008064D01*
X001856Y008045D01*
X001825Y008022D01*
X001796Y007996D01*
X001770Y007967D01*
X001747Y007936D01*
X001728Y007903D01*
X001711Y007868D01*
X001698Y007831D01*
X001689Y007794D01*
X001683Y007756D01*
X001681Y007717D01*
X001683Y007678D01*
X001689Y007640D01*
X001698Y007603D01*
X001711Y007566D01*
X001728Y007531D01*
X001747Y007498D01*
X001770Y007467D01*
X001796Y007438D01*
X001825Y007412D01*
X001856Y007389D01*
X001889Y007370D01*
X001924Y007353D01*
X001961Y007340D01*
X001998Y007331D01*
X002036Y007325D01*
X002075Y007323D01*
X006219Y015855D02*
X006144Y015930D01*
X006219Y015855D02*
X006369Y015855D01*
X006444Y015930D01*
X006444Y016005D01*
X006369Y016080D01*
X006219Y016080D01*
X006144Y016155D01*
X006144Y016230D01*
X006219Y016305D01*
X006369Y016305D01*
X006444Y016230D01*
X006604Y016305D02*
X006604Y016005D01*
X006754Y015855D01*
X006904Y016005D01*
X006904Y016305D01*
X007065Y016155D02*
X007215Y016305D01*
X007215Y015855D01*
X007065Y015855D02*
X007365Y015855D01*
X007454Y017305D02*
X007754Y017305D01*
X007604Y017305D02*
X007604Y017755D01*
X007454Y017605D01*
X007915Y017530D02*
X008215Y017530D01*
X008140Y017305D02*
X008140Y017755D01*
X007915Y017530D01*
X012311Y018347D02*
X013098Y018347D01*
X013137Y018349D01*
X013175Y018355D01*
X013212Y018364D01*
X013249Y018377D01*
X013284Y018394D01*
X013317Y018413D01*
X013348Y018436D01*
X013377Y018462D01*
X013403Y018491D01*
X013426Y018522D01*
X013445Y018555D01*
X013462Y018590D01*
X013475Y018627D01*
X013484Y018664D01*
X013490Y018702D01*
X013492Y018741D01*
X013490Y018780D01*
X013484Y018818D01*
X013475Y018855D01*
X013462Y018892D01*
X013445Y018927D01*
X013426Y018960D01*
X013403Y018991D01*
X013377Y019020D01*
X013348Y019046D01*
X013317Y019069D01*
X013284Y019088D01*
X013249Y019105D01*
X013212Y019118D01*
X013175Y019127D01*
X013137Y019133D01*
X013098Y019135D01*
X012311Y019135D01*
X012272Y019133D01*
X012234Y019127D01*
X012197Y019118D01*
X012160Y019105D01*
X012125Y019088D01*
X012092Y019069D01*
X012061Y019046D01*
X012032Y019020D01*
X012006Y018991D01*
X011983Y018960D01*
X011964Y018927D01*
X011947Y018892D01*
X011934Y018855D01*
X011925Y018818D01*
X011919Y018780D01*
X011917Y018741D01*
X011919Y018702D01*
X011925Y018664D01*
X011934Y018627D01*
X011947Y018590D01*
X011964Y018555D01*
X011983Y018522D01*
X012006Y018491D01*
X012032Y018462D01*
X012061Y018436D01*
X012092Y018413D01*
X012125Y018394D01*
X012160Y018377D01*
X012197Y018364D01*
X012234Y018355D01*
X012272Y018349D01*
X012311Y018347D01*
X013865Y014555D02*
X013865Y014105D01*
X013715Y014105D02*
X014015Y014105D01*
X013715Y014405D02*
X013865Y014555D01*
X013098Y008111D02*
X012311Y008111D01*
X012272Y008109D01*
X012234Y008103D01*
X012197Y008094D01*
X012160Y008081D01*
X012125Y008064D01*
X012092Y008045D01*
X012061Y008022D01*
X012032Y007996D01*
X012006Y007967D01*
X011983Y007936D01*
X011964Y007903D01*
X011947Y007868D01*
X011934Y007831D01*
X011925Y007794D01*
X011919Y007756D01*
X011917Y007717D01*
X011919Y007678D01*
X011925Y007640D01*
X011934Y007603D01*
X011947Y007566D01*
X011964Y007531D01*
X011983Y007498D01*
X012006Y007467D01*
X012032Y007438D01*
X012061Y007412D01*
X012092Y007389D01*
X012125Y007370D01*
X012160Y007353D01*
X012197Y007340D01*
X012234Y007331D01*
X012272Y007325D01*
X012311Y007323D01*
X012311Y007324D02*
X013098Y007324D01*
X013098Y007323D02*
X013137Y007325D01*
X013175Y007331D01*
X013212Y007340D01*
X013249Y007353D01*
X013284Y007370D01*
X013317Y007389D01*
X013348Y007412D01*
X013377Y007438D01*
X013403Y007467D01*
X013426Y007498D01*
X013445Y007531D01*
X013462Y007566D01*
X013475Y007603D01*
X013484Y007640D01*
X013490Y007678D01*
X013492Y007717D01*
X013490Y007756D01*
X013484Y007794D01*
X013475Y007831D01*
X013462Y007868D01*
X013445Y007903D01*
X013426Y007936D01*
X013403Y007967D01*
X013377Y007996D01*
X013348Y008022D01*
X013317Y008045D01*
X013284Y008064D01*
X013249Y008081D01*
X013212Y008094D01*
X013175Y008103D01*
X013137Y008109D01*
X013098Y008111D01*
X015146Y006332D02*
X015146Y001017D01*
X020657Y001017D01*
X020657Y004481D01*
X020972Y005662D01*
X020972Y006843D01*
X015717Y006843D01*
X015717Y006332D01*
X015146Y006332D01*
X002862Y018347D02*
X002075Y018347D01*
X001681Y018741D02*
X001683Y018780D01*
X001689Y018818D01*
X001698Y018855D01*
X001711Y018892D01*
X001728Y018927D01*
X001747Y018960D01*
X001770Y018991D01*
X001796Y019020D01*
X001825Y019046D01*
X001856Y019069D01*
X001889Y019088D01*
X001924Y019105D01*
X001961Y019118D01*
X001998Y019127D01*
X002036Y019133D01*
X002075Y019135D01*
X002862Y019135D01*
X003256Y018741D02*
X003254Y018702D01*
X003248Y018664D01*
X003239Y018627D01*
X003226Y018590D01*
X003209Y018555D01*
X003190Y018522D01*
X003167Y018491D01*
X003141Y018462D01*
X003112Y018436D01*
X003081Y018413D01*
X003048Y018394D01*
X003013Y018377D01*
X002976Y018364D01*
X002939Y018355D01*
X002901Y018349D01*
X002862Y018347D01*
X003256Y018741D02*
X003254Y018780D01*
X003248Y018818D01*
X003239Y018855D01*
X003226Y018892D01*
X003209Y018927D01*
X003190Y018960D01*
X003167Y018991D01*
X003141Y019020D01*
X003112Y019046D01*
X003081Y019069D01*
X003048Y019088D01*
X003013Y019105D01*
X002976Y019118D01*
X002939Y019127D01*
X002901Y019133D01*
X002862Y019135D01*
X002075Y018347D02*
X002036Y018349D01*
X001998Y018355D01*
X001961Y018364D01*
X001924Y018377D01*
X001889Y018394D01*
X001856Y018413D01*
X001825Y018436D01*
X001796Y018462D01*
X001770Y018491D01*
X001747Y018522D01*
X001728Y018555D01*
X001711Y018590D01*
X001698Y018627D01*
X001689Y018664D01*
X001683Y018702D01*
X001681Y018741D01*
D12*
X017418Y000864D02*
X017363Y000809D01*
X017363Y000754D01*
X017418Y000699D01*
X017528Y000699D01*
X017583Y000644D01*
X017583Y000589D01*
X017528Y000534D01*
X017418Y000534D01*
X017363Y000589D01*
X017583Y000809D02*
X017528Y000864D01*
X017418Y000864D01*
X017731Y000864D02*
X017731Y000534D01*
X017897Y000534D01*
X017952Y000589D01*
X017952Y000809D01*
X017897Y000864D01*
X017731Y000864D01*
X018100Y000754D02*
X018210Y000864D01*
X018210Y000534D01*
X018100Y000534D02*
X018320Y000534D01*
D13*
X019034Y002001D02*
X019036Y002032D01*
X019042Y002062D01*
X019051Y002092D01*
X019064Y002120D01*
X019081Y002146D01*
X019101Y002169D01*
X019123Y002191D01*
X019148Y002209D01*
X019175Y002224D01*
X019204Y002235D01*
X019234Y002243D01*
X019265Y002247D01*
X019295Y002247D01*
X019326Y002243D01*
X019356Y002235D01*
X019385Y002224D01*
X019412Y002209D01*
X019437Y002191D01*
X019459Y002169D01*
X019479Y002146D01*
X019496Y002120D01*
X019509Y002092D01*
X019518Y002062D01*
X019524Y002032D01*
X019526Y002001D01*
X019524Y001970D01*
X019518Y001940D01*
X019509Y001910D01*
X019496Y001882D01*
X019479Y001856D01*
X019459Y001833D01*
X019437Y001811D01*
X019412Y001793D01*
X019385Y001778D01*
X019356Y001767D01*
X019326Y001759D01*
X019295Y001755D01*
X019265Y001755D01*
X019234Y001759D01*
X019204Y001767D01*
X019175Y001778D01*
X019148Y001793D01*
X019123Y001811D01*
X019101Y001833D01*
X019081Y001856D01*
X019064Y001882D01*
X019051Y001910D01*
X019042Y001940D01*
X019036Y001970D01*
X019034Y002001D01*
X019034Y005150D02*
X019036Y005181D01*
X019042Y005211D01*
X019051Y005241D01*
X019064Y005269D01*
X019081Y005295D01*
X019101Y005318D01*
X019123Y005340D01*
X019148Y005358D01*
X019175Y005373D01*
X019204Y005384D01*
X019234Y005392D01*
X019265Y005396D01*
X019295Y005396D01*
X019326Y005392D01*
X019356Y005384D01*
X019385Y005373D01*
X019412Y005358D01*
X019437Y005340D01*
X019459Y005318D01*
X019479Y005295D01*
X019496Y005269D01*
X019509Y005241D01*
X019518Y005211D01*
X019524Y005181D01*
X019526Y005150D01*
X019524Y005119D01*
X019518Y005089D01*
X019509Y005059D01*
X019496Y005031D01*
X019479Y005005D01*
X019459Y004982D01*
X019437Y004960D01*
X019412Y004942D01*
X019385Y004927D01*
X019356Y004916D01*
X019326Y004908D01*
X019295Y004904D01*
X019265Y004904D01*
X019234Y004908D01*
X019204Y004916D01*
X019175Y004927D01*
X019148Y004942D01*
X019123Y004960D01*
X019101Y004982D01*
X019081Y005005D01*
X019064Y005031D01*
X019051Y005059D01*
X019042Y005089D01*
X019036Y005119D01*
X019034Y005150D01*
D14*
X012590Y012896D02*
X012130Y012896D01*
X011900Y013126D01*
X011439Y013126D02*
X011439Y012896D01*
X011209Y012896D01*
X011209Y013126D01*
X011439Y013126D01*
X010749Y012896D02*
X009828Y012896D01*
X010288Y012896D02*
X010288Y014277D01*
X009828Y013816D01*
X007987Y014046D02*
X007987Y013126D01*
X007756Y012896D01*
X007066Y012896D01*
X007066Y014277D01*
X007756Y014277D01*
X007987Y014046D01*
X006605Y014277D02*
X005685Y014277D01*
X005685Y012896D01*
X006605Y012896D01*
X006145Y013586D02*
X005685Y013586D01*
X005224Y012896D02*
X004303Y012896D01*
X004303Y014277D01*
X003843Y014046D02*
X003613Y014277D01*
X003152Y014277D01*
X002922Y014046D01*
X002922Y013126D01*
X003152Y012896D01*
X003613Y012896D01*
X003843Y013126D01*
X003843Y014046D01*
X011900Y014046D02*
X012130Y014277D01*
X012590Y014277D01*
X012821Y014046D01*
X012821Y013816D01*
X012590Y013586D01*
X012821Y013356D01*
X012821Y013126D01*
X012590Y012896D01*
X012590Y013586D02*
X012360Y013586D01*
X013281Y013816D02*
X013511Y014046D01*
X013511Y014507D01*
X013972Y014507D02*
X013972Y014046D01*
X013741Y013816D01*
D15*
X017040Y012284D02*
X017040Y012037D01*
X017102Y011975D01*
X017225Y011975D01*
X017287Y012037D01*
X017287Y012284D01*
X017225Y012345D01*
X017102Y012345D01*
X017040Y012284D01*
X017163Y012098D02*
X017287Y011975D01*
X017408Y011975D02*
X017655Y011975D01*
X017532Y011975D02*
X017532Y012345D01*
X017408Y012222D01*
X009566Y017969D02*
X009566Y018162D01*
X009469Y018259D01*
X009372Y018162D01*
X009372Y017969D01*
X009271Y018017D02*
X009271Y018210D01*
X009222Y018259D01*
X009077Y018259D01*
X009077Y017969D01*
X009222Y017969D01*
X009271Y018017D01*
X009372Y018114D02*
X009566Y018114D01*
X008976Y018065D02*
X008976Y018017D01*
X008928Y017969D01*
X008831Y017969D01*
X008783Y018017D01*
X008831Y018114D02*
X008928Y018114D01*
X008976Y018065D01*
X008976Y018210D02*
X008928Y018259D01*
X008831Y018259D01*
X008783Y018210D01*
X008783Y018162D01*
X008831Y018114D01*
X008581Y017969D02*
X008388Y017969D01*
X008388Y018259D01*
X008287Y018210D02*
X008238Y018259D01*
X008141Y018259D01*
X008093Y018210D01*
X008093Y018017D01*
X008141Y017969D01*
X008238Y017969D01*
X008287Y018017D01*
X007992Y018017D02*
X007944Y017969D01*
X007847Y017969D01*
X007798Y018017D01*
X007847Y018114D02*
X007798Y018162D01*
X007798Y018210D01*
X007847Y018259D01*
X007944Y018259D01*
X007992Y018210D01*
X007944Y018114D02*
X007992Y018065D01*
X007992Y018017D01*
X007944Y018114D02*
X007847Y018114D01*
X007400Y018210D02*
X007352Y018259D01*
X007207Y018259D01*
X007207Y017969D01*
X007352Y017969D01*
X007400Y018017D01*
X007400Y018210D01*
X007106Y018259D02*
X007106Y017969D01*
X006912Y018259D01*
X006912Y017969D01*
X006811Y018017D02*
X006762Y017969D01*
X006666Y017969D01*
X006617Y018017D01*
X006617Y018210D01*
X006666Y018259D01*
X006762Y018259D01*
X006811Y018210D01*
X006811Y018114D02*
X006714Y018114D01*
X006811Y018114D02*
X006811Y018017D01*
X006317Y018017D02*
X006269Y017969D01*
X006172Y017969D01*
X006124Y018017D01*
X006124Y018210D01*
X006172Y018259D01*
X006269Y018259D01*
X006317Y018210D01*
X006023Y018210D02*
X005974Y018259D01*
X005878Y018259D01*
X005829Y018210D01*
X005829Y018017D01*
X005878Y017969D01*
X005974Y017969D01*
X006023Y018017D01*
X005728Y018065D02*
X005728Y018259D01*
X005535Y018259D02*
X005535Y018065D01*
X005631Y017969D01*
X005728Y018065D01*
X001735Y005719D02*
X001735Y005472D01*
X001735Y005350D02*
X001612Y005227D01*
X001735Y005103D01*
X001365Y005103D01*
X001426Y004982D02*
X001365Y004920D01*
X001365Y004797D01*
X001426Y004735D01*
X001488Y004735D01*
X001550Y004797D01*
X001550Y004920D01*
X001612Y004982D01*
X001673Y004982D01*
X001735Y004920D01*
X001735Y004797D01*
X001673Y004735D01*
X001735Y005350D02*
X001365Y005350D01*
X001488Y005472D02*
X001365Y005595D01*
X001735Y005595D01*
X008505Y004632D02*
X008505Y004508D01*
X008566Y004447D01*
X008690Y004570D02*
X008690Y004632D01*
X008752Y004693D01*
X008813Y004693D01*
X008875Y004632D01*
X008875Y004508D01*
X008813Y004447D01*
X008875Y004325D02*
X008875Y004078D01*
X008875Y004202D02*
X008505Y004202D01*
X008628Y004078D01*
X008566Y003957D02*
X008813Y003710D01*
X008875Y003710D01*
X008752Y003589D02*
X008875Y003465D01*
X008752Y003342D01*
X008505Y003342D01*
X008505Y003589D02*
X008752Y003589D01*
X008505Y003710D02*
X008505Y003957D01*
X008566Y003957D01*
X008505Y004632D02*
X008566Y004693D01*
X008628Y004693D01*
X008690Y004632D01*
X008875Y003220D02*
X008875Y002973D01*
X008505Y002973D01*
X008505Y002852D02*
X008505Y002605D01*
X008505Y002728D02*
X008875Y002728D01*
D16*
X011351Y002190D02*
X013149Y002190D01*
X012550Y002540D02*
X012552Y002566D01*
X012558Y002592D01*
X012567Y002616D01*
X012580Y002639D01*
X012596Y002660D01*
X012615Y002678D01*
X012636Y002694D01*
X012660Y002706D01*
X012684Y002714D01*
X012710Y002719D01*
X012737Y002720D01*
X012763Y002717D01*
X012788Y002710D01*
X012812Y002700D01*
X012835Y002686D01*
X012855Y002670D01*
X012872Y002650D01*
X012887Y002628D01*
X012898Y002604D01*
X012906Y002579D01*
X012910Y002553D01*
X012910Y002527D01*
X012906Y002501D01*
X012898Y002476D01*
X012887Y002452D01*
X012872Y002430D01*
X012855Y002410D01*
X012835Y002394D01*
X012812Y002380D01*
X012788Y002370D01*
X012763Y002363D01*
X012737Y002360D01*
X012710Y002361D01*
X012684Y002366D01*
X012660Y002374D01*
X012636Y002386D01*
X012615Y002402D01*
X012596Y002420D01*
X012580Y002441D01*
X012567Y002464D01*
X012558Y002488D01*
X012552Y002514D01*
X012550Y002540D01*
X013149Y004170D02*
X011351Y004170D01*
X014250Y014730D02*
X007750Y014730D01*
X007720Y014732D01*
X007690Y014737D01*
X007661Y014746D01*
X007634Y014759D01*
X007608Y014774D01*
X007584Y014793D01*
X007563Y014814D01*
X007544Y014838D01*
X007529Y014864D01*
X007516Y014891D01*
X007507Y014920D01*
X007502Y014950D01*
X007500Y014980D01*
X007500Y016880D01*
X007502Y016910D01*
X007507Y016940D01*
X007516Y016969D01*
X007529Y016996D01*
X007544Y017022D01*
X007563Y017046D01*
X007584Y017067D01*
X007608Y017086D01*
X007634Y017101D01*
X007661Y017114D01*
X007690Y017123D01*
X007720Y017128D01*
X007750Y017130D01*
X014250Y017130D01*
X014280Y017128D01*
X014310Y017123D01*
X014339Y017114D01*
X014366Y017101D01*
X014392Y017086D01*
X014416Y017067D01*
X014437Y017046D01*
X014456Y017022D01*
X014471Y016996D01*
X014484Y016969D01*
X014493Y016940D01*
X014498Y016910D01*
X014500Y016880D01*
X014500Y014980D01*
X014498Y014950D01*
X014493Y014920D01*
X014484Y014891D01*
X014471Y014864D01*
X014456Y014838D01*
X014437Y014814D01*
X014416Y014793D01*
X014392Y014774D01*
X014366Y014759D01*
X014339Y014746D01*
X014310Y014737D01*
X014280Y014732D01*
X014250Y014730D01*
D17*
X015020Y013660D02*
X015250Y013660D01*
X015327Y013584D01*
X015327Y013430D01*
X015250Y013353D01*
X015020Y013353D01*
X015020Y013200D02*
X015020Y013660D01*
X015173Y013353D02*
X015327Y013200D01*
X015480Y013277D02*
X015557Y013200D01*
X015711Y013200D01*
X015787Y013277D01*
X015787Y013430D01*
X015711Y013507D01*
X015634Y013507D01*
X015480Y013430D01*
X015480Y013660D01*
X015787Y013660D01*
X015783Y018800D02*
X016024Y018800D01*
X016152Y018800D02*
X016152Y018860D01*
X016392Y019100D01*
X016392Y019160D01*
X016152Y019160D01*
X016024Y019160D02*
X016024Y019100D01*
X015783Y018860D01*
X015783Y018800D01*
X015655Y018860D02*
X015655Y019160D01*
X015783Y019160D02*
X016024Y019160D01*
X015655Y018860D02*
X015595Y018800D01*
X015475Y018800D01*
X015415Y018860D01*
X015415Y019160D01*
X015287Y019100D02*
X015287Y019040D01*
X015227Y018980D01*
X015047Y018980D01*
X015227Y018980D02*
X015287Y018920D01*
X015287Y018860D01*
X015227Y018800D01*
X015047Y018800D01*
X015047Y019160D01*
X015227Y019160D01*
X015287Y019100D01*
X016152Y018800D02*
X016392Y018800D01*
X007980Y011467D02*
X007980Y011160D01*
X007980Y011007D02*
X007827Y010853D01*
X007827Y010930D02*
X007827Y010700D01*
X007980Y010700D02*
X007520Y010700D01*
X007520Y010930D01*
X007596Y011007D01*
X007750Y011007D01*
X007827Y010930D01*
X007673Y011160D02*
X007520Y011314D01*
X007980Y011314D01*
X006230Y011467D02*
X006230Y011160D01*
X005923Y011467D01*
X005846Y011467D01*
X005770Y011391D01*
X005770Y011237D01*
X005846Y011160D01*
X005846Y011007D02*
X005770Y010930D01*
X005770Y010777D01*
X005846Y010700D01*
X006153Y010700D01*
X006230Y010777D01*
X006230Y010930D01*
X006153Y011007D01*
X004480Y011007D02*
X004327Y010853D01*
X004327Y010930D02*
X004327Y010700D01*
X004480Y010700D02*
X004020Y010700D01*
X004020Y010930D01*
X004096Y011007D01*
X004250Y011007D01*
X004327Y010930D01*
X004480Y011160D02*
X004173Y011467D01*
X004096Y011467D01*
X004020Y011391D01*
X004020Y011237D01*
X004096Y011160D01*
X004480Y011160D02*
X004480Y011467D01*
X004250Y007797D02*
X004250Y007490D01*
X004020Y007720D01*
X004480Y007720D01*
X004480Y007336D02*
X004327Y007183D01*
X004327Y007259D02*
X004327Y007029D01*
X004480Y007029D02*
X004020Y007029D01*
X004020Y007259D01*
X004096Y007336D01*
X004250Y007336D01*
X004327Y007259D01*
X005770Y007259D02*
X005770Y007106D01*
X005846Y007029D01*
X006153Y007029D01*
X006230Y007106D01*
X006230Y007259D01*
X006153Y007336D01*
X006153Y007490D02*
X006230Y007566D01*
X006230Y007720D01*
X006153Y007797D01*
X006077Y007797D01*
X006000Y007720D01*
X006000Y007643D01*
X006000Y007720D02*
X005923Y007797D01*
X005846Y007797D01*
X005770Y007720D01*
X005770Y007566D01*
X005846Y007490D01*
X005846Y007336D02*
X005770Y007259D01*
X007520Y007180D02*
X007520Y006950D01*
X007980Y006950D01*
X007827Y006950D02*
X007827Y007180D01*
X007750Y007257D01*
X007596Y007257D01*
X007520Y007180D01*
X007596Y007410D02*
X007520Y007487D01*
X007520Y007641D01*
X007596Y007717D01*
X007673Y007717D01*
X007750Y007641D01*
X007827Y007717D01*
X007903Y007717D01*
X007980Y007641D01*
X007980Y007487D01*
X007903Y007410D01*
X007980Y007257D02*
X007827Y007103D01*
X007750Y007564D02*
X007750Y007641D01*
X009270Y006334D02*
X009270Y006027D01*
X009347Y005950D01*
X009500Y005950D01*
X009577Y006027D01*
X009730Y006180D02*
X010037Y006180D01*
X009961Y005950D02*
X009961Y006410D01*
X009730Y006180D01*
X009577Y006334D02*
X009500Y006410D01*
X009347Y006410D01*
X009270Y006334D01*
X009980Y002020D02*
X009920Y001960D01*
X009920Y001900D01*
X009980Y001840D01*
X010100Y001840D01*
X010160Y001780D01*
X010160Y001720D01*
X010100Y001660D01*
X009980Y001660D01*
X009920Y001720D01*
X009980Y002020D02*
X010100Y002020D01*
X010160Y001960D01*
X010289Y002020D02*
X010529Y001660D01*
X010529Y002020D01*
X010657Y002020D02*
X010897Y002020D01*
X010897Y001960D01*
X010657Y001720D01*
X010657Y001660D01*
X010289Y001660D02*
X010289Y002020D01*
X011025Y001840D02*
X011265Y001840D01*
X011393Y001960D02*
X011393Y001720D01*
X011454Y001660D01*
X011574Y001660D01*
X011634Y001720D01*
X011762Y001660D02*
X011942Y001660D01*
X012002Y001720D01*
X012002Y001780D01*
X011942Y001840D01*
X011762Y001840D01*
X011634Y001960D02*
X011574Y002020D01*
X011454Y002020D01*
X011393Y001960D01*
X011205Y002020D02*
X011205Y001660D01*
X011025Y001840D02*
X011205Y002020D01*
X011762Y002020D02*
X011762Y001660D01*
X011942Y001840D02*
X012002Y001900D01*
X012002Y001960D01*
X011942Y002020D01*
X011762Y002020D01*
X012130Y001960D02*
X012190Y002020D01*
X012310Y002020D01*
X012370Y001960D01*
X012370Y001900D01*
X012310Y001840D01*
X012370Y001780D01*
X012370Y001720D01*
X012310Y001660D01*
X012190Y001660D01*
X012130Y001720D01*
X012250Y001840D02*
X012310Y001840D01*
X012498Y002020D02*
X012739Y002020D01*
X012619Y002020D02*
X012619Y001660D01*
X012867Y001720D02*
X012927Y001660D01*
X013047Y001660D01*
X013107Y001720D01*
X013107Y001780D01*
X013047Y001840D01*
X012987Y001840D01*
X013047Y001840D02*
X013107Y001900D01*
X013107Y001960D01*
X013047Y002020D01*
X012927Y002020D01*
X012867Y001960D01*
X013235Y001900D02*
X013355Y002020D01*
X013355Y001660D01*
X013235Y001660D02*
X013475Y001660D01*
X013603Y001660D02*
X013844Y001900D01*
X013844Y001960D01*
X013784Y002020D01*
X013663Y002020D01*
X013603Y001960D01*
X013603Y001660D02*
X013844Y001660D01*
X013972Y001720D02*
X014032Y001660D01*
X014152Y001660D01*
X014212Y001720D01*
X014212Y001840D01*
X014152Y001900D01*
X014092Y001900D01*
X013972Y001840D01*
X013972Y002020D01*
X014212Y002020D01*
X014213Y004700D02*
X014213Y005160D01*
X014060Y005007D01*
X013906Y005084D02*
X013829Y005160D01*
X013676Y005160D01*
X013599Y005084D01*
X013599Y004777D01*
X013676Y004700D01*
X013829Y004700D01*
X013906Y004777D01*
X014060Y004700D02*
X014367Y004700D01*
D18*
X009909Y004250D02*
X009571Y004250D01*
X009421Y003796D02*
X009421Y003584D01*
X009571Y003130D02*
X009909Y003130D01*
X016799Y012971D02*
X016799Y013286D01*
X017035Y013286D01*
X017665Y013286D02*
X017901Y013286D01*
X017901Y012971D01*
X014927Y016180D02*
X014929Y016276D01*
X014935Y016372D01*
X014945Y016467D01*
X014959Y016562D01*
X014976Y016657D01*
X014998Y016750D01*
X015024Y016843D01*
X015053Y016934D01*
X015086Y017024D01*
X015123Y017113D01*
X015163Y017200D01*
X015207Y017286D01*
X015254Y017369D01*
X015305Y017451D01*
X015359Y017530D01*
X015417Y017607D01*
X015477Y017681D01*
X015541Y017753D01*
X015607Y017823D01*
X015677Y017889D01*
X015749Y017953D01*
X015823Y018013D01*
X015900Y018071D01*
X015979Y018125D01*
X016061Y018176D01*
X016144Y018223D01*
X016230Y018267D01*
X016317Y018307D01*
X016406Y018344D01*
X016496Y018377D01*
X016587Y018406D01*
X016680Y018432D01*
X016773Y018454D01*
X016868Y018471D01*
X016963Y018485D01*
X017058Y018495D01*
X017154Y018501D01*
X017250Y018503D01*
X017346Y018501D01*
X017442Y018495D01*
X017537Y018485D01*
X017632Y018471D01*
X017727Y018454D01*
X017820Y018432D01*
X017913Y018406D01*
X018004Y018377D01*
X018094Y018344D01*
X018183Y018307D01*
X018270Y018267D01*
X018356Y018223D01*
X018439Y018176D01*
X018521Y018125D01*
X018600Y018071D01*
X018677Y018013D01*
X018751Y017953D01*
X018823Y017889D01*
X018893Y017823D01*
X018959Y017753D01*
X019023Y017681D01*
X019083Y017607D01*
X019141Y017530D01*
X019195Y017451D01*
X019246Y017369D01*
X019293Y017286D01*
X019337Y017200D01*
X019377Y017113D01*
X019414Y017024D01*
X019447Y016934D01*
X019476Y016843D01*
X019502Y016750D01*
X019524Y016657D01*
X019541Y016562D01*
X019555Y016467D01*
X019565Y016372D01*
X019571Y016276D01*
X019573Y016180D01*
X019571Y016084D01*
X019565Y015988D01*
X019555Y015893D01*
X019541Y015798D01*
X019524Y015703D01*
X019502Y015610D01*
X019476Y015517D01*
X019447Y015426D01*
X019414Y015336D01*
X019377Y015247D01*
X019337Y015160D01*
X019293Y015074D01*
X019246Y014991D01*
X019195Y014909D01*
X019141Y014830D01*
X019083Y014753D01*
X019023Y014679D01*
X018959Y014607D01*
X018893Y014537D01*
X018823Y014471D01*
X018751Y014407D01*
X018677Y014347D01*
X018600Y014289D01*
X018521Y014235D01*
X018439Y014184D01*
X018356Y014137D01*
X018270Y014093D01*
X018183Y014053D01*
X018094Y014016D01*
X018004Y013983D01*
X017913Y013954D01*
X017820Y013928D01*
X017727Y013906D01*
X017632Y013889D01*
X017537Y013875D01*
X017442Y013865D01*
X017346Y013859D01*
X017250Y013857D01*
X017154Y013859D01*
X017058Y013865D01*
X016963Y013875D01*
X016868Y013889D01*
X016773Y013906D01*
X016680Y013928D01*
X016587Y013954D01*
X016496Y013983D01*
X016406Y014016D01*
X016317Y014053D01*
X016230Y014093D01*
X016144Y014137D01*
X016061Y014184D01*
X015979Y014235D01*
X015900Y014289D01*
X015823Y014347D01*
X015749Y014407D01*
X015677Y014471D01*
X015607Y014537D01*
X015541Y014607D01*
X015477Y014679D01*
X015417Y014753D01*
X015359Y014830D01*
X015305Y014909D01*
X015254Y014991D01*
X015207Y015074D01*
X015163Y015160D01*
X015123Y015247D01*
X015086Y015336D01*
X015053Y015426D01*
X015024Y015517D01*
X014998Y015610D01*
X014976Y015703D01*
X014959Y015798D01*
X014945Y015893D01*
X014935Y015988D01*
X014929Y016084D01*
X014927Y016180D01*
D19*
X018807Y013348D03*
X019073Y013943D03*
X019087Y013943D03*
X019087Y012088D03*
X019073Y012088D03*
X019052Y012088D03*
X019038Y012088D03*
X019017Y012088D03*
X019003Y012088D03*
X018982Y012088D03*
X018968Y012088D03*
X018898Y012088D03*
X018877Y012088D03*
X018863Y012088D03*
X018842Y012088D03*
X018828Y012088D03*
X019108Y012088D03*
X019122Y012088D03*
X019143Y012088D03*
X019157Y012088D03*
X019178Y012088D03*
X019192Y012088D03*
X019087Y011493D03*
X019087Y010912D03*
X019073Y010912D03*
X019052Y010912D03*
X019038Y010912D03*
X019017Y010912D03*
X019003Y010912D03*
X018982Y010912D03*
X018968Y010912D03*
X018947Y010912D03*
X018933Y010912D03*
X018912Y010912D03*
X018898Y010912D03*
X018877Y010912D03*
X018863Y010912D03*
X018842Y010912D03*
X018828Y010912D03*
X019108Y010912D03*
X019122Y010912D03*
X019143Y010912D03*
X019157Y010912D03*
X019178Y010912D03*
X019192Y010912D03*
X019192Y010352D03*
X019178Y010352D03*
X019157Y010352D03*
X019143Y010352D03*
X019122Y010352D03*
X019108Y010352D03*
X019087Y010352D03*
X019073Y010352D03*
X019052Y010352D03*
X019038Y010352D03*
X019017Y010352D03*
X019003Y010352D03*
X018982Y010352D03*
X018968Y010352D03*
X018947Y010352D03*
X018933Y010352D03*
X018912Y010352D03*
X018898Y010352D03*
X018877Y010352D03*
X018863Y010352D03*
X018842Y010352D03*
X018828Y010352D03*
X018618Y010142D03*
X018513Y010107D03*
X018723Y010023D03*
X018912Y009883D03*
X018933Y009883D03*
X019073Y009883D03*
X019087Y009883D03*
X019227Y010002D03*
X019388Y009988D03*
X018737Y009477D03*
X018828Y009288D03*
X018842Y009288D03*
X018863Y009288D03*
X018877Y009288D03*
X018898Y009288D03*
X018912Y009288D03*
X018933Y009288D03*
X018947Y009288D03*
X018968Y009288D03*
X018982Y009288D03*
X019003Y009288D03*
X019017Y009288D03*
X019038Y009288D03*
X019052Y009288D03*
X019073Y009288D03*
X019087Y009288D03*
X019108Y009288D03*
X019122Y009288D03*
X019143Y009288D03*
X019157Y009288D03*
X019178Y009288D03*
X019192Y009288D03*
X019192Y008728D03*
X019178Y008728D03*
X019157Y008728D03*
X019143Y008728D03*
X019122Y008728D03*
X019108Y008728D03*
X019087Y008728D03*
X019073Y008728D03*
X019052Y008728D03*
X019038Y008728D03*
X019017Y008728D03*
X019003Y008728D03*
X018982Y008728D03*
X018968Y008728D03*
X018947Y008728D03*
X018933Y008728D03*
X018912Y008728D03*
X018898Y008728D03*
X018877Y008728D03*
X018863Y008728D03*
X018842Y008728D03*
X018828Y008728D03*
X018793Y008693D03*
X018982Y008497D03*
X019003Y008497D03*
X019017Y008497D03*
X019038Y008497D03*
X019052Y008497D03*
X019073Y008497D03*
X019087Y008497D03*
X019052Y008462D03*
X019038Y008462D03*
X019017Y008462D03*
X019003Y008308D03*
X018842Y008133D03*
X018828Y008133D03*
X018807Y008133D03*
X018793Y008133D03*
X018772Y008133D03*
X018513Y008357D03*
X018387Y008413D03*
X018093Y008742D03*
X018072Y008728D03*
X018107Y009148D03*
X018037Y009708D03*
X018632Y009057D03*
X019213Y008728D03*
X019227Y008728D03*
X019248Y008728D03*
X019262Y008728D03*
X019283Y008728D03*
X019297Y008728D03*
X019318Y008728D03*
X019332Y008728D03*
D20*
X019332Y008826D03*
X019318Y008826D03*
X019297Y008826D03*
X019283Y008826D03*
X019262Y008826D03*
X019248Y008826D03*
X019227Y008826D03*
X019213Y008826D03*
X019073Y008826D03*
X019052Y008826D03*
X019038Y008826D03*
X019017Y008826D03*
X019003Y008826D03*
X018982Y008826D03*
X018968Y008826D03*
X018947Y008826D03*
X018933Y008826D03*
X018933Y008595D03*
X018947Y008595D03*
X018968Y008595D03*
X018982Y008595D03*
X019003Y008595D03*
X019017Y008595D03*
X019038Y008595D03*
X019052Y008595D03*
X019073Y008595D03*
X019087Y008595D03*
X019108Y008595D03*
X019122Y008595D03*
X019143Y008595D03*
X019157Y008595D03*
X019178Y008595D03*
X019192Y008595D03*
X019332Y008476D03*
X019283Y008406D03*
X019192Y008035D03*
X019178Y008035D03*
X019157Y008035D03*
X019143Y008035D03*
X019122Y008035D03*
X019108Y008035D03*
X018947Y008035D03*
X018933Y008035D03*
X018912Y008035D03*
X018898Y008035D03*
X018877Y008035D03*
X018863Y008035D03*
X018842Y008035D03*
X018828Y008035D03*
X018807Y008035D03*
X018793Y008035D03*
X018772Y008035D03*
X018758Y008035D03*
X018737Y008035D03*
X018723Y008035D03*
X018702Y008035D03*
X018688Y008035D03*
X018667Y008035D03*
X018583Y008336D03*
X018492Y008364D03*
X018478Y008371D03*
X018352Y008434D03*
X018667Y008595D03*
X018688Y008595D03*
X018702Y008595D03*
X018723Y008595D03*
X018737Y008595D03*
X018758Y008595D03*
X018877Y008595D03*
X018898Y008595D03*
X018912Y008595D03*
X018912Y009190D03*
X018933Y009190D03*
X018947Y009190D03*
X018968Y009190D03*
X018982Y009190D03*
X019003Y009190D03*
X019017Y009190D03*
X019038Y009190D03*
X019052Y009190D03*
X019073Y009190D03*
X019087Y009190D03*
X019087Y009421D03*
X019073Y009421D03*
X019052Y009421D03*
X019038Y009421D03*
X019017Y009421D03*
X019003Y009421D03*
X018982Y009421D03*
X018968Y009421D03*
X018898Y009421D03*
X018877Y009421D03*
X018863Y009421D03*
X018842Y009421D03*
X018828Y009421D03*
X018723Y009470D03*
X018688Y009449D03*
X018667Y009435D03*
X018653Y009421D03*
X018618Y009379D03*
X018408Y009764D03*
X018408Y009890D03*
X018338Y010009D03*
X018457Y010086D03*
X018548Y010121D03*
X018702Y010086D03*
X018737Y009995D03*
X018828Y009981D03*
X018842Y009981D03*
X018863Y009981D03*
X018877Y009981D03*
X018898Y009981D03*
X018912Y009981D03*
X018933Y009981D03*
X018947Y009981D03*
X018968Y009981D03*
X018982Y009981D03*
X019003Y009981D03*
X019017Y009981D03*
X019038Y009981D03*
X019052Y009981D03*
X019073Y009981D03*
X019087Y009981D03*
X019108Y009981D03*
X019122Y009981D03*
X019143Y009981D03*
X019157Y009981D03*
X019178Y009981D03*
X019192Y009981D03*
X019213Y010016D03*
X019213Y010086D03*
X019192Y010121D03*
X019178Y010121D03*
X019157Y010121D03*
X019143Y010121D03*
X019122Y010121D03*
X019108Y010121D03*
X019087Y010121D03*
X019073Y010121D03*
X019052Y010121D03*
X019038Y010121D03*
X019017Y010121D03*
X019003Y010121D03*
X018982Y010121D03*
X018968Y010121D03*
X018947Y010121D03*
X018933Y010121D03*
X018912Y010121D03*
X018898Y010121D03*
X018877Y010121D03*
X018863Y010121D03*
X018842Y010121D03*
X018828Y010121D03*
X018828Y010219D03*
X018842Y010219D03*
X018863Y010219D03*
X018877Y010219D03*
X018898Y010219D03*
X018912Y010219D03*
X018933Y010219D03*
X018947Y010219D03*
X018968Y010219D03*
X018982Y010219D03*
X019003Y010219D03*
X019017Y010219D03*
X019038Y010219D03*
X019052Y010219D03*
X019073Y010219D03*
X019087Y010219D03*
X019108Y010219D03*
X019122Y010219D03*
X019143Y010219D03*
X019157Y010219D03*
X019178Y010219D03*
X019192Y010219D03*
X019192Y010450D03*
X019178Y010450D03*
X019157Y010450D03*
X019143Y010450D03*
X019122Y010450D03*
X019108Y010450D03*
X019087Y010450D03*
X019073Y010450D03*
X019052Y010450D03*
X019038Y010450D03*
X019017Y010450D03*
X019003Y010450D03*
X018982Y010450D03*
X018968Y010450D03*
X018947Y010450D03*
X018933Y010450D03*
X018933Y010814D03*
X018947Y010814D03*
X018968Y010814D03*
X018982Y010814D03*
X019003Y010814D03*
X019017Y010814D03*
X019038Y010814D03*
X019052Y010814D03*
X019073Y010814D03*
X019087Y010814D03*
X019108Y010814D03*
X019122Y010814D03*
X019143Y010814D03*
X019157Y010814D03*
X019178Y010814D03*
X019192Y010814D03*
X018912Y010814D03*
X018912Y011395D03*
X018898Y011395D03*
X018877Y011395D03*
X018863Y011395D03*
X018842Y011395D03*
X018828Y011395D03*
X018807Y011395D03*
X018793Y011395D03*
X018772Y011395D03*
X018758Y011395D03*
X018737Y011395D03*
X018723Y011395D03*
X018702Y011395D03*
X018688Y011395D03*
X018667Y011395D03*
X018933Y011395D03*
X018947Y011395D03*
X018968Y011395D03*
X018982Y011395D03*
X019003Y011395D03*
X019017Y011395D03*
X019038Y011395D03*
X019052Y011395D03*
X019073Y011395D03*
X019087Y011395D03*
X019108Y011395D03*
X019122Y011395D03*
X019143Y011395D03*
X019157Y011395D03*
X019178Y011395D03*
X019192Y011395D03*
X019192Y011955D03*
X019178Y011955D03*
X019157Y011955D03*
X019143Y011955D03*
X019122Y011955D03*
X019108Y011955D03*
X019073Y012186D03*
X019073Y012781D03*
X019087Y012781D03*
X019108Y012781D03*
X019122Y012781D03*
X019143Y012781D03*
X019157Y012781D03*
X019178Y012781D03*
X019192Y012781D03*
X019052Y012781D03*
X019038Y012781D03*
X019017Y012781D03*
X019003Y012781D03*
X018982Y012781D03*
X018968Y012781D03*
X018947Y012781D03*
X018933Y012781D03*
X018912Y012781D03*
X018898Y012781D03*
X018877Y012781D03*
X018863Y012781D03*
X018842Y012781D03*
X018828Y012781D03*
X018807Y012781D03*
X018793Y012781D03*
X018772Y012781D03*
X018758Y012781D03*
X018737Y012781D03*
X018723Y012781D03*
X018702Y012781D03*
X018688Y012781D03*
X018667Y012781D03*
X018667Y012879D03*
X018688Y012879D03*
X018702Y012879D03*
X018723Y012879D03*
X018737Y012879D03*
X018758Y012879D03*
X018772Y012879D03*
X018793Y012879D03*
X018933Y012879D03*
X018947Y012879D03*
X018968Y012879D03*
X018982Y012879D03*
X019003Y012879D03*
X019017Y012879D03*
X019038Y012879D03*
X019052Y012879D03*
X019073Y012879D03*
X019038Y013481D03*
X019017Y013481D03*
X019003Y013481D03*
X018982Y013481D03*
X018968Y013481D03*
X018947Y013481D03*
X018933Y013481D03*
X018912Y013481D03*
X018898Y013481D03*
X018877Y013481D03*
X018863Y013481D03*
X018842Y013481D03*
X018828Y013481D03*
X018933Y013579D03*
X019108Y013481D03*
X019122Y013481D03*
X019143Y013481D03*
X019157Y013481D03*
X019178Y013481D03*
X019192Y013481D03*
X019192Y014041D03*
X019178Y014041D03*
X019157Y014041D03*
X019143Y014041D03*
X019122Y014041D03*
X019108Y014041D03*
X019087Y014041D03*
X019073Y014041D03*
X019052Y014041D03*
X019038Y014041D03*
X019017Y014041D03*
X019003Y014041D03*
X018982Y014041D03*
X018968Y014041D03*
X018898Y014041D03*
X018877Y014041D03*
X018863Y014041D03*
X018842Y014041D03*
X018828Y014041D03*
X019367Y010009D03*
X019388Y009995D03*
X019353Y009946D03*
X019052Y009526D03*
X019073Y009519D03*
X019108Y009421D03*
X019122Y009421D03*
X019143Y009421D03*
X019157Y009421D03*
X019178Y009421D03*
X019192Y009421D03*
X018212Y009701D03*
X018093Y009764D03*
X017967Y009554D03*
X017953Y009505D03*
X017953Y009421D03*
X017988Y009414D03*
X018177Y009246D03*
X018072Y009120D03*
X017932Y009029D03*
X017953Y008945D03*
X017988Y008854D03*
X018002Y008819D03*
X018198Y008791D03*
X018317Y008791D03*
D21*
X018310Y008476D03*
X017925Y009064D03*
X018345Y010009D03*
X019381Y009988D03*
D22*
X019374Y009988D03*
X017939Y009442D03*
D23*
X018352Y010005D03*
X019367Y009984D03*
D24*
X019360Y009984D03*
X018359Y010005D03*
X018849Y008661D03*
X018856Y008661D03*
X018870Y008661D03*
X018884Y008661D03*
X018891Y008661D03*
X018905Y008661D03*
X018919Y008661D03*
X018926Y008661D03*
X018940Y008661D03*
X018954Y008661D03*
X018961Y008661D03*
X018975Y008661D03*
X018989Y008661D03*
X018996Y008661D03*
X019010Y008661D03*
X019024Y008661D03*
X019031Y008661D03*
X019045Y008661D03*
X019059Y008661D03*
X019066Y008661D03*
X019080Y008661D03*
X019094Y008661D03*
X019101Y008661D03*
X019115Y008661D03*
X019129Y008661D03*
X019136Y008661D03*
X019150Y008661D03*
X019164Y008661D03*
X019171Y008661D03*
X019185Y008661D03*
X019199Y008661D03*
X019206Y008661D03*
X019325Y008458D03*
D25*
X019290Y008413D03*
X019304Y008518D03*
X019304Y008728D03*
X019311Y008728D03*
X019325Y008728D03*
X019290Y008728D03*
X019276Y008728D03*
X019269Y008728D03*
X019255Y008728D03*
X019241Y008728D03*
X019234Y008728D03*
X019220Y008728D03*
X019206Y008728D03*
X019199Y008728D03*
X019185Y008728D03*
X019171Y008728D03*
X019164Y008728D03*
X019150Y008728D03*
X019136Y008728D03*
X019129Y008728D03*
X019115Y008728D03*
X019101Y008728D03*
X019094Y008728D03*
X019080Y008728D03*
X019066Y008728D03*
X019059Y008728D03*
X019045Y008728D03*
X019031Y008728D03*
X019024Y008728D03*
X019010Y008728D03*
X018996Y008728D03*
X018989Y008728D03*
X018975Y008728D03*
X018961Y008728D03*
X018954Y008728D03*
X018940Y008728D03*
X018926Y008728D03*
X018919Y008728D03*
X018905Y008728D03*
X018891Y008728D03*
X018884Y008728D03*
X018870Y008728D03*
X018856Y008728D03*
X018849Y008728D03*
X018835Y008728D03*
X018821Y008728D03*
X018814Y008728D03*
X018905Y008833D03*
X019059Y008952D03*
X019059Y009288D03*
X019066Y009288D03*
X019080Y009288D03*
X019094Y009288D03*
X019101Y009288D03*
X019115Y009288D03*
X019129Y009288D03*
X019136Y009288D03*
X019150Y009288D03*
X019164Y009288D03*
X019171Y009288D03*
X019185Y009288D03*
X019045Y009288D03*
X019031Y009288D03*
X019024Y009288D03*
X019010Y009288D03*
X018996Y009288D03*
X018989Y009288D03*
X018975Y009288D03*
X018961Y009288D03*
X018954Y009288D03*
X018940Y009288D03*
X018926Y009288D03*
X018919Y009288D03*
X018905Y009288D03*
X018891Y009288D03*
X018884Y009288D03*
X018870Y009288D03*
X018856Y009288D03*
X018849Y009288D03*
X018835Y009288D03*
X018821Y009288D03*
X018814Y009288D03*
X018681Y009442D03*
X018660Y009428D03*
X018639Y009407D03*
X018716Y008987D03*
X018625Y008602D03*
X018464Y008378D03*
X018429Y008392D03*
X018779Y008133D03*
X018786Y008133D03*
X018800Y008133D03*
X018814Y008133D03*
X018821Y008133D03*
X018835Y008133D03*
X018849Y008133D03*
X019010Y008462D03*
X019024Y008462D03*
X019031Y008462D03*
X019045Y008462D03*
X019045Y008497D03*
X019031Y008497D03*
X019024Y008497D03*
X019010Y008497D03*
X018996Y008497D03*
X018989Y008497D03*
X018975Y008497D03*
X019059Y008497D03*
X019066Y008497D03*
X019080Y008497D03*
X018156Y008777D03*
X018079Y009127D03*
X018044Y009393D03*
X017960Y009533D03*
X018156Y009722D03*
X018184Y009708D03*
X018569Y010128D03*
X018919Y009883D03*
X018926Y009883D03*
X018940Y009883D03*
X019059Y009883D03*
X019066Y009883D03*
X019080Y009883D03*
X019010Y010023D03*
X019346Y010023D03*
X019360Y009953D03*
X019185Y010352D03*
X019171Y010352D03*
X019164Y010352D03*
X019150Y010352D03*
X019136Y010352D03*
X019129Y010352D03*
X019115Y010352D03*
X019101Y010352D03*
X019094Y010352D03*
X019080Y010352D03*
X019066Y010352D03*
X019059Y010352D03*
X019045Y010352D03*
X019031Y010352D03*
X019024Y010352D03*
X019010Y010352D03*
X018996Y010352D03*
X018989Y010352D03*
X018975Y010352D03*
X018961Y010352D03*
X018954Y010352D03*
X018940Y010352D03*
X018926Y010352D03*
X018919Y010352D03*
X018905Y010352D03*
X018891Y010352D03*
X018884Y010352D03*
X018870Y010352D03*
X018856Y010352D03*
X018849Y010352D03*
X018835Y010352D03*
X018821Y010352D03*
X018814Y010352D03*
X018905Y010457D03*
X018905Y010912D03*
X018891Y010912D03*
X018884Y010912D03*
X018870Y010912D03*
X018856Y010912D03*
X018849Y010912D03*
X018835Y010912D03*
X018821Y010912D03*
X018814Y010912D03*
X018919Y010912D03*
X018926Y010912D03*
X018940Y010912D03*
X018954Y010912D03*
X018961Y010912D03*
X018975Y010912D03*
X018989Y010912D03*
X018996Y010912D03*
X019010Y010912D03*
X019024Y010912D03*
X019031Y010912D03*
X019045Y010912D03*
X019059Y010912D03*
X019066Y010912D03*
X019080Y010912D03*
X019094Y010912D03*
X019101Y010912D03*
X019115Y010912D03*
X019129Y010912D03*
X019136Y010912D03*
X019150Y010912D03*
X019164Y010912D03*
X019171Y010912D03*
X019185Y010912D03*
X019185Y012088D03*
X019171Y012088D03*
X019164Y012088D03*
X019150Y012088D03*
X019136Y012088D03*
X019129Y012088D03*
X019115Y012088D03*
X019101Y012088D03*
X019094Y012088D03*
X019080Y012088D03*
X019066Y012088D03*
X019059Y012088D03*
X019045Y012088D03*
X019031Y012088D03*
X019024Y012088D03*
X019010Y012088D03*
X018996Y012088D03*
X018989Y012088D03*
X018975Y012088D03*
X018961Y012088D03*
X018891Y012088D03*
X018884Y012088D03*
X018870Y012088D03*
X018856Y012088D03*
X018849Y012088D03*
X018835Y012088D03*
X018821Y012088D03*
X018814Y012088D03*
X018954Y012543D03*
X019059Y013943D03*
X019066Y013943D03*
X019080Y013943D03*
D26*
X019353Y009985D03*
X019318Y008459D03*
D27*
X019346Y009978D03*
D28*
X019276Y008613D03*
X019339Y008451D03*
D29*
X019339Y008777D03*
X019094Y008784D03*
X019094Y009477D03*
X019339Y009974D03*
X018380Y009995D03*
X017960Y009477D03*
X019094Y012144D03*
X019094Y012599D03*
X018954Y012599D03*
X018905Y012599D03*
X018905Y012837D03*
X018800Y012837D03*
X019094Y012837D03*
X019094Y013292D03*
X018905Y013292D03*
X018954Y013537D03*
D30*
X018387Y008658D03*
X018317Y008476D03*
X019332Y008455D03*
D31*
X018828Y008626D03*
X019332Y009970D03*
D32*
X019087Y009932D03*
X019073Y009932D03*
X018933Y009932D03*
X018912Y009932D03*
X018933Y010401D03*
X018947Y010401D03*
X018968Y010401D03*
X018982Y010401D03*
X019003Y010401D03*
X019017Y010401D03*
X019038Y010401D03*
X019052Y010401D03*
X019073Y010401D03*
X019087Y010401D03*
X019108Y010401D03*
X019122Y010401D03*
X019143Y010401D03*
X019157Y010401D03*
X019178Y010401D03*
X019192Y010401D03*
X019192Y010863D03*
X019178Y010863D03*
X019157Y010863D03*
X019143Y010863D03*
X019122Y010863D03*
X019108Y010863D03*
X019087Y010863D03*
X019073Y010863D03*
X019052Y010863D03*
X019038Y010863D03*
X019017Y010863D03*
X019003Y010863D03*
X018982Y010863D03*
X018968Y010863D03*
X018947Y010863D03*
X018933Y010863D03*
X018912Y010863D03*
X019087Y011444D03*
X019073Y012137D03*
X019073Y013992D03*
X019087Y013992D03*
X019087Y009239D03*
X019073Y009239D03*
X019052Y009239D03*
X019038Y009239D03*
X019017Y009239D03*
X019003Y009239D03*
X018982Y009239D03*
X018968Y009239D03*
X018947Y009239D03*
X018933Y009239D03*
X018912Y009239D03*
X018933Y008777D03*
X018947Y008777D03*
X018968Y008777D03*
X018982Y008777D03*
X019003Y008777D03*
X019017Y008777D03*
X019038Y008777D03*
X019052Y008777D03*
X019073Y008777D03*
X019213Y008777D03*
X019227Y008777D03*
X019248Y008777D03*
X019262Y008777D03*
X019283Y008777D03*
X019297Y008777D03*
X019318Y008777D03*
X019332Y008777D03*
X019087Y008546D03*
X019073Y008546D03*
X019052Y008546D03*
X019038Y008546D03*
X019017Y008546D03*
X019003Y008546D03*
X018982Y008546D03*
X018842Y008084D03*
X018828Y008084D03*
X018807Y008084D03*
X018793Y008084D03*
X018772Y008084D03*
D33*
X019024Y008389D03*
X019031Y008389D03*
X019045Y008389D03*
X018996Y008935D03*
X019325Y009964D03*
X018394Y009985D03*
D34*
X018415Y010065D03*
X018534Y010114D03*
X018695Y010121D03*
X018709Y010051D03*
X018716Y010030D03*
X018730Y010009D03*
X018751Y009981D03*
X018814Y009981D03*
X018821Y009981D03*
X018835Y009981D03*
X018849Y009981D03*
X018856Y009981D03*
X018870Y009981D03*
X018884Y009981D03*
X018891Y009981D03*
X018905Y009981D03*
X018919Y009981D03*
X018926Y009981D03*
X018940Y009981D03*
X018954Y009981D03*
X018961Y009981D03*
X018975Y009981D03*
X018989Y009981D03*
X018996Y009981D03*
X019010Y009981D03*
X019024Y009981D03*
X019031Y009981D03*
X019045Y009981D03*
X019059Y009981D03*
X019066Y009981D03*
X019080Y009981D03*
X019094Y009981D03*
X019101Y009981D03*
X019115Y009981D03*
X019129Y009981D03*
X019136Y009981D03*
X019150Y009981D03*
X019164Y009981D03*
X019171Y009981D03*
X019185Y009981D03*
X019185Y010121D03*
X019171Y010121D03*
X019164Y010121D03*
X019150Y010121D03*
X019136Y010121D03*
X019129Y010121D03*
X019115Y010121D03*
X019101Y010121D03*
X019094Y010121D03*
X019080Y010121D03*
X019066Y010121D03*
X019059Y010121D03*
X019045Y010121D03*
X019031Y010121D03*
X019024Y010121D03*
X019010Y010121D03*
X018996Y010121D03*
X018989Y010121D03*
X018975Y010121D03*
X018961Y010121D03*
X018954Y010121D03*
X018940Y010121D03*
X018926Y010121D03*
X018919Y010121D03*
X018905Y010121D03*
X018891Y010121D03*
X018884Y010121D03*
X018870Y010121D03*
X018856Y010121D03*
X018849Y010121D03*
X018835Y010121D03*
X018821Y010121D03*
X018814Y010121D03*
X018814Y010219D03*
X018821Y010219D03*
X018835Y010219D03*
X018849Y010219D03*
X018856Y010219D03*
X018870Y010219D03*
X018884Y010219D03*
X018891Y010219D03*
X018905Y010219D03*
X018919Y010219D03*
X018926Y010219D03*
X018940Y010219D03*
X018954Y010219D03*
X018961Y010219D03*
X018975Y010219D03*
X018989Y010219D03*
X018996Y010219D03*
X019010Y010219D03*
X019024Y010219D03*
X019031Y010219D03*
X019045Y010219D03*
X019059Y010219D03*
X019066Y010219D03*
X019080Y010219D03*
X019094Y010219D03*
X019101Y010219D03*
X019115Y010219D03*
X019129Y010219D03*
X019136Y010219D03*
X019150Y010219D03*
X019164Y010219D03*
X019171Y010219D03*
X019185Y010219D03*
X019311Y010044D03*
X019311Y009841D03*
X019010Y010030D03*
X018954Y009876D03*
X019066Y009519D03*
X019080Y009519D03*
X019080Y009421D03*
X019066Y009421D03*
X019059Y009421D03*
X019045Y009421D03*
X019031Y009421D03*
X019024Y009421D03*
X019010Y009421D03*
X018996Y009421D03*
X018989Y009421D03*
X018975Y009421D03*
X018961Y009421D03*
X018891Y009421D03*
X018884Y009421D03*
X018870Y009421D03*
X018856Y009421D03*
X018849Y009421D03*
X018835Y009421D03*
X018821Y009421D03*
X018814Y009421D03*
X018695Y009456D03*
X018604Y009351D03*
X018576Y009169D03*
X018674Y009015D03*
X018919Y009190D03*
X018926Y009190D03*
X018940Y009190D03*
X018954Y009190D03*
X018961Y009190D03*
X018975Y009190D03*
X018989Y009190D03*
X018996Y009190D03*
X019010Y009190D03*
X019024Y009190D03*
X019031Y009190D03*
X019045Y009190D03*
X019059Y009190D03*
X019066Y009190D03*
X019080Y009190D03*
X019094Y009421D03*
X019101Y009421D03*
X019115Y009421D03*
X019129Y009421D03*
X019136Y009421D03*
X019150Y009421D03*
X019164Y009421D03*
X019171Y009421D03*
X019185Y009421D03*
X019059Y008959D03*
X019059Y008826D03*
X019066Y008826D03*
X019080Y008826D03*
X019045Y008826D03*
X019031Y008826D03*
X019024Y008826D03*
X019010Y008826D03*
X018996Y008826D03*
X018989Y008826D03*
X018975Y008826D03*
X018961Y008826D03*
X018954Y008826D03*
X018940Y008826D03*
X018926Y008826D03*
X018919Y008826D03*
X018849Y008630D03*
X018870Y008595D03*
X018884Y008595D03*
X018891Y008595D03*
X018905Y008595D03*
X018919Y008595D03*
X018926Y008595D03*
X018940Y008595D03*
X018954Y008595D03*
X018961Y008595D03*
X018975Y008595D03*
X018989Y008595D03*
X018996Y008595D03*
X019010Y008595D03*
X019024Y008595D03*
X019031Y008595D03*
X019045Y008595D03*
X019059Y008595D03*
X019066Y008595D03*
X019080Y008595D03*
X019094Y008595D03*
X019101Y008595D03*
X019115Y008595D03*
X019129Y008595D03*
X019136Y008595D03*
X019150Y008595D03*
X019164Y008595D03*
X019171Y008595D03*
X019185Y008595D03*
X019311Y008504D03*
X019241Y008385D03*
X019024Y008315D03*
X018961Y008490D03*
X018751Y008595D03*
X018744Y008595D03*
X018730Y008595D03*
X018716Y008595D03*
X018709Y008595D03*
X018695Y008595D03*
X018681Y008595D03*
X018674Y008595D03*
X018660Y008595D03*
X018646Y008630D03*
X018625Y008329D03*
X018415Y008399D03*
X018324Y008455D03*
X018331Y008511D03*
X018331Y008784D03*
X018324Y008791D03*
X018184Y008791D03*
X017974Y008889D03*
X017925Y009050D03*
X017995Y009085D03*
X018051Y009106D03*
X018135Y009176D03*
X018100Y009351D03*
X018086Y009365D03*
X018030Y009400D03*
X017960Y009421D03*
X017939Y009421D03*
X017995Y009624D03*
X018030Y009694D03*
X018051Y009729D03*
X018065Y009750D03*
X018079Y009771D03*
X018919Y010450D03*
X018926Y010450D03*
X018940Y010450D03*
X018954Y010450D03*
X018961Y010450D03*
X018975Y010450D03*
X018989Y010450D03*
X018996Y010450D03*
X019010Y010450D03*
X019024Y010450D03*
X019031Y010450D03*
X019045Y010450D03*
X019059Y010450D03*
X019066Y010450D03*
X019080Y010450D03*
X019094Y010450D03*
X019101Y010450D03*
X019115Y010450D03*
X019129Y010450D03*
X019136Y010450D03*
X019150Y010450D03*
X019164Y010450D03*
X019171Y010450D03*
X019185Y010450D03*
X019185Y010814D03*
X019171Y010814D03*
X019164Y010814D03*
X019150Y010814D03*
X019136Y010814D03*
X019129Y010814D03*
X019115Y010814D03*
X019101Y010814D03*
X019094Y010814D03*
X019080Y010814D03*
X019066Y010814D03*
X019059Y010814D03*
X019045Y010814D03*
X019031Y010814D03*
X019024Y010814D03*
X019010Y010814D03*
X018996Y010814D03*
X018989Y010814D03*
X018975Y010814D03*
X018961Y010814D03*
X018954Y010814D03*
X018940Y010814D03*
X018926Y010814D03*
X018919Y010814D03*
X018919Y011395D03*
X018926Y011395D03*
X018940Y011395D03*
X018954Y011395D03*
X018961Y011395D03*
X018975Y011395D03*
X018989Y011395D03*
X018996Y011395D03*
X019010Y011395D03*
X019024Y011395D03*
X019031Y011395D03*
X019045Y011395D03*
X019059Y011395D03*
X019066Y011395D03*
X019080Y011395D03*
X019094Y011395D03*
X019101Y011395D03*
X019115Y011395D03*
X019129Y011395D03*
X019136Y011395D03*
X019150Y011395D03*
X019164Y011395D03*
X019171Y011395D03*
X019185Y011395D03*
X018905Y011395D03*
X018891Y011395D03*
X018884Y011395D03*
X018870Y011395D03*
X018856Y011395D03*
X018849Y011395D03*
X018835Y011395D03*
X018821Y011395D03*
X018814Y011395D03*
X018800Y011395D03*
X018786Y011395D03*
X018779Y011395D03*
X018765Y011395D03*
X018751Y011395D03*
X018744Y011395D03*
X018730Y011395D03*
X018716Y011395D03*
X018709Y011395D03*
X018695Y011395D03*
X018681Y011395D03*
X018674Y011395D03*
X019101Y011955D03*
X019115Y011955D03*
X019129Y011955D03*
X019136Y011955D03*
X019150Y011955D03*
X019164Y011955D03*
X019171Y011955D03*
X019185Y011955D03*
X019080Y012186D03*
X019066Y012186D03*
X019066Y012781D03*
X019059Y012781D03*
X019045Y012781D03*
X019031Y012781D03*
X019024Y012781D03*
X019010Y012781D03*
X018996Y012781D03*
X018989Y012781D03*
X018975Y012781D03*
X018961Y012781D03*
X018954Y012781D03*
X018940Y012781D03*
X018926Y012781D03*
X018919Y012781D03*
X018905Y012781D03*
X018891Y012781D03*
X018884Y012781D03*
X018870Y012781D03*
X018856Y012781D03*
X018849Y012781D03*
X018835Y012781D03*
X018821Y012781D03*
X018814Y012781D03*
X018800Y012781D03*
X018786Y012781D03*
X018779Y012781D03*
X018765Y012781D03*
X018751Y012781D03*
X018744Y012781D03*
X018730Y012781D03*
X018716Y012781D03*
X018709Y012781D03*
X018695Y012781D03*
X018681Y012781D03*
X018674Y012781D03*
X018660Y012781D03*
X018674Y012879D03*
X018681Y012879D03*
X018695Y012879D03*
X018709Y012879D03*
X018716Y012879D03*
X018730Y012879D03*
X018744Y012879D03*
X018751Y012879D03*
X018765Y012879D03*
X018779Y012879D03*
X018786Y012879D03*
X018919Y012879D03*
X018926Y012879D03*
X018940Y012879D03*
X018954Y012879D03*
X018961Y012879D03*
X018975Y012879D03*
X018989Y012879D03*
X018996Y012879D03*
X019010Y012879D03*
X019024Y012879D03*
X019031Y012879D03*
X019045Y012879D03*
X019059Y012879D03*
X019066Y012879D03*
X019080Y012879D03*
X019080Y012781D03*
X019094Y012781D03*
X019101Y012781D03*
X019115Y012781D03*
X019129Y012781D03*
X019136Y012781D03*
X019150Y012781D03*
X019164Y012781D03*
X019171Y012781D03*
X019185Y012781D03*
X019185Y013481D03*
X019171Y013481D03*
X019164Y013481D03*
X019150Y013481D03*
X019136Y013481D03*
X019129Y013481D03*
X019115Y013481D03*
X019101Y013481D03*
X019045Y013481D03*
X019031Y013481D03*
X019024Y013481D03*
X019010Y013481D03*
X018996Y013481D03*
X018989Y013481D03*
X018975Y013481D03*
X018961Y013481D03*
X018954Y013481D03*
X018940Y013481D03*
X018926Y013481D03*
X018919Y013481D03*
X018905Y013481D03*
X018891Y013481D03*
X018884Y013481D03*
X018870Y013481D03*
X018856Y013481D03*
X018849Y013481D03*
X018835Y013481D03*
X018821Y013481D03*
X018814Y013481D03*
X018905Y013586D03*
X018919Y013579D03*
X018926Y013579D03*
X018891Y014041D03*
X018884Y014041D03*
X018870Y014041D03*
X018856Y014041D03*
X018849Y014041D03*
X018835Y014041D03*
X018821Y014041D03*
X018814Y014041D03*
X018961Y014041D03*
X018975Y014041D03*
X018989Y014041D03*
X018996Y014041D03*
X019010Y014041D03*
X019024Y014041D03*
X019031Y014041D03*
X019045Y014041D03*
X019059Y014041D03*
X019066Y014041D03*
X019080Y014041D03*
X019094Y014041D03*
X019101Y014041D03*
X019115Y014041D03*
X019129Y014041D03*
X019136Y014041D03*
X019150Y014041D03*
X019164Y014041D03*
X019171Y014041D03*
X019185Y014041D03*
X019220Y008826D03*
X019234Y008826D03*
X019241Y008826D03*
X019255Y008826D03*
X019269Y008826D03*
X019276Y008826D03*
X019290Y008826D03*
X019304Y008826D03*
X019311Y008826D03*
X019325Y008826D03*
X019185Y008035D03*
X019171Y008035D03*
X019164Y008035D03*
X019150Y008035D03*
X019136Y008035D03*
X019129Y008035D03*
X019115Y008035D03*
X019101Y008035D03*
X018954Y008035D03*
X018940Y008035D03*
X018926Y008035D03*
X018919Y008035D03*
X018905Y008035D03*
X018891Y008035D03*
X018884Y008035D03*
X018870Y008035D03*
X018856Y008035D03*
X018849Y008035D03*
X018835Y008035D03*
X018821Y008035D03*
X018814Y008035D03*
X018800Y008035D03*
X018786Y008035D03*
X018779Y008035D03*
X018765Y008035D03*
X018751Y008035D03*
X018744Y008035D03*
X018730Y008035D03*
X018716Y008035D03*
X018709Y008035D03*
X018695Y008035D03*
X018681Y008035D03*
X018674Y008035D03*
X018660Y008035D03*
D35*
X018779Y008084D03*
X018786Y008084D03*
X018800Y008084D03*
X018814Y008084D03*
X018821Y008084D03*
X018835Y008084D03*
X018849Y008084D03*
X018975Y008546D03*
X018989Y008546D03*
X018996Y008546D03*
X019010Y008546D03*
X019024Y008546D03*
X019031Y008546D03*
X019045Y008546D03*
X019059Y008546D03*
X019066Y008546D03*
X019080Y008546D03*
X019080Y008777D03*
X019066Y008777D03*
X019059Y008777D03*
X019045Y008777D03*
X019031Y008777D03*
X019024Y008777D03*
X019010Y008777D03*
X018996Y008777D03*
X018989Y008777D03*
X018975Y008777D03*
X018961Y008777D03*
X018954Y008777D03*
X018940Y008777D03*
X018926Y008777D03*
X018919Y008777D03*
X019220Y008777D03*
X019234Y008777D03*
X019241Y008777D03*
X019255Y008777D03*
X019269Y008777D03*
X019276Y008777D03*
X019290Y008777D03*
X019304Y008777D03*
X019311Y008777D03*
X019325Y008777D03*
X019080Y009239D03*
X019066Y009239D03*
X019059Y009239D03*
X019045Y009239D03*
X019031Y009239D03*
X019024Y009239D03*
X019010Y009239D03*
X018996Y009239D03*
X018989Y009239D03*
X018975Y009239D03*
X018961Y009239D03*
X018954Y009239D03*
X018940Y009239D03*
X018926Y009239D03*
X018919Y009239D03*
X018919Y009932D03*
X018926Y009932D03*
X018940Y009932D03*
X019059Y009932D03*
X019066Y009932D03*
X019080Y009932D03*
X019080Y010401D03*
X019066Y010401D03*
X019059Y010401D03*
X019045Y010401D03*
X019031Y010401D03*
X019024Y010401D03*
X019010Y010401D03*
X018996Y010401D03*
X018989Y010401D03*
X018975Y010401D03*
X018961Y010401D03*
X018954Y010401D03*
X018940Y010401D03*
X018926Y010401D03*
X018919Y010401D03*
X019094Y010401D03*
X019101Y010401D03*
X019115Y010401D03*
X019129Y010401D03*
X019136Y010401D03*
X019150Y010401D03*
X019164Y010401D03*
X019171Y010401D03*
X019185Y010401D03*
X019185Y010863D03*
X019171Y010863D03*
X019164Y010863D03*
X019150Y010863D03*
X019136Y010863D03*
X019129Y010863D03*
X019115Y010863D03*
X019101Y010863D03*
X019094Y010863D03*
X019080Y010863D03*
X019066Y010863D03*
X019059Y010863D03*
X019045Y010863D03*
X019031Y010863D03*
X019024Y010863D03*
X019010Y010863D03*
X018996Y010863D03*
X018989Y010863D03*
X018975Y010863D03*
X018961Y010863D03*
X018954Y010863D03*
X018940Y010863D03*
X018926Y010863D03*
X018919Y010863D03*
X019066Y012137D03*
X019080Y012137D03*
X019080Y013992D03*
X019066Y013992D03*
X019059Y013992D03*
X018345Y008483D03*
D36*
X019283Y008494D03*
X019318Y009956D03*
X018408Y009978D03*
D37*
X019311Y008462D03*
D38*
X019311Y009943D03*
D39*
X018905Y010404D03*
X018905Y010859D03*
X019059Y012140D03*
X019059Y013295D03*
X019066Y013295D03*
X019080Y013295D03*
X019045Y013295D03*
X019031Y013295D03*
X019024Y013295D03*
X019010Y013295D03*
X018996Y013295D03*
X018989Y013295D03*
X018975Y013295D03*
X018961Y013295D03*
X018954Y013295D03*
X018940Y013295D03*
X018926Y013295D03*
X018919Y013295D03*
X018905Y009235D03*
X019094Y009235D03*
X019199Y008780D03*
X019206Y008780D03*
X018905Y008780D03*
X019304Y008465D03*
D40*
X019269Y008546D03*
X019304Y009904D03*
D41*
X018387Y009988D03*
X019038Y008924D03*
X019297Y008476D03*
D42*
X019248Y008539D03*
X019297Y009904D03*
D43*
X018800Y008623D03*
X019290Y008483D03*
D44*
X019234Y008535D03*
X019290Y009900D03*
D45*
X019283Y009900D03*
D46*
X019276Y008500D03*
D47*
X019276Y008658D03*
X019220Y008658D03*
D48*
X019276Y009897D03*
D49*
X019269Y009897D03*
D50*
X019262Y008543D03*
D51*
X018723Y008809D03*
X019052Y009705D03*
X019262Y009894D03*
X019052Y012371D03*
D52*
X019255Y008543D03*
D53*
X018695Y008815D03*
X018051Y008920D03*
X018065Y009564D03*
X019255Y009893D03*
D54*
X019248Y009890D03*
D55*
X019241Y008539D03*
D56*
X019241Y009890D03*
D57*
X019234Y009886D03*
X018079Y008928D03*
D58*
X018793Y008651D03*
X019227Y008651D03*
D59*
X019227Y010048D03*
D60*
X019220Y010051D03*
X017939Y009036D03*
X018779Y008665D03*
D61*
X018842Y008658D03*
X019213Y008658D03*
D62*
X019213Y010051D03*
X019192Y010051D03*
X019178Y010051D03*
X019157Y010051D03*
X019143Y010051D03*
X019122Y010051D03*
X019108Y010051D03*
X019087Y010051D03*
X019073Y010051D03*
X019052Y010051D03*
X019038Y010051D03*
D63*
X019031Y010051D03*
X019045Y010051D03*
X019059Y010051D03*
X019066Y010051D03*
X019080Y010051D03*
X019094Y010051D03*
X019101Y010051D03*
X019115Y010051D03*
X019129Y010051D03*
X019136Y010051D03*
X019150Y010051D03*
X019164Y010051D03*
X019171Y010051D03*
X019185Y010051D03*
X019199Y010051D03*
X019206Y010051D03*
X017946Y009456D03*
X018331Y008476D03*
D64*
X018863Y008661D03*
X018877Y008661D03*
X018898Y008661D03*
X018912Y008661D03*
X018933Y008661D03*
X018947Y008661D03*
X018968Y008661D03*
X018982Y008661D03*
X019003Y008661D03*
X019017Y008661D03*
X019038Y008661D03*
X019052Y008661D03*
X019073Y008661D03*
X019087Y008661D03*
X019108Y008661D03*
X019122Y008661D03*
X019143Y008661D03*
X019157Y008661D03*
X019178Y008661D03*
X019192Y008661D03*
D65*
X019192Y008315D03*
X019178Y008315D03*
X019157Y008315D03*
X019143Y008315D03*
X019122Y008315D03*
X019108Y008315D03*
X018947Y008315D03*
X018933Y008315D03*
X018912Y008315D03*
X018898Y008315D03*
X018877Y008315D03*
X018758Y008315D03*
X018737Y008315D03*
X018723Y008315D03*
X018702Y008315D03*
X018688Y008315D03*
X018667Y008315D03*
X018828Y009701D03*
X018842Y009701D03*
X018863Y009701D03*
X018877Y009701D03*
X018898Y009701D03*
X018968Y009701D03*
X018982Y009701D03*
X019003Y009701D03*
X019017Y009701D03*
X019038Y009701D03*
X019108Y009701D03*
X019122Y009701D03*
X019143Y009701D03*
X019157Y009701D03*
X019178Y009701D03*
X019192Y009701D03*
X019192Y011675D03*
X019178Y011675D03*
X019157Y011675D03*
X019143Y011675D03*
X019122Y011675D03*
X019108Y011675D03*
X019108Y013761D03*
X019122Y013761D03*
X019143Y013761D03*
X019157Y013761D03*
X019178Y013761D03*
X019192Y013761D03*
X019038Y013761D03*
X019017Y013761D03*
X019003Y013761D03*
X018982Y013761D03*
X018968Y013761D03*
X018898Y013761D03*
X018877Y013761D03*
X018863Y013761D03*
X018842Y013761D03*
X018828Y013761D03*
D66*
X018828Y010632D03*
X018842Y010632D03*
X018863Y010632D03*
X018877Y010632D03*
X018898Y010632D03*
X018898Y009008D03*
X018877Y009008D03*
X018863Y009008D03*
X018842Y009008D03*
X018828Y009008D03*
X019108Y009008D03*
X019122Y009008D03*
X019143Y009008D03*
X019157Y009008D03*
X019178Y009008D03*
X019192Y009008D03*
D67*
X019073Y009470D03*
X019073Y010170D03*
X019087Y010170D03*
X019108Y010170D03*
X019122Y010170D03*
X019143Y010170D03*
X019157Y010170D03*
X019178Y010170D03*
X019192Y010170D03*
X019052Y010170D03*
X019038Y010170D03*
X019017Y010170D03*
X019003Y010170D03*
X018982Y010170D03*
X018968Y010170D03*
X018947Y010170D03*
X018933Y010170D03*
X018912Y010170D03*
X018898Y010170D03*
X018877Y010170D03*
X018863Y010170D03*
X018842Y010170D03*
X018828Y010170D03*
X018793Y012830D03*
X018772Y012830D03*
X018758Y012830D03*
X018737Y012830D03*
X018723Y012830D03*
X018702Y012830D03*
X018688Y012830D03*
X018667Y012830D03*
X018933Y012830D03*
X018947Y012830D03*
X018968Y012830D03*
X018982Y012830D03*
X019003Y012830D03*
X019017Y012830D03*
X019038Y012830D03*
X019052Y012830D03*
X019073Y012830D03*
X018933Y013530D03*
D68*
X018898Y013065D03*
X018877Y013065D03*
X018863Y013065D03*
X018842Y013065D03*
X018828Y013065D03*
X019108Y013065D03*
X019122Y013065D03*
X019143Y013065D03*
X019157Y013065D03*
X019178Y013065D03*
X019192Y013065D03*
X019192Y012371D03*
X019178Y012371D03*
X019157Y012371D03*
X019143Y012371D03*
X019122Y012371D03*
X019108Y012371D03*
X019038Y012371D03*
X019017Y012371D03*
X019003Y012371D03*
X018982Y012371D03*
X018968Y012371D03*
X018898Y012371D03*
X018877Y012371D03*
X018863Y012371D03*
X018842Y012371D03*
X018828Y012371D03*
D69*
X019101Y011675D03*
X019115Y011675D03*
X019129Y011675D03*
X019136Y011675D03*
X019150Y011675D03*
X019164Y011675D03*
X019171Y011675D03*
X019185Y011675D03*
X019185Y009701D03*
X019171Y009701D03*
X019164Y009701D03*
X019150Y009701D03*
X019136Y009701D03*
X019129Y009701D03*
X019115Y009701D03*
X019101Y009701D03*
X019045Y009701D03*
X019031Y009701D03*
X019024Y009701D03*
X019010Y009701D03*
X018996Y009701D03*
X018989Y009701D03*
X018975Y009701D03*
X018961Y009701D03*
X018891Y009701D03*
X018884Y009701D03*
X018870Y009701D03*
X018856Y009701D03*
X018849Y009701D03*
X018835Y009701D03*
X018821Y009701D03*
X018814Y009701D03*
X018870Y008315D03*
X018884Y008315D03*
X018891Y008315D03*
X018905Y008315D03*
X018919Y008315D03*
X018926Y008315D03*
X018940Y008315D03*
X018954Y008315D03*
X019101Y008315D03*
X019115Y008315D03*
X019129Y008315D03*
X019136Y008315D03*
X019150Y008315D03*
X019164Y008315D03*
X019171Y008315D03*
X019185Y008315D03*
X018751Y008315D03*
X018744Y008315D03*
X018730Y008315D03*
X018716Y008315D03*
X018709Y008315D03*
X018695Y008315D03*
X018681Y008315D03*
X018674Y008315D03*
X018814Y013761D03*
X018821Y013761D03*
X018835Y013761D03*
X018849Y013761D03*
X018856Y013761D03*
X018870Y013761D03*
X018884Y013761D03*
X018891Y013761D03*
X018961Y013761D03*
X018975Y013761D03*
X018989Y013761D03*
X018996Y013761D03*
X019010Y013761D03*
X019024Y013761D03*
X019031Y013761D03*
X019045Y013761D03*
X019101Y013761D03*
X019115Y013761D03*
X019129Y013761D03*
X019136Y013761D03*
X019150Y013761D03*
X019164Y013761D03*
X019171Y013761D03*
X019185Y013761D03*
D70*
X018891Y010632D03*
X018884Y010632D03*
X018870Y010632D03*
X018856Y010632D03*
X018849Y010632D03*
X018835Y010632D03*
X018821Y010632D03*
X018814Y010632D03*
X018814Y009008D03*
X018821Y009008D03*
X018835Y009008D03*
X018849Y009008D03*
X018856Y009008D03*
X018870Y009008D03*
X018884Y009008D03*
X018891Y009008D03*
X019101Y009008D03*
X019115Y009008D03*
X019129Y009008D03*
X019136Y009008D03*
X019150Y009008D03*
X019164Y009008D03*
X019171Y009008D03*
X019185Y009008D03*
D71*
X019080Y009470D03*
X019066Y009470D03*
X019066Y010170D03*
X019059Y010170D03*
X019045Y010170D03*
X019031Y010170D03*
X019024Y010170D03*
X019010Y010170D03*
X018996Y010170D03*
X018989Y010170D03*
X018975Y010170D03*
X018961Y010170D03*
X018954Y010170D03*
X018940Y010170D03*
X018926Y010170D03*
X018919Y010170D03*
X018905Y010170D03*
X018891Y010170D03*
X018884Y010170D03*
X018870Y010170D03*
X018856Y010170D03*
X018849Y010170D03*
X018835Y010170D03*
X018821Y010170D03*
X018814Y010170D03*
X019080Y010170D03*
X019094Y010170D03*
X019101Y010170D03*
X019115Y010170D03*
X019129Y010170D03*
X019136Y010170D03*
X019150Y010170D03*
X019164Y010170D03*
X019171Y010170D03*
X019185Y010170D03*
X019080Y012830D03*
X019066Y012830D03*
X019059Y012830D03*
X019045Y012830D03*
X019031Y012830D03*
X019024Y012830D03*
X019010Y012830D03*
X018996Y012830D03*
X018989Y012830D03*
X018975Y012830D03*
X018961Y012830D03*
X018954Y012830D03*
X018940Y012830D03*
X018926Y012830D03*
X018919Y012830D03*
X018786Y012830D03*
X018779Y012830D03*
X018765Y012830D03*
X018751Y012830D03*
X018744Y012830D03*
X018730Y012830D03*
X018716Y012830D03*
X018709Y012830D03*
X018695Y012830D03*
X018681Y012830D03*
X018674Y012830D03*
X018919Y013530D03*
X018926Y013530D03*
D72*
X018891Y013065D03*
X018884Y013065D03*
X018870Y013065D03*
X018856Y013065D03*
X018849Y013065D03*
X018835Y013065D03*
X018821Y013065D03*
X018814Y013065D03*
X019101Y013065D03*
X019115Y013065D03*
X019129Y013065D03*
X019136Y013065D03*
X019150Y013065D03*
X019164Y013065D03*
X019171Y013065D03*
X019185Y013065D03*
X019185Y012371D03*
X019171Y012371D03*
X019164Y012371D03*
X019150Y012371D03*
X019136Y012371D03*
X019129Y012371D03*
X019115Y012371D03*
X019101Y012371D03*
X019045Y012371D03*
X019031Y012371D03*
X019024Y012371D03*
X019010Y012371D03*
X018996Y012371D03*
X018989Y012371D03*
X018975Y012371D03*
X018961Y012371D03*
X018891Y012371D03*
X018884Y012371D03*
X018870Y012371D03*
X018856Y012371D03*
X018849Y012371D03*
X018835Y012371D03*
X018821Y012371D03*
X018814Y012371D03*
X018716Y009746D03*
D73*
X018905Y009929D03*
X018954Y009929D03*
X019094Y009929D03*
X019059Y009474D03*
X019094Y008543D03*
X018961Y008543D03*
X018856Y008088D03*
X018765Y008088D03*
X018765Y011448D03*
X018751Y011448D03*
X018744Y011448D03*
X018730Y011448D03*
X018716Y011448D03*
X018709Y011448D03*
X018695Y011448D03*
X018681Y011448D03*
X018674Y011448D03*
X018779Y011448D03*
X018786Y011448D03*
X018800Y011448D03*
X018814Y011448D03*
X018821Y011448D03*
X018835Y011448D03*
X018849Y011448D03*
X018856Y011448D03*
X018870Y011448D03*
X018884Y011448D03*
X018891Y011448D03*
X018905Y011448D03*
X018919Y011448D03*
X018926Y011448D03*
X018940Y011448D03*
X018954Y011448D03*
X018961Y011448D03*
X018975Y011448D03*
X018989Y011448D03*
X018996Y011448D03*
X019010Y011448D03*
X019024Y011448D03*
X019031Y011448D03*
X019045Y011448D03*
X019059Y011448D03*
X019066Y011448D03*
X019080Y011448D03*
X019094Y011448D03*
X019080Y012603D03*
X019066Y012603D03*
X019059Y012603D03*
X018940Y012603D03*
X018926Y012603D03*
X018919Y012603D03*
X018905Y013534D03*
X018940Y013534D03*
X019094Y013989D03*
D74*
X019087Y013295D03*
X019073Y013295D03*
X019052Y013295D03*
X019038Y013295D03*
X019017Y013295D03*
X019003Y013295D03*
X018982Y013295D03*
X018968Y013295D03*
X018947Y013295D03*
X018933Y013295D03*
X018912Y013295D03*
X019087Y012140D03*
X018912Y010404D03*
X018912Y008780D03*
X019087Y008780D03*
D75*
X018968Y008543D03*
X019052Y009474D03*
X019087Y009474D03*
X019052Y009929D03*
X018947Y009929D03*
X018947Y011448D03*
X018933Y011448D03*
X018912Y011448D03*
X018898Y011448D03*
X018877Y011448D03*
X018863Y011448D03*
X018842Y011448D03*
X018828Y011448D03*
X018807Y011448D03*
X018793Y011448D03*
X018772Y011448D03*
X018758Y011448D03*
X018737Y011448D03*
X018723Y011448D03*
X018702Y011448D03*
X018688Y011448D03*
X018667Y011448D03*
X018968Y011448D03*
X018982Y011448D03*
X019003Y011448D03*
X019017Y011448D03*
X019038Y011448D03*
X019052Y011448D03*
X019073Y011448D03*
X019073Y012603D03*
X019087Y012603D03*
X018933Y012603D03*
X018912Y012603D03*
X018912Y012834D03*
X019087Y012834D03*
X018947Y013534D03*
X018912Y013534D03*
X019052Y013989D03*
D76*
X019010Y008938D03*
X019059Y008392D03*
X018366Y008497D03*
D77*
X019059Y008906D03*
D78*
X019017Y008935D03*
X019038Y008389D03*
X019052Y008389D03*
D79*
X018863Y008091D03*
X018352Y008490D03*
X019052Y008917D03*
X018807Y010170D03*
X019052Y012144D03*
X019052Y012599D03*
X018947Y012599D03*
X018807Y012837D03*
D80*
X019052Y013709D03*
D81*
X019045Y008920D03*
X018940Y008920D03*
D82*
X018975Y008928D03*
X019031Y008928D03*
D83*
X019024Y008931D03*
X018989Y008931D03*
D84*
X018324Y008479D03*
X019024Y010040D03*
D85*
X019017Y008385D03*
D86*
X019017Y010034D03*
D87*
X019010Y008385D03*
D88*
X019003Y008388D03*
D89*
X019003Y008938D03*
D90*
X018982Y008931D03*
X017953Y009015D03*
X017967Y009484D03*
D91*
X018968Y008928D03*
D92*
X018954Y009645D03*
X018961Y008259D03*
X018954Y012312D03*
X018954Y013817D03*
X018905Y013817D03*
D93*
X018954Y008924D03*
X018961Y008924D03*
D94*
X018947Y008920D03*
D95*
X018905Y009011D03*
X018730Y008809D03*
X018716Y008809D03*
X018905Y010635D03*
X018905Y013065D03*
D96*
X018905Y009649D03*
X018625Y008836D03*
D97*
X018905Y012315D03*
D98*
X018807Y013117D03*
X018177Y009015D03*
X018863Y008371D03*
D99*
X018835Y008655D03*
X018786Y008661D03*
X018366Y010005D03*
D100*
X018814Y008626D03*
X018821Y008626D03*
X018359Y008493D03*
D101*
X018807Y008623D03*
D102*
X018807Y009008D03*
X018807Y010632D03*
X018807Y012368D03*
D103*
X018807Y013761D03*
X018807Y009701D03*
D104*
X018373Y009998D03*
X018772Y008675D03*
D105*
X018765Y008801D03*
X018751Y008801D03*
D106*
X018765Y009725D03*
D107*
X018758Y008801D03*
D108*
X018758Y009725D03*
D109*
X018751Y009729D03*
D110*
X018744Y008805D03*
D111*
X018744Y009736D03*
D112*
X018037Y008931D03*
X018737Y008805D03*
D113*
X018737Y009736D03*
D114*
X018730Y009739D03*
D115*
X018723Y009746D03*
D116*
X018709Y008812D03*
D117*
X018709Y009754D03*
D118*
X018702Y008815D03*
D119*
X018702Y009771D03*
D120*
X018695Y009789D03*
D121*
X018688Y008819D03*
D122*
X018688Y009803D03*
D123*
X018681Y008823D03*
X018674Y008823D03*
D124*
X018681Y009799D03*
D125*
X018674Y009795D03*
D126*
X018072Y009568D03*
X018072Y008924D03*
X018058Y008917D03*
X018667Y008826D03*
D127*
X018667Y009795D03*
D128*
X018114Y008955D03*
X018086Y008934D03*
X018660Y008829D03*
D129*
X018660Y009792D03*
D130*
X018093Y009561D03*
X018128Y008966D03*
X018653Y008833D03*
D131*
X018653Y009789D03*
D132*
X018135Y008969D03*
X018646Y008836D03*
D133*
X018646Y009778D03*
X018639Y009778D03*
D134*
X018156Y009509D03*
X018149Y009515D03*
X018135Y009530D03*
X018149Y008984D03*
X018639Y008836D03*
D135*
X018632Y008836D03*
D136*
X018632Y009771D03*
D137*
X018625Y009764D03*
D138*
X018618Y008700D03*
D139*
X018618Y009760D03*
D140*
X018611Y008707D03*
D141*
X018611Y009754D03*
D142*
X018604Y008714D03*
D143*
X018604Y009746D03*
D144*
X018597Y008721D03*
D145*
X018597Y009739D03*
D146*
X018590Y008731D03*
D147*
X018590Y009729D03*
D148*
X018583Y008742D03*
D149*
X018583Y009718D03*
D150*
X018576Y008753D03*
D151*
X018576Y009708D03*
D152*
X018569Y009232D03*
X018555Y009232D03*
D153*
X018562Y009232D03*
D154*
X018548Y009232D03*
D155*
X018541Y009232D03*
D156*
X018534Y009228D03*
D157*
X018527Y009232D03*
D158*
X018520Y009232D03*
D159*
X018513Y009232D03*
D160*
X018506Y009232D03*
X018499Y009232D03*
D161*
X018492Y009232D03*
D162*
X018485Y009232D03*
D163*
X018478Y009235D03*
D164*
X018471Y009232D03*
D165*
X018464Y009235D03*
D166*
X018457Y009232D03*
X018443Y009232D03*
D167*
X018450Y009232D03*
D168*
X018436Y009232D03*
D169*
X018429Y009235D03*
D170*
X018422Y009232D03*
D171*
X018415Y009232D03*
D172*
X018408Y009081D03*
D173*
X018408Y009876D03*
D174*
X018401Y009071D03*
D175*
X018401Y009978D03*
D176*
X018394Y009068D03*
D177*
X017988Y008969D03*
X018387Y008528D03*
D178*
X018387Y009197D03*
D179*
X017981Y008976D03*
X017995Y009515D03*
X018380Y008521D03*
D180*
X018380Y009208D03*
D181*
X017967Y008994D03*
X018373Y008511D03*
D182*
X018373Y009225D03*
D183*
X018366Y009232D03*
D184*
X018359Y009239D03*
D185*
X018352Y009235D03*
D186*
X018345Y009239D03*
X018191Y009246D03*
D187*
X017953Y009463D03*
X018338Y008483D03*
D188*
X018338Y009239D03*
D189*
X018331Y009239D03*
X018310Y009239D03*
X018254Y009246D03*
X018240Y009246D03*
X018226Y009246D03*
X018219Y009246D03*
D190*
X018261Y009243D03*
X018275Y009243D03*
X018289Y009243D03*
X018296Y009243D03*
X018324Y009243D03*
D191*
X018317Y009243D03*
X018303Y009243D03*
X018282Y009243D03*
X018268Y009243D03*
D192*
X018247Y009246D03*
X018233Y009246D03*
X018212Y009246D03*
D193*
X018205Y009250D03*
X018184Y009250D03*
D194*
X018198Y009250D03*
D195*
X018177Y009488D03*
D196*
X018170Y009004D03*
D197*
X018170Y009498D03*
D198*
X018163Y008998D03*
D199*
X018163Y009505D03*
D200*
X018156Y008994D03*
D201*
X018142Y008980D03*
D202*
X018142Y009523D03*
D203*
X018128Y009533D03*
D204*
X018086Y009568D03*
X018079Y009568D03*
X018121Y008959D03*
X018065Y008917D03*
D205*
X018121Y009540D03*
D206*
X018114Y009547D03*
D207*
X018107Y008949D03*
X018093Y008941D03*
D208*
X018107Y009550D03*
D209*
X018100Y008945D03*
D210*
X018100Y009558D03*
D211*
X018058Y009561D03*
D212*
X018051Y009558D03*
D213*
X018044Y008924D03*
D214*
X018044Y009558D03*
D215*
X018037Y009550D03*
D216*
X018030Y008934D03*
D217*
X018030Y009547D03*
D218*
X018023Y008938D03*
D219*
X018023Y009544D03*
D220*
X018016Y008945D03*
D221*
X018016Y009536D03*
D222*
X018009Y008949D03*
D223*
X018009Y009529D03*
D224*
X018002Y008955D03*
D225*
X018002Y009523D03*
D226*
X017995Y008959D03*
D227*
X017988Y009512D03*
D228*
X017981Y009505D03*
D229*
X017974Y008987D03*
D230*
X017974Y009494D03*
D231*
X017960Y009001D03*
D232*
X017946Y009019D03*
D233*
X017946Y009494D03*
D234*
X017932Y009054D03*
M02*
