%
M48
M72
T01C0.0236
T02C0.0354
T03C0.0360
T04C0.0394
T05C0.0400
T06C0.0492
T07C0.0900
%
T01
X1000Y1180
X1500Y680
X2250Y680
X1000Y1930
X750Y2680
X750Y3430
X750Y4180
X1000Y4930
X1000Y5680
X1000Y6430
X1000Y7180
X1000Y7930
X1000Y8680
X1000Y9430
X1000Y10180
X1000Y10930
X1000Y11680
X1000Y12430
X1000Y13180
X1000Y13930
X1000Y14680
X1000Y15430
X1000Y16180
X1000Y16930
X1000Y17680
X1000Y18430
X3750Y18930
X4500Y18930
X5250Y18930
X7250Y17930
X6250Y14180
X5500Y13430
X4750Y12680
X4000Y11930
X3000Y11430
X2750Y10430
X2750Y9430
X4500Y5180
X5500Y5180
X6500Y5180
X7500Y5930
X8250Y6680
X11250Y7180
X11250Y8180
X11250Y9180
X11250Y10180
X11250Y11180
X11250Y12180
X13500Y11930
X13500Y12930
X14000Y10930
X15000Y9930
X16000Y8930
X17000Y7680
X17000Y6680
X17500Y5430
X17500Y4180
X17500Y2930
X17500Y1930
X16750Y1180
X15750Y2680
X14500Y930
X13750Y930
X13000Y930
X12250Y930
X11500Y930
X10750Y930
X10000Y930
X9250Y930
X8500Y930
X7750Y930
X10630Y2420
X12000Y2430
X11750Y3930
X13920Y3370
X13880Y2740
X11750Y6180
X14650Y7570
X18300Y7870
X8450Y12220
X14250Y19180
X17000Y19180
X17750Y19180
X18500Y19180
X19250Y18930
X19250Y18180
T02
X17250Y17460
X17250Y14900
T03
X14000Y15430
X14000Y16430
X13000Y16430
X13000Y15430
X12000Y15430
X11000Y15430
X11000Y16430
X12000Y16430
X10000Y16430
X10000Y15430
X9000Y15430
X9000Y16430
X8000Y16430
X8000Y15430
T04
X8106Y18824
X7106Y18824
X6106Y18824
X9106Y18824
T05
X5500Y6420
X4500Y6420
X3500Y6420
X3500Y720
X5500Y720
T06
X19280Y2001
X19280Y5150
T07
X7100Y3470
X1900Y3470
M30
