G75*
%MOIN*%
%OFA0B0*%
%FSLAX24Y24*%
%IPPOS*%
%LPD*%
%AMOC8*
5,1,8,0,0,1.08239X$1,22.5*
%
%ADD10C,0.0100*%
%ADD11R,0.0787X0.0551*%
%ADD12R,0.0551X0.0504*%
%ADD13R,0.0551X0.0768*%
%ADD14R,0.0551X0.0276*%
%ADD15C,0.0000*%
%ADD16C,0.0760*%
%ADD17R,0.0390X0.0120*%
%ADD18R,0.0472X0.0217*%
%ADD19R,0.0512X0.0591*%
%ADD20C,0.0600*%
%ADD21C,0.1300*%
%ADD22C,0.0700*%
%ADD23R,0.0315X0.0354*%
%ADD24C,0.0560*%
%ADD25OC8,0.0560*%
%ADD26C,0.0160*%
%ADD27C,0.0240*%
%ADD28C,0.0356*%
D10*
X000250Y000180D02*
X000250Y019865D01*
X019935Y019865D01*
X019935Y000180D01*
X000250Y000180D01*
X009228Y003112D02*
X009940Y002400D01*
X010610Y002400D01*
X010630Y002420D01*
X010638Y002412D01*
X011101Y002412D01*
X012000Y002430D02*
X012250Y002430D01*
X012500Y002180D01*
X014982Y002180D01*
X015000Y002198D01*
X015000Y002631D02*
X014271Y002631D01*
X014070Y002430D01*
X013416Y002430D01*
X013190Y002430D01*
X012950Y002720D01*
X012950Y003170D01*
X013389Y003170D01*
X013399Y003180D01*
X013445Y002970D02*
X013399Y002924D01*
X013445Y002970D02*
X013630Y002970D01*
X013724Y003064D01*
X015000Y003064D01*
X015750Y003430D02*
X015750Y002680D01*
X016600Y002080D02*
X015840Y001320D01*
X015012Y001320D01*
X015000Y001332D01*
X015343Y000796D02*
X019098Y000796D01*
X019122Y000820D01*
X016600Y002080D02*
X016600Y004850D01*
X015980Y005470D01*
X015980Y007230D01*
X012000Y011210D01*
X012000Y015430D01*
X013626Y005680D02*
X013376Y005430D01*
X010124Y005430D01*
X010124Y005056D01*
X010750Y004430D01*
X010750Y003950D01*
X010490Y003690D01*
X010750Y003430D01*
X011095Y003430D01*
X011101Y003436D01*
X012684Y003436D01*
X013196Y003948D01*
X013399Y003948D01*
X013399Y003692D02*
X013411Y003680D01*
X014000Y003680D01*
X014250Y003930D01*
X015000Y003930D01*
X015000Y004363D02*
X012813Y004363D01*
X012730Y004280D01*
X011434Y004280D01*
X011101Y003948D01*
X011101Y003692D02*
X011113Y003680D01*
X011500Y003680D01*
X011750Y003930D01*
X012684Y003436D02*
X012950Y003170D01*
X013399Y003436D02*
X013405Y003430D01*
X013820Y003430D01*
X013920Y003370D01*
X013880Y002740D02*
X013738Y002668D01*
X013399Y002668D01*
X013416Y002430D02*
X013399Y002412D01*
X010490Y003690D02*
X010252Y003690D01*
X010252Y003316D02*
X009784Y003316D01*
X009710Y003390D01*
X009710Y003970D01*
X009780Y004040D01*
X010000Y004040D01*
X009376Y004664D01*
X009376Y005430D01*
X010000Y004040D02*
X010228Y004040D01*
X010252Y004064D01*
X009228Y003316D02*
X009228Y003112D01*
D11*
X019122Y000820D03*
X019122Y007040D03*
D12*
X015343Y000796D03*
D13*
X015343Y006696D03*
D14*
X015000Y004796D03*
X015000Y004363D03*
X015000Y003930D03*
X015000Y003497D03*
X015000Y003064D03*
X015000Y002631D03*
X015000Y002198D03*
X015000Y001765D03*
X015000Y001332D03*
D15*
X019034Y002001D02*
X019036Y002032D01*
X019042Y002062D01*
X019051Y002092D01*
X019064Y002120D01*
X019081Y002146D01*
X019101Y002169D01*
X019123Y002191D01*
X019148Y002209D01*
X019175Y002224D01*
X019204Y002235D01*
X019234Y002243D01*
X019265Y002247D01*
X019295Y002247D01*
X019326Y002243D01*
X019356Y002235D01*
X019385Y002224D01*
X019412Y002209D01*
X019437Y002191D01*
X019459Y002169D01*
X019479Y002146D01*
X019496Y002120D01*
X019509Y002092D01*
X019518Y002062D01*
X019524Y002032D01*
X019526Y002001D01*
X019524Y001970D01*
X019518Y001940D01*
X019509Y001910D01*
X019496Y001882D01*
X019479Y001856D01*
X019459Y001833D01*
X019437Y001811D01*
X019412Y001793D01*
X019385Y001778D01*
X019356Y001767D01*
X019326Y001759D01*
X019295Y001755D01*
X019265Y001755D01*
X019234Y001759D01*
X019204Y001767D01*
X019175Y001778D01*
X019148Y001793D01*
X019123Y001811D01*
X019101Y001833D01*
X019081Y001856D01*
X019064Y001882D01*
X019051Y001910D01*
X019042Y001940D01*
X019036Y001970D01*
X019034Y002001D01*
X019034Y005150D02*
X019036Y005181D01*
X019042Y005211D01*
X019051Y005241D01*
X019064Y005269D01*
X019081Y005295D01*
X019101Y005318D01*
X019123Y005340D01*
X019148Y005358D01*
X019175Y005373D01*
X019204Y005384D01*
X019234Y005392D01*
X019265Y005396D01*
X019295Y005396D01*
X019326Y005392D01*
X019356Y005384D01*
X019385Y005373D01*
X019412Y005358D01*
X019437Y005340D01*
X019459Y005318D01*
X019479Y005295D01*
X019496Y005269D01*
X019509Y005241D01*
X019518Y005211D01*
X019524Y005181D01*
X019526Y005150D01*
X019524Y005119D01*
X019518Y005089D01*
X019509Y005059D01*
X019496Y005031D01*
X019479Y005005D01*
X019459Y004982D01*
X019437Y004960D01*
X019412Y004942D01*
X019385Y004927D01*
X019356Y004916D01*
X019326Y004908D01*
X019295Y004904D01*
X019265Y004904D01*
X019234Y004908D01*
X019204Y004916D01*
X019175Y004927D01*
X019148Y004942D01*
X019123Y004960D01*
X019101Y004982D01*
X019081Y005005D01*
X019064Y005031D01*
X019051Y005059D01*
X019042Y005089D01*
X019036Y005119D01*
X019034Y005150D01*
D16*
X009106Y018824D03*
X008106Y018824D03*
X007106Y018824D03*
X006106Y018824D03*
D17*
X011101Y003948D03*
X011101Y003692D03*
X011101Y003436D03*
X011101Y003180D03*
X011101Y002924D03*
X011101Y002668D03*
X011101Y002412D03*
X013399Y002412D03*
X013399Y002668D03*
X013399Y002924D03*
X013399Y003180D03*
X013399Y003436D03*
X013399Y003692D03*
X013399Y003948D03*
D18*
X010252Y004064D03*
X010252Y003690D03*
X010252Y003316D03*
X009228Y003316D03*
X009228Y004064D03*
D19*
X009376Y005430D03*
X010124Y005430D03*
X008624Y008430D03*
X007876Y008430D03*
X006874Y008430D03*
X006126Y008430D03*
X005124Y008430D03*
X004376Y008430D03*
X004376Y010180D03*
X005124Y010180D03*
X006126Y010180D03*
X006874Y010180D03*
X007876Y010180D03*
X008624Y010180D03*
X013626Y005680D03*
X014374Y005680D03*
X015376Y012680D03*
X016124Y012680D03*
D20*
X005500Y006420D03*
X004500Y006420D03*
X003500Y006420D03*
X003500Y000720D03*
X005500Y000720D03*
D21*
X007100Y003470D03*
X001900Y003470D03*
D22*
X017250Y014900D03*
X017250Y017460D03*
D23*
X017350Y013443D03*
X016976Y012616D03*
X017724Y012616D03*
D24*
X014000Y015430D03*
D25*
X014000Y016430D03*
X013000Y016430D03*
X013000Y015430D03*
X012000Y015430D03*
X011000Y015430D03*
X011000Y016430D03*
X012000Y016430D03*
X010000Y016430D03*
X010000Y015430D03*
X009000Y015430D03*
X009000Y016430D03*
X008000Y016430D03*
X008000Y015430D03*
D26*
X008000Y014680D01*
X004500Y011180D01*
X004000Y011180D01*
X003500Y010680D01*
X003500Y008430D01*
X002750Y007680D01*
X002750Y006180D01*
X003500Y005430D01*
X003500Y000720D01*
X003949Y000497D02*
X005075Y000497D01*
X005089Y000468D02*
X005117Y000430D01*
X003917Y000430D01*
X003924Y000437D01*
X004000Y000621D01*
X004000Y000819D01*
X003924Y001003D01*
X003783Y001144D01*
X003780Y001145D01*
X003780Y005486D01*
X003737Y005589D01*
X003406Y005920D01*
X003599Y005920D01*
X003783Y005996D01*
X003924Y006137D01*
X004000Y006321D01*
X004000Y006519D01*
X003924Y006703D01*
X003783Y006844D01*
X003780Y006845D01*
X003780Y007314D01*
X004401Y007935D01*
X004715Y007935D01*
X004766Y007986D01*
X004799Y007967D01*
X004844Y007955D01*
X005076Y007955D01*
X005076Y008382D01*
X005172Y008382D01*
X005172Y007955D01*
X005404Y007955D01*
X005449Y007967D01*
X005490Y007991D01*
X005524Y008024D01*
X005548Y008065D01*
X005560Y008111D01*
X005560Y008382D01*
X005172Y008382D01*
X005172Y008478D01*
X005076Y008478D01*
X005076Y008905D01*
X004844Y008905D01*
X004799Y008893D01*
X004766Y008874D01*
X004715Y008925D01*
X004656Y008925D01*
X004656Y009685D01*
X004715Y009685D01*
X004750Y009720D01*
X004785Y009685D01*
X004871Y009685D01*
X004887Y009647D01*
X005698Y008836D01*
X005670Y008808D01*
X005670Y008052D01*
X005787Y007935D01*
X006465Y007935D01*
X006516Y007986D01*
X006549Y007967D01*
X006594Y007955D01*
X006826Y007955D01*
X006826Y008382D01*
X006922Y008382D01*
X006922Y007955D01*
X007154Y007955D01*
X007199Y007967D01*
X007240Y007991D01*
X007274Y008024D01*
X007298Y008065D01*
X007310Y008111D01*
X007310Y008382D01*
X006922Y008382D01*
X006922Y008478D01*
X006826Y008478D01*
X006826Y008905D01*
X006594Y008905D01*
X006549Y008893D01*
X006516Y008874D01*
X006465Y008925D01*
X006280Y008925D01*
X006280Y008986D01*
X006237Y009089D01*
X006159Y009167D01*
X005552Y009774D01*
X005580Y009802D01*
X005580Y010558D01*
X005463Y010675D01*
X005404Y010675D01*
X005404Y010688D01*
X007609Y012893D01*
X007596Y012862D01*
X007596Y010675D01*
X007537Y010675D01*
X007420Y010558D01*
X007420Y010460D01*
X007330Y010460D01*
X007330Y010558D01*
X007213Y010675D01*
X006535Y010675D01*
X006484Y010624D01*
X006451Y010643D01*
X006406Y010655D01*
X006174Y010655D01*
X006174Y010228D01*
X006078Y010228D01*
X006078Y010655D01*
X005846Y010655D01*
X005801Y010643D01*
X005760Y010619D01*
X005726Y010586D01*
X005702Y010545D01*
X005690Y010499D01*
X005690Y010228D01*
X006078Y010228D01*
X006078Y010132D01*
X006174Y010132D01*
X006174Y009705D01*
X006406Y009705D01*
X006451Y009717D01*
X006484Y009736D01*
X006535Y009685D01*
X007213Y009685D01*
X007330Y009802D01*
X007330Y009900D01*
X007420Y009900D01*
X007420Y009802D01*
X007537Y009685D01*
X008215Y009685D01*
X008250Y009720D01*
X008285Y009685D01*
X008344Y009685D01*
X008344Y008925D01*
X008285Y008925D01*
X008234Y008874D01*
X008201Y008893D01*
X008156Y008905D01*
X007924Y008905D01*
X007924Y008478D01*
X007828Y008478D01*
X007828Y008905D01*
X007596Y008905D01*
X007551Y008893D01*
X007510Y008869D01*
X007476Y008836D01*
X007452Y008795D01*
X007440Y008749D01*
X007440Y008478D01*
X007828Y008478D01*
X007828Y008382D01*
X007924Y008382D01*
X007924Y007955D01*
X008156Y007955D01*
X008195Y007965D01*
X008041Y007710D01*
X007749Y007710D01*
X007742Y007712D01*
X007693Y007710D01*
X007644Y007710D01*
X007638Y007707D01*
X007631Y007707D01*
X007587Y007686D01*
X007541Y007667D01*
X007537Y007662D01*
X007530Y007660D01*
X007497Y007623D01*
X007463Y007589D01*
X007460Y007582D01*
X006674Y006718D01*
X005921Y006707D01*
X005783Y006844D01*
X005599Y006920D01*
X005401Y006920D01*
X005217Y006844D01*
X005076Y006703D01*
X005000Y006519D01*
X005000Y006321D01*
X005076Y006137D01*
X005217Y005996D01*
X005401Y005920D01*
X005599Y005920D01*
X005783Y005996D01*
X005924Y006137D01*
X005928Y006147D01*
X006753Y006159D01*
X006758Y006158D01*
X006809Y006160D01*
X006860Y006161D01*
X006864Y006163D01*
X006869Y006163D01*
X006915Y006185D01*
X006962Y006205D01*
X006965Y006208D01*
X006970Y006210D01*
X007004Y006248D01*
X007040Y006285D01*
X007042Y006289D01*
X007824Y007150D01*
X008179Y007150D01*
X008214Y007145D01*
X008234Y007150D01*
X008256Y007150D01*
X008288Y007163D01*
X008322Y007172D01*
X008339Y007185D01*
X008359Y007193D01*
X008383Y007217D01*
X008411Y007238D01*
X008422Y007256D01*
X008437Y007271D01*
X008451Y007304D01*
X008722Y007756D01*
X008737Y007771D01*
X008751Y007804D01*
X008769Y007834D01*
X008772Y007855D01*
X008780Y007874D01*
X008780Y007909D01*
X008784Y007935D01*
X008963Y007935D01*
X009056Y008028D01*
X009056Y005925D01*
X009037Y005925D01*
X008920Y005808D01*
X008920Y005052D01*
X009037Y004935D01*
X003780Y004935D01*
X003780Y004777D02*
X009126Y004777D01*
X009126Y004935D02*
X009126Y004614D01*
X009164Y004522D01*
X009314Y004372D01*
X008909Y004372D01*
X008792Y004255D01*
X008792Y003873D01*
X008909Y003756D01*
X009460Y003756D01*
X009460Y003624D01*
X008909Y003624D01*
X008792Y003507D01*
X008792Y003125D01*
X008909Y003008D01*
X009001Y003008D01*
X009016Y002970D01*
X009728Y002258D01*
X009798Y002188D01*
X009890Y002150D01*
X010365Y002150D01*
X010416Y002099D01*
X010555Y002042D01*
X010705Y002042D01*
X010844Y002099D01*
X010897Y002152D01*
X011379Y002152D01*
X011496Y002269D01*
X011496Y003323D01*
X011474Y003345D01*
X011476Y003352D01*
X011476Y003430D01*
X011550Y003430D01*
X011642Y003468D01*
X011712Y003538D01*
X011725Y003552D01*
X011825Y003552D01*
X011964Y003609D01*
X012071Y003716D01*
X012128Y003855D01*
X012128Y004005D01*
X012118Y004030D01*
X012780Y004030D01*
X012872Y004068D01*
X012917Y004113D01*
X013057Y004113D01*
X013036Y004077D01*
X013024Y004031D01*
X013024Y003948D01*
X013117Y003948D01*
X013117Y003948D01*
X013024Y003948D01*
X013024Y003864D01*
X013026Y003857D01*
X013004Y003835D01*
X013004Y003293D01*
X013026Y003271D01*
X013024Y003264D01*
X013024Y003180D01*
X013024Y003096D01*
X013026Y003089D01*
X013004Y003067D01*
X013004Y002525D01*
X013026Y002503D01*
X013024Y002496D01*
X013024Y002430D01*
X012604Y002430D01*
X012392Y002642D01*
X012300Y002680D01*
X012285Y002680D01*
X012214Y002751D01*
X012075Y002808D01*
X011925Y002808D01*
X011786Y002751D01*
X011679Y002644D01*
X011622Y002505D01*
X011622Y002355D01*
X011679Y002216D01*
X011786Y002109D01*
X011925Y002052D01*
X012075Y002052D01*
X012214Y002109D01*
X012216Y002111D01*
X012288Y002038D01*
X012358Y001968D01*
X012450Y001930D01*
X014524Y001930D01*
X014524Y001111D01*
X014642Y000994D01*
X014887Y000994D01*
X014887Y000842D01*
X015297Y000842D01*
X015297Y000750D01*
X014887Y000750D01*
X014887Y000520D01*
X014899Y000475D01*
X014923Y000434D01*
X014927Y000430D01*
X005883Y000430D01*
X005911Y000468D01*
X005945Y000536D01*
X005968Y000608D01*
X005980Y000682D01*
X005980Y000700D01*
X005520Y000700D01*
X005520Y000740D01*
X005500Y000720D01*
X015266Y000720D01*
X015343Y000796D01*
X015209Y000930D01*
X015297Y000814D02*
X005971Y000814D01*
X005968Y000832D02*
X005980Y000758D01*
X005980Y000740D01*
X005520Y000740D01*
X005520Y000880D01*
X005520Y000814D02*
X005480Y000814D01*
X005480Y000740D02*
X005480Y001200D01*
X005462Y001200D01*
X005388Y001188D01*
X005316Y001165D01*
X005248Y001131D01*
X005187Y001086D01*
X005134Y001033D01*
X005089Y000972D01*
X005055Y000904D01*
X005032Y000832D01*
X005020Y000758D01*
X005020Y000740D01*
X005480Y000740D01*
X005520Y000740D01*
X005520Y001200D01*
X005538Y001200D01*
X005612Y001188D01*
X005684Y001165D01*
X005752Y001131D01*
X005813Y001086D01*
X005866Y001033D01*
X005911Y000972D01*
X005945Y000904D01*
X005968Y000832D01*
X005910Y000973D02*
X014887Y000973D01*
X014887Y000656D02*
X005976Y000656D01*
X005925Y000497D02*
X014893Y000497D01*
X015389Y000750D02*
X015389Y000842D01*
X015798Y000842D01*
X015798Y001070D01*
X015890Y001070D01*
X015982Y001108D01*
X016052Y001178D01*
X016812Y001938D01*
X016850Y002030D01*
X016850Y004900D01*
X016812Y004992D01*
X016742Y005062D01*
X016230Y005574D01*
X016230Y007280D01*
X016192Y007372D01*
X016122Y007442D01*
X012250Y011314D01*
X012250Y015001D01*
X012480Y015231D01*
X012480Y015629D01*
X012199Y015910D01*
X011801Y015910D01*
X011520Y015629D01*
X011520Y015231D01*
X011750Y015001D01*
X011750Y011160D01*
X011788Y011068D01*
X015597Y007260D01*
X015400Y007260D01*
X015400Y006754D01*
X015285Y006754D01*
X015285Y007260D01*
X015043Y007260D01*
X014997Y007247D01*
X014956Y007224D01*
X014923Y007190D01*
X014899Y007149D01*
X014887Y007103D01*
X014887Y006754D01*
X015285Y006754D01*
X015285Y006638D01*
X015400Y006638D01*
X015400Y006132D01*
X015642Y006132D01*
X015688Y006144D01*
X015729Y006168D01*
X015730Y006169D01*
X015730Y005596D01*
X015409Y005917D01*
X015306Y005960D01*
X014830Y005960D01*
X014830Y006058D01*
X014713Y006175D01*
X014035Y006175D01*
X013984Y006124D01*
X013951Y006143D01*
X013906Y006155D01*
X013674Y006155D01*
X013674Y005728D01*
X013578Y005728D01*
X013578Y006155D01*
X013346Y006155D01*
X013301Y006143D01*
X013260Y006119D01*
X013226Y006086D01*
X013202Y006045D01*
X013190Y005999D01*
X013190Y005728D01*
X013578Y005728D01*
X013578Y005632D01*
X013674Y005632D01*
X013674Y005205D01*
X013906Y005205D01*
X013951Y005217D01*
X013984Y005236D01*
X014035Y005185D01*
X014713Y005185D01*
X014830Y005302D01*
X014830Y005400D01*
X015134Y005400D01*
X015970Y004564D01*
X015970Y003796D01*
X015884Y003710D01*
X015476Y003710D01*
X015476Y005017D01*
X015358Y005134D01*
X014642Y005134D01*
X014524Y005017D01*
X014524Y004613D01*
X012763Y004613D01*
X012671Y004575D01*
X012626Y004530D01*
X011384Y004530D01*
X011292Y004492D01*
X011008Y004208D01*
X010823Y004208D01*
X010706Y004091D01*
X010706Y003549D01*
X010728Y003527D01*
X010726Y003520D01*
X010726Y003436D01*
X010819Y003436D01*
X010819Y003436D01*
X010726Y003436D01*
X010726Y003352D01*
X010728Y003345D01*
X010706Y003323D01*
X010706Y002798D01*
X010705Y002798D01*
X010555Y002798D01*
X010416Y002741D01*
X010325Y002650D01*
X010044Y002650D01*
X009617Y003077D01*
X009643Y003104D01*
X009734Y003066D01*
X009875Y003066D01*
X009933Y003008D01*
X010571Y003008D01*
X010688Y003125D01*
X010688Y003507D01*
X010662Y003534D01*
X010668Y003558D01*
X010668Y003690D01*
X010668Y003822D01*
X010662Y003846D01*
X010688Y003873D01*
X010688Y004255D01*
X010571Y004372D01*
X010021Y004372D01*
X009626Y004768D01*
X009626Y004935D01*
X009715Y004935D01*
X014524Y004935D01*
X014524Y004777D02*
X009626Y004777D01*
X009715Y004935D02*
X009766Y004986D01*
X009799Y004967D01*
X009844Y004955D01*
X010076Y004955D01*
X010076Y005382D01*
X010172Y005382D01*
X010172Y004955D01*
X010404Y004955D01*
X010449Y004967D01*
X010490Y004991D01*
X010524Y005024D01*
X010548Y005065D01*
X010560Y005111D01*
X010560Y005382D01*
X010172Y005382D01*
X010172Y005478D01*
X010076Y005478D01*
X010076Y005905D01*
X009844Y005905D01*
X009799Y005893D01*
X009766Y005874D01*
X009715Y005925D01*
X009696Y005925D01*
X009696Y011358D01*
X009647Y011475D01*
X008828Y012294D01*
X008828Y012295D01*
X008771Y012434D01*
X008664Y012541D01*
X008525Y012598D01*
X008375Y012598D01*
X008236Y012541D01*
X008156Y012461D01*
X008156Y012690D01*
X008866Y013400D01*
X009556Y013400D01*
X009659Y013443D01*
X010616Y014400D01*
X010806Y014400D01*
X010909Y014443D01*
X010987Y014521D01*
X010987Y014521D01*
X011159Y014693D01*
X011237Y014771D01*
X011280Y014874D01*
X011280Y015031D01*
X011480Y015231D01*
X011480Y015629D01*
X011199Y015910D01*
X010801Y015910D01*
X010520Y015629D01*
X010520Y015231D01*
X010713Y015039D01*
X010634Y014960D01*
X010444Y014960D01*
X010341Y014917D01*
X010267Y014843D01*
X010280Y014874D01*
X010280Y015031D01*
X010480Y015231D01*
X010480Y015629D01*
X010199Y015910D01*
X009801Y015910D01*
X009520Y015629D01*
X009520Y015231D01*
X009713Y015039D01*
X009384Y014710D01*
X008694Y014710D01*
X008591Y014667D01*
X008513Y014589D01*
X004887Y010963D01*
X004844Y010860D01*
X004844Y010675D01*
X004785Y010675D01*
X004750Y010640D01*
X004715Y010675D01*
X004037Y010675D01*
X003920Y010558D01*
X003920Y009802D01*
X004037Y009685D01*
X004096Y009685D01*
X004096Y008925D01*
X004037Y008925D01*
X003920Y008808D01*
X003920Y008246D01*
X003263Y007589D01*
X003220Y007486D01*
X003220Y006845D01*
X003217Y006844D01*
X003076Y006703D01*
X003030Y006592D01*
X003030Y007564D01*
X003659Y008193D01*
X003737Y008271D01*
X003780Y008374D01*
X003780Y010564D01*
X004116Y010900D01*
X004556Y010900D01*
X004659Y010943D01*
X008159Y014443D01*
X008237Y014521D01*
X008280Y014624D01*
X008280Y015031D01*
X008480Y015231D01*
X008480Y015629D01*
X008199Y015910D01*
X007801Y015910D01*
X007520Y015629D01*
X007520Y015231D01*
X007720Y015031D01*
X007720Y014796D01*
X004384Y011460D01*
X003944Y011460D01*
X003841Y011417D01*
X003763Y011339D01*
X003263Y010839D01*
X003220Y010736D01*
X003220Y008546D01*
X002513Y007839D01*
X002470Y007736D01*
X002470Y006124D01*
X002513Y006021D01*
X002591Y005943D01*
X003220Y005314D01*
X003220Y001145D01*
X003217Y001144D01*
X003076Y001003D01*
X003000Y000819D01*
X003000Y000621D01*
X003076Y000437D01*
X003083Y000430D01*
X000500Y000430D01*
X000500Y019615D01*
X006502Y019615D01*
X006270Y019384D01*
X006222Y019404D01*
X005991Y019404D01*
X005778Y019315D01*
X005615Y019152D01*
X005526Y018939D01*
X005526Y018708D01*
X005615Y018495D01*
X005778Y018332D01*
X005991Y018244D01*
X006222Y018244D01*
X006435Y018332D01*
X006598Y018495D01*
X006619Y018546D01*
X006627Y018530D01*
X006679Y018459D01*
X006741Y018397D01*
X006813Y018345D01*
X006891Y018305D01*
X006975Y018277D01*
X007062Y018264D01*
X007088Y018264D01*
X007088Y018805D01*
X007125Y018805D01*
X007125Y018264D01*
X007150Y018264D01*
X007237Y018277D01*
X007321Y018305D01*
X007400Y018345D01*
X007471Y018397D01*
X007533Y018459D01*
X007585Y018530D01*
X007593Y018546D01*
X007615Y018495D01*
X007778Y018332D01*
X007991Y018244D01*
X008222Y018244D01*
X008270Y018264D01*
X008763Y017771D01*
X008841Y017693D01*
X008944Y017650D01*
X010384Y017650D01*
X010720Y017314D01*
X010720Y016829D01*
X010520Y016629D01*
X010520Y016231D01*
X010801Y015950D01*
X011199Y015950D01*
X011480Y016231D01*
X011480Y016629D01*
X011280Y016829D01*
X011280Y017486D01*
X011237Y017589D01*
X011159Y017667D01*
X010659Y018167D01*
X010556Y018210D01*
X009116Y018210D01*
X009082Y018244D01*
X009222Y018244D01*
X009435Y018332D01*
X009598Y018495D01*
X009618Y018544D01*
X010490Y018544D01*
X011720Y017314D01*
X011720Y016829D01*
X011520Y016629D01*
X011520Y016231D01*
X011801Y015950D01*
X012199Y015950D01*
X012480Y016231D01*
X012480Y016629D01*
X012280Y016829D01*
X012280Y017486D01*
X012237Y017589D01*
X012159Y017667D01*
X010765Y019061D01*
X010662Y019104D01*
X009618Y019104D01*
X009599Y019150D01*
X012634Y019150D01*
X013720Y018064D01*
X013720Y016829D01*
X013520Y016629D01*
X013520Y016231D01*
X013801Y015950D01*
X014199Y015950D01*
X014480Y016231D01*
X014480Y016629D01*
X014280Y016829D01*
X014280Y017504D01*
X014562Y017222D01*
X014665Y017180D01*
X016771Y017180D01*
X016784Y017148D01*
X016938Y016993D01*
X017141Y016910D01*
X017359Y016910D01*
X017562Y016993D01*
X017716Y017148D01*
X017800Y017350D01*
X017800Y017569D01*
X017716Y017771D01*
X017562Y017926D01*
X017359Y018010D01*
X017141Y018010D01*
X016938Y017926D01*
X016784Y017771D01*
X016771Y017740D01*
X014836Y017740D01*
X014237Y018339D01*
X012987Y019589D01*
X012961Y019615D01*
X019685Y019615D01*
X019685Y007379D01*
X019683Y007385D01*
X019660Y007426D01*
X019626Y007460D01*
X019585Y007484D01*
X019539Y007496D01*
X019180Y007496D01*
X019180Y007098D01*
X019064Y007098D01*
X019064Y006982D01*
X019180Y006982D01*
X019180Y006585D01*
X019539Y006585D01*
X019585Y006597D01*
X019626Y006621D01*
X019660Y006654D01*
X019683Y006695D01*
X019685Y006701D01*
X019685Y005337D01*
X019658Y005403D01*
X019532Y005529D01*
X019368Y005597D01*
X019191Y005597D01*
X019027Y005529D01*
X018901Y005403D01*
X018833Y005239D01*
X018833Y005062D01*
X018901Y004898D01*
X019027Y004772D01*
X019191Y004704D01*
X019368Y004704D01*
X019532Y004772D01*
X019658Y004898D01*
X019685Y004964D01*
X019685Y002187D01*
X019658Y002254D01*
X019532Y002379D01*
X019368Y002447D01*
X019191Y002447D01*
X019027Y002379D01*
X018901Y002254D01*
X018833Y002090D01*
X018833Y001912D01*
X018901Y001748D01*
X019027Y001623D01*
X019191Y001555D01*
X019368Y001555D01*
X019532Y001623D01*
X019658Y001748D01*
X019685Y001814D01*
X019685Y001159D01*
X019683Y001165D01*
X019660Y001206D01*
X019626Y001239D01*
X019585Y001263D01*
X019539Y001275D01*
X019180Y001275D01*
X019180Y000878D01*
X019064Y000878D01*
X019064Y001275D01*
X018705Y001275D01*
X018659Y001263D01*
X018618Y001239D01*
X018584Y001206D01*
X018561Y001165D01*
X018548Y001119D01*
X018548Y000878D01*
X019064Y000878D01*
X019064Y000762D01*
X018548Y000762D01*
X018548Y000520D01*
X018561Y000475D01*
X018584Y000434D01*
X018588Y000430D01*
X015758Y000430D01*
X015762Y000434D01*
X015786Y000475D01*
X015798Y000520D01*
X015798Y000750D01*
X015389Y000750D01*
X015389Y000814D02*
X019064Y000814D01*
X019064Y000973D02*
X019180Y000973D01*
X019180Y001131D02*
X019064Y001131D01*
X019066Y001607D02*
X016480Y001607D01*
X016639Y001765D02*
X018894Y001765D01*
X018833Y001924D02*
X016797Y001924D01*
X016850Y002082D02*
X018833Y002082D01*
X018896Y002241D02*
X016850Y002241D01*
X016850Y002399D02*
X019075Y002399D01*
X019484Y002399D02*
X019685Y002399D01*
X019685Y002241D02*
X019663Y002241D01*
X019685Y002558D02*
X016850Y002558D01*
X016850Y002716D02*
X019685Y002716D01*
X019685Y002875D02*
X016850Y002875D01*
X016850Y003033D02*
X019685Y003033D01*
X019685Y003192D02*
X016850Y003192D01*
X016850Y003350D02*
X019685Y003350D01*
X019685Y003509D02*
X016850Y003509D01*
X016850Y003667D02*
X019685Y003667D01*
X019685Y003826D02*
X016850Y003826D01*
X016850Y003984D02*
X019685Y003984D01*
X019685Y004143D02*
X016850Y004143D01*
X016850Y004301D02*
X019685Y004301D01*
X019685Y004460D02*
X016850Y004460D01*
X016850Y004618D02*
X019685Y004618D01*
X019685Y004777D02*
X019536Y004777D01*
X019673Y004935D02*
X019685Y004935D01*
X019685Y005411D02*
X019650Y005411D01*
X019685Y005569D02*
X019435Y005569D01*
X019685Y005728D02*
X016230Y005728D01*
X016230Y005886D02*
X019685Y005886D01*
X019685Y006045D02*
X016230Y006045D01*
X016230Y006203D02*
X019685Y006203D01*
X019685Y006362D02*
X016230Y006362D01*
X016230Y006520D02*
X019685Y006520D01*
X019674Y006679D02*
X019685Y006679D01*
X019180Y006679D02*
X019064Y006679D01*
X019064Y006585D02*
X019064Y006982D01*
X018548Y006982D01*
X018548Y006741D01*
X018561Y006695D01*
X018584Y006654D01*
X018618Y006621D01*
X018659Y006597D01*
X018705Y006585D01*
X019064Y006585D01*
X019064Y006837D02*
X019180Y006837D01*
X019064Y006996D02*
X016230Y006996D01*
X016230Y007154D02*
X018548Y007154D01*
X018548Y007098D02*
X019064Y007098D01*
X019064Y007496D01*
X018705Y007496D01*
X018659Y007484D01*
X018618Y007460D01*
X018584Y007426D01*
X018561Y007385D01*
X018548Y007340D01*
X018548Y007098D01*
X018548Y007313D02*
X016216Y007313D01*
X016093Y007471D02*
X018637Y007471D01*
X019064Y007471D02*
X019180Y007471D01*
X019180Y007313D02*
X019064Y007313D01*
X019064Y007154D02*
X019180Y007154D01*
X019122Y007040D02*
X017724Y008438D01*
X017724Y012616D01*
X017724Y012259D01*
X017724Y012616D01*
X017724Y012616D01*
X017387Y012616D01*
X017387Y012415D01*
X017399Y012370D01*
X017422Y012329D01*
X017456Y012295D01*
X017497Y012271D01*
X017543Y012259D01*
X017724Y012259D01*
X017905Y012259D01*
X017951Y012271D01*
X017992Y012295D01*
X018026Y012329D01*
X018049Y012370D01*
X018061Y012415D01*
X018061Y012616D01*
X017724Y012616D01*
X017724Y012616D01*
X017724Y012616D01*
X017564Y012616D01*
X017000Y013180D01*
X016500Y013180D01*
X014000Y015430D01*
X014010Y015440D02*
X014460Y015440D01*
X014460Y015466D01*
X014449Y015538D01*
X014426Y015607D01*
X014393Y015671D01*
X014351Y015730D01*
X014300Y015781D01*
X014241Y015823D01*
X014177Y015856D01*
X014108Y015879D01*
X014036Y015890D01*
X014010Y015890D01*
X014010Y015440D01*
X014010Y015420D01*
X014460Y015420D01*
X014460Y015394D01*
X014449Y015322D01*
X014426Y015253D01*
X014393Y015189D01*
X014351Y015130D01*
X014300Y015079D01*
X014241Y015037D01*
X014177Y015004D01*
X014108Y014981D01*
X014036Y014970D01*
X014010Y014970D01*
X014010Y015420D01*
X013990Y015420D01*
X013990Y014970D01*
X013964Y014970D01*
X013892Y014981D01*
X013823Y015004D01*
X013759Y015037D01*
X013700Y015079D01*
X013649Y015130D01*
X013607Y015189D01*
X013574Y015253D01*
X013551Y015322D01*
X013540Y015394D01*
X013540Y015420D01*
X013990Y015420D01*
X013990Y015440D01*
X013990Y015890D01*
X013964Y015890D01*
X013892Y015879D01*
X013823Y015856D01*
X013759Y015823D01*
X013700Y015781D01*
X013649Y015730D01*
X013607Y015671D01*
X013574Y015607D01*
X013551Y015538D01*
X013540Y015466D01*
X013540Y015440D01*
X013990Y015440D01*
X014010Y015440D01*
X014010Y015396D02*
X013990Y015396D01*
X013990Y015238D02*
X014010Y015238D01*
X014010Y015079D02*
X013990Y015079D01*
X014300Y015079D02*
X016729Y015079D01*
X016700Y015010D02*
X016700Y014791D01*
X016784Y014589D01*
X016938Y014434D01*
X017070Y014380D01*
X017070Y013781D01*
X016993Y013703D01*
X016993Y013183D01*
X017110Y013066D01*
X017590Y013066D01*
X017707Y013183D01*
X017707Y013703D01*
X017630Y013781D01*
X017630Y014503D01*
X017716Y014589D01*
X017800Y014791D01*
X017800Y015010D01*
X017716Y015212D01*
X017562Y015367D01*
X017359Y015450D01*
X017141Y015450D01*
X016938Y015367D01*
X016784Y015212D01*
X016700Y015010D01*
X016700Y014921D02*
X013405Y014921D01*
X013287Y015039D02*
X013480Y015231D01*
X013480Y015629D01*
X013199Y015910D01*
X012801Y015910D01*
X012520Y015629D01*
X012520Y015231D01*
X012720Y015031D01*
X012720Y014874D01*
X012763Y014771D01*
X012841Y014693D01*
X012841Y014693D01*
X014920Y012614D01*
X014920Y012302D01*
X015037Y012185D01*
X015715Y012185D01*
X015750Y012220D01*
X015785Y012185D01*
X016463Y012185D01*
X016580Y012302D01*
X016580Y012336D01*
X016638Y012336D01*
X016736Y012239D01*
X017216Y012239D01*
X017333Y012356D01*
X017333Y012876D01*
X017216Y012993D01*
X016736Y012993D01*
X016638Y012896D01*
X016580Y012896D01*
X016580Y013058D01*
X016463Y013175D01*
X015785Y013175D01*
X015750Y013140D01*
X015715Y013175D01*
X015151Y013175D01*
X013287Y015039D01*
X013328Y015079D02*
X013700Y015079D01*
X013582Y015238D02*
X013480Y015238D01*
X013480Y015396D02*
X013540Y015396D01*
X013557Y015555D02*
X013480Y015555D01*
X013396Y015713D02*
X013637Y015713D01*
X013870Y015872D02*
X013237Y015872D01*
X013199Y015950D02*
X013480Y016231D01*
X013480Y016629D01*
X013199Y016910D01*
X012801Y016910D01*
X012520Y016629D01*
X012520Y016231D01*
X012801Y015950D01*
X013199Y015950D01*
X013279Y016030D02*
X013721Y016030D01*
X013563Y016189D02*
X013437Y016189D01*
X013480Y016347D02*
X013520Y016347D01*
X013520Y016506D02*
X013480Y016506D01*
X013445Y016664D02*
X013555Y016664D01*
X013714Y016823D02*
X013286Y016823D01*
X012714Y016823D02*
X012286Y016823D01*
X012280Y016981D02*
X013720Y016981D01*
X013720Y017140D02*
X012280Y017140D01*
X012280Y017298D02*
X013720Y017298D01*
X013720Y017457D02*
X012280Y017457D01*
X012211Y017615D02*
X013720Y017615D01*
X013720Y017774D02*
X012052Y017774D01*
X011894Y017932D02*
X013720Y017932D01*
X013693Y018091D02*
X011735Y018091D01*
X011577Y018249D02*
X013535Y018249D01*
X013376Y018408D02*
X011418Y018408D01*
X011260Y018566D02*
X013218Y018566D01*
X013059Y018725D02*
X011101Y018725D01*
X010943Y018883D02*
X012901Y018883D01*
X012742Y019042D02*
X010784Y019042D01*
X010606Y018824D02*
X012000Y017430D01*
X012000Y016430D01*
X011714Y016823D02*
X011286Y016823D01*
X011280Y016981D02*
X011720Y016981D01*
X011720Y017140D02*
X011280Y017140D01*
X011280Y017298D02*
X011720Y017298D01*
X011577Y017457D02*
X011280Y017457D01*
X011211Y017615D02*
X011419Y017615D01*
X011260Y017774D02*
X011052Y017774D01*
X011102Y017932D02*
X010894Y017932D01*
X010943Y018091D02*
X010735Y018091D01*
X010785Y018249D02*
X009235Y018249D01*
X009510Y018408D02*
X010626Y018408D01*
X010606Y018824D02*
X009106Y018824D01*
X008606Y019132D02*
X008614Y019150D01*
X008599Y019150D01*
X008606Y019132D01*
X008106Y018824D02*
X009000Y017930D01*
X010500Y017930D01*
X011000Y017430D01*
X011000Y016430D01*
X010714Y016823D02*
X010286Y016823D01*
X010199Y016910D02*
X009801Y016910D01*
X009520Y016629D01*
X009520Y016231D01*
X009801Y015950D01*
X010199Y015950D01*
X010480Y016231D01*
X010480Y016629D01*
X010199Y016910D01*
X010445Y016664D02*
X010555Y016664D01*
X010520Y016506D02*
X010480Y016506D01*
X010480Y016347D02*
X010520Y016347D01*
X010563Y016189D02*
X010437Y016189D01*
X010279Y016030D02*
X010721Y016030D01*
X010763Y015872D02*
X010237Y015872D01*
X010396Y015713D02*
X010604Y015713D01*
X010520Y015555D02*
X010480Y015555D01*
X010480Y015396D02*
X010520Y015396D01*
X010520Y015238D02*
X010480Y015238D01*
X010328Y015079D02*
X010672Y015079D01*
X010349Y014921D02*
X010280Y014921D01*
X010000Y014930D02*
X010000Y015430D01*
X009672Y015079D02*
X009328Y015079D01*
X009199Y014950D02*
X009480Y015231D01*
X009480Y015629D01*
X009199Y015910D01*
X008801Y015910D01*
X008520Y015629D01*
X008520Y015231D01*
X008801Y014950D01*
X009199Y014950D01*
X009436Y014762D02*
X008280Y014762D01*
X008280Y014921D02*
X009595Y014921D01*
X009520Y015238D02*
X009480Y015238D01*
X009480Y015396D02*
X009520Y015396D01*
X009520Y015555D02*
X009480Y015555D01*
X009396Y015713D02*
X009604Y015713D01*
X009763Y015872D02*
X009237Y015872D01*
X009199Y015950D02*
X009480Y016231D01*
X009480Y016629D01*
X009199Y016910D01*
X008801Y016910D01*
X008520Y016629D01*
X008520Y016231D01*
X008801Y015950D01*
X009199Y015950D01*
X009279Y016030D02*
X009721Y016030D01*
X009563Y016189D02*
X009437Y016189D01*
X009480Y016347D02*
X009520Y016347D01*
X009520Y016506D02*
X009480Y016506D01*
X009445Y016664D02*
X009555Y016664D01*
X009714Y016823D02*
X009286Y016823D01*
X008714Y016823D02*
X008286Y016823D01*
X008199Y016910D02*
X008480Y016629D01*
X008480Y016231D01*
X008199Y015950D01*
X007801Y015950D01*
X007520Y016231D01*
X007520Y016629D01*
X007801Y016910D01*
X008199Y016910D01*
X008445Y016664D02*
X008555Y016664D01*
X008520Y016506D02*
X008480Y016506D01*
X008480Y016347D02*
X008520Y016347D01*
X008563Y016189D02*
X008437Y016189D01*
X008279Y016030D02*
X008721Y016030D01*
X008763Y015872D02*
X008237Y015872D01*
X008396Y015713D02*
X008604Y015713D01*
X008520Y015555D02*
X008480Y015555D01*
X008480Y015396D02*
X008520Y015396D01*
X008520Y015238D02*
X008480Y015238D01*
X008328Y015079D02*
X008672Y015079D01*
X008528Y014604D02*
X008271Y014604D01*
X008369Y014445D02*
X008161Y014445D01*
X008211Y014287D02*
X008003Y014287D01*
X008052Y014128D02*
X007844Y014128D01*
X007894Y013970D02*
X007686Y013970D01*
X007735Y013811D02*
X007527Y013811D01*
X007577Y013653D02*
X007369Y013653D01*
X007418Y013494D02*
X007210Y013494D01*
X007260Y013336D02*
X007051Y013336D01*
X007101Y013177D02*
X006893Y013177D01*
X006943Y013019D02*
X006734Y013019D01*
X006784Y012860D02*
X006576Y012860D01*
X006626Y012702D02*
X006417Y012702D01*
X006467Y012543D02*
X006259Y012543D01*
X006309Y012385D02*
X006100Y012385D01*
X006150Y012226D02*
X005942Y012226D01*
X005992Y012068D02*
X005783Y012068D01*
X005833Y011909D02*
X005625Y011909D01*
X005675Y011751D02*
X005466Y011751D01*
X005516Y011592D02*
X005308Y011592D01*
X005358Y011434D02*
X005149Y011434D01*
X005199Y011275D02*
X004991Y011275D01*
X005041Y011117D02*
X004832Y011117D01*
X004885Y010958D02*
X004674Y010958D01*
X004844Y010800D02*
X004015Y010800D01*
X004003Y010641D02*
X003857Y010641D01*
X003920Y010483D02*
X003780Y010483D01*
X003780Y010324D02*
X003920Y010324D01*
X003920Y010166D02*
X003780Y010166D01*
X003780Y010007D02*
X003920Y010007D01*
X003920Y009849D02*
X003780Y009849D01*
X003780Y009690D02*
X004032Y009690D01*
X004096Y009532D02*
X003780Y009532D01*
X003780Y009373D02*
X004096Y009373D01*
X004096Y009215D02*
X003780Y009215D01*
X003780Y009056D02*
X004096Y009056D01*
X004009Y008898D02*
X003780Y008898D01*
X003780Y008739D02*
X003920Y008739D01*
X003920Y008581D02*
X003780Y008581D01*
X003780Y008422D02*
X003920Y008422D01*
X003920Y008264D02*
X003729Y008264D01*
X003779Y008105D02*
X003571Y008105D01*
X003621Y007947D02*
X003412Y007947D01*
X003462Y007788D02*
X003254Y007788D01*
X003304Y007630D02*
X003095Y007630D01*
X003030Y007471D02*
X003220Y007471D01*
X003220Y007313D02*
X003030Y007313D01*
X003030Y007154D02*
X003220Y007154D01*
X003220Y006996D02*
X003030Y006996D01*
X003030Y006837D02*
X003210Y006837D01*
X003066Y006679D02*
X003030Y006679D01*
X003500Y006420D02*
X003500Y007430D01*
X004250Y008180D01*
X004250Y008304D01*
X004376Y008430D01*
X004376Y010180D01*
X004749Y010641D02*
X004751Y010641D01*
X005124Y010804D02*
X005124Y010180D01*
X005124Y009806D01*
X006000Y008930D01*
X006000Y008556D01*
X006126Y008430D01*
X006492Y008898D02*
X006565Y008898D01*
X006750Y008930D02*
X006750Y008680D01*
X007000Y008430D01*
X007876Y008430D01*
X007828Y008422D02*
X006922Y008422D01*
X006890Y008414D02*
X006874Y008430D01*
X006750Y008554D01*
X006750Y008680D01*
X006826Y008739D02*
X006922Y008739D01*
X006922Y008581D02*
X006826Y008581D01*
X006922Y008478D02*
X006922Y008905D01*
X007154Y008905D01*
X007199Y008893D01*
X007240Y008869D01*
X007274Y008836D01*
X007298Y008795D01*
X007310Y008749D01*
X007310Y008478D01*
X006922Y008478D01*
X006890Y008414D02*
X006890Y008200D01*
X006880Y008190D01*
X006880Y007790D01*
X006530Y007440D01*
X006100Y007440D01*
X005124Y008416D01*
X005124Y008430D01*
X005000Y008306D01*
X005000Y007740D01*
X004500Y007180D01*
X004500Y006420D01*
X004490Y006430D01*
X004490Y006610D01*
X004480Y006679D02*
X004520Y006679D01*
X004520Y006837D02*
X004480Y006837D01*
X004480Y006900D02*
X004462Y006900D01*
X004388Y006888D01*
X004316Y006865D01*
X004248Y006831D01*
X004187Y006786D01*
X004134Y006733D01*
X004089Y006672D01*
X004055Y006604D01*
X004032Y006532D01*
X004020Y006458D01*
X004020Y006440D01*
X004480Y006440D01*
X004480Y006900D01*
X004520Y006900D02*
X004520Y006440D01*
X004480Y006440D01*
X004480Y006400D01*
X004020Y006400D01*
X004020Y006382D01*
X004032Y006308D01*
X004055Y006236D01*
X004089Y006168D01*
X004134Y006107D01*
X004187Y006054D01*
X004248Y006009D01*
X004316Y005975D01*
X004388Y005952D01*
X004462Y005940D01*
X004480Y005940D01*
X004480Y006400D01*
X004520Y006400D01*
X004520Y006440D01*
X004980Y006440D01*
X004980Y006458D01*
X004968Y006532D01*
X004945Y006604D01*
X004911Y006672D01*
X004866Y006733D01*
X004813Y006786D01*
X004752Y006831D01*
X004684Y006865D01*
X004612Y006888D01*
X004538Y006900D01*
X004520Y006900D01*
X004739Y006837D02*
X005210Y006837D01*
X005066Y006679D02*
X004905Y006679D01*
X004970Y006520D02*
X005000Y006520D01*
X004980Y006400D02*
X004520Y006400D01*
X004520Y005940D01*
X004538Y005940D01*
X004612Y005952D01*
X004684Y005975D01*
X004752Y006009D01*
X004813Y006054D01*
X004866Y006107D01*
X004911Y006168D01*
X004945Y006236D01*
X004968Y006308D01*
X004980Y006382D01*
X004980Y006400D01*
X004977Y006362D02*
X005000Y006362D01*
X005049Y006203D02*
X004928Y006203D01*
X004800Y006045D02*
X005168Y006045D01*
X005500Y006420D02*
X006800Y006440D01*
X007700Y007430D01*
X008200Y007430D01*
X008500Y007930D01*
X008500Y008306D01*
X008624Y008430D01*
X008624Y010180D01*
X009056Y010582D02*
X008963Y010675D01*
X008285Y010675D01*
X008250Y010640D01*
X008215Y010675D01*
X008156Y010675D01*
X008156Y011979D01*
X008236Y011899D01*
X008375Y011842D01*
X008376Y011842D01*
X009056Y011161D01*
X009056Y010582D01*
X009056Y010641D02*
X008997Y010641D01*
X009056Y010800D02*
X008156Y010800D01*
X008156Y010958D02*
X009056Y010958D01*
X009056Y011117D02*
X008156Y011117D01*
X008156Y011275D02*
X008942Y011275D01*
X008784Y011434D02*
X008156Y011434D01*
X008156Y011592D02*
X008625Y011592D01*
X008467Y011751D02*
X008156Y011751D01*
X008156Y011909D02*
X008226Y011909D01*
X007596Y011909D02*
X006625Y011909D01*
X006466Y011751D02*
X007596Y011751D01*
X007596Y011592D02*
X006308Y011592D01*
X006149Y011434D02*
X007596Y011434D01*
X007596Y011275D02*
X005991Y011275D01*
X005832Y011117D02*
X007596Y011117D01*
X007596Y010958D02*
X005674Y010958D01*
X005515Y010800D02*
X007596Y010800D01*
X007503Y010641D02*
X007247Y010641D01*
X007330Y010483D02*
X007420Y010483D01*
X007876Y010180D02*
X007876Y012806D01*
X008750Y013680D01*
X009500Y013680D01*
X010500Y014680D01*
X010750Y014680D01*
X011000Y014930D01*
X011000Y015430D01*
X011328Y015079D02*
X011672Y015079D01*
X011750Y014921D02*
X011280Y014921D01*
X011228Y014762D02*
X011750Y014762D01*
X011750Y014604D02*
X011070Y014604D01*
X011159Y014693D02*
X011159Y014693D01*
X010911Y014445D02*
X011750Y014445D01*
X011750Y014287D02*
X010503Y014287D01*
X010344Y014128D02*
X011750Y014128D01*
X011750Y013970D02*
X010186Y013970D01*
X010027Y013811D02*
X011750Y013811D01*
X011750Y013653D02*
X009869Y013653D01*
X009710Y013494D02*
X011750Y013494D01*
X011750Y013336D02*
X008801Y013336D01*
X008643Y013177D02*
X011750Y013177D01*
X011750Y013019D02*
X008484Y013019D01*
X008326Y012860D02*
X011750Y012860D01*
X011750Y012702D02*
X008167Y012702D01*
X008156Y012543D02*
X008242Y012543D01*
X008658Y012543D02*
X011750Y012543D01*
X011750Y012385D02*
X008791Y012385D01*
X008897Y012226D02*
X011750Y012226D01*
X011750Y012068D02*
X009055Y012068D01*
X009214Y011909D02*
X011750Y011909D01*
X011750Y011751D02*
X009372Y011751D01*
X009531Y011592D02*
X011750Y011592D01*
X011750Y011434D02*
X009665Y011434D01*
X009696Y011275D02*
X011750Y011275D01*
X011768Y011117D02*
X009696Y011117D01*
X009696Y010958D02*
X011898Y010958D01*
X012057Y010800D02*
X009696Y010800D01*
X009696Y010641D02*
X012215Y010641D01*
X012374Y010483D02*
X009696Y010483D01*
X009696Y010324D02*
X012532Y010324D01*
X012691Y010166D02*
X009696Y010166D01*
X009696Y010007D02*
X012849Y010007D01*
X013008Y009849D02*
X009696Y009849D01*
X009696Y009690D02*
X013166Y009690D01*
X013325Y009532D02*
X009696Y009532D01*
X009696Y009373D02*
X013483Y009373D01*
X013642Y009215D02*
X009696Y009215D01*
X009696Y009056D02*
X013800Y009056D01*
X013959Y008898D02*
X009696Y008898D01*
X009696Y008739D02*
X014117Y008739D01*
X014276Y008581D02*
X009696Y008581D01*
X009696Y008422D02*
X014434Y008422D01*
X014593Y008264D02*
X009696Y008264D01*
X009696Y008105D02*
X014751Y008105D01*
X014910Y007947D02*
X009696Y007947D01*
X009696Y007788D02*
X015068Y007788D01*
X015227Y007630D02*
X009696Y007630D01*
X009696Y007471D02*
X015385Y007471D01*
X015544Y007313D02*
X009696Y007313D01*
X009696Y007154D02*
X014902Y007154D01*
X014887Y006996D02*
X009696Y006996D01*
X009696Y006837D02*
X014887Y006837D01*
X014887Y006638D02*
X014887Y006288D01*
X014899Y006242D01*
X014923Y006201D01*
X014956Y006168D01*
X014997Y006144D01*
X015043Y006132D01*
X015285Y006132D01*
X015285Y006638D01*
X014887Y006638D01*
X014887Y006520D02*
X009696Y006520D01*
X009696Y006362D02*
X014887Y006362D01*
X014922Y006203D02*
X009696Y006203D01*
X009696Y006045D02*
X013202Y006045D01*
X013190Y005886D02*
X010462Y005886D01*
X010449Y005893D02*
X010404Y005905D01*
X010172Y005905D01*
X010172Y005478D01*
X010560Y005478D01*
X010560Y005749D01*
X010548Y005795D01*
X010524Y005836D01*
X010490Y005869D01*
X010449Y005893D01*
X010560Y005728D02*
X013578Y005728D01*
X013626Y005680D02*
X014392Y006696D01*
X015343Y006696D01*
X015285Y006679D02*
X009696Y006679D01*
X009056Y006679D02*
X007395Y006679D01*
X007539Y006837D02*
X009056Y006837D01*
X009056Y006996D02*
X007683Y006996D01*
X007215Y007313D02*
X003780Y007313D01*
X003780Y007154D02*
X007071Y007154D01*
X006927Y006996D02*
X003780Y006996D01*
X003790Y006837D02*
X004261Y006837D01*
X004095Y006679D02*
X003934Y006679D01*
X004000Y006520D02*
X004030Y006520D01*
X004023Y006362D02*
X004000Y006362D01*
X003951Y006203D02*
X004072Y006203D01*
X004200Y006045D02*
X003832Y006045D01*
X003598Y005728D02*
X008920Y005728D01*
X008920Y005569D02*
X003745Y005569D01*
X003780Y005411D02*
X008920Y005411D01*
X008920Y005252D02*
X003780Y005252D01*
X003780Y005094D02*
X008920Y005094D01*
X009037Y004935D02*
X009126Y004935D01*
X009126Y004618D02*
X003780Y004618D01*
X003780Y004460D02*
X009227Y004460D01*
X008838Y004301D02*
X007315Y004301D01*
X007269Y004320D02*
X006931Y004320D01*
X006619Y004191D01*
X006379Y003951D01*
X006250Y003639D01*
X006250Y003301D01*
X006379Y002989D01*
X006619Y002749D01*
X006931Y002620D01*
X007269Y002620D01*
X007581Y002749D01*
X007821Y002989D01*
X007950Y003301D01*
X007950Y003639D01*
X007821Y003951D01*
X007581Y004191D01*
X007269Y004320D01*
X006885Y004301D02*
X003780Y004301D01*
X003780Y004143D02*
X006570Y004143D01*
X006412Y003984D02*
X003780Y003984D01*
X003780Y003826D02*
X006327Y003826D01*
X006262Y003667D02*
X003780Y003667D01*
X003780Y003509D02*
X006250Y003509D01*
X006250Y003350D02*
X003780Y003350D01*
X003780Y003192D02*
X006295Y003192D01*
X006361Y003033D02*
X003780Y003033D01*
X003780Y002875D02*
X006493Y002875D01*
X006699Y002716D02*
X003780Y002716D01*
X003780Y002558D02*
X009429Y002558D01*
X009270Y002716D02*
X007501Y002716D01*
X007707Y002875D02*
X009112Y002875D01*
X008884Y003033D02*
X007839Y003033D01*
X007905Y003192D02*
X008792Y003192D01*
X008792Y003350D02*
X007950Y003350D01*
X007950Y003509D02*
X008793Y003509D01*
X008839Y003826D02*
X007873Y003826D01*
X007938Y003667D02*
X009460Y003667D01*
X009661Y003033D02*
X009907Y003033D01*
X009819Y002875D02*
X010706Y002875D01*
X010706Y003033D02*
X010596Y003033D01*
X010688Y003192D02*
X010706Y003192D01*
X010688Y003350D02*
X010727Y003350D01*
X010819Y003436D02*
X010819Y003436D01*
X010726Y003509D02*
X010687Y003509D01*
X010668Y003667D02*
X010706Y003667D01*
X010668Y003690D02*
X010252Y003690D01*
X010668Y003690D01*
X010667Y003826D02*
X010706Y003826D01*
X010706Y003984D02*
X010688Y003984D01*
X010688Y004143D02*
X010758Y004143D01*
X010642Y004301D02*
X011101Y004301D01*
X011259Y004460D02*
X009934Y004460D01*
X009776Y004618D02*
X014524Y004618D01*
X014601Y005094D02*
X010555Y005094D01*
X010560Y005252D02*
X013248Y005252D01*
X013260Y005241D02*
X013301Y005217D01*
X013346Y005205D01*
X013578Y005205D01*
X013578Y005632D01*
X013190Y005632D01*
X013190Y005361D01*
X013202Y005315D01*
X013226Y005274D01*
X013260Y005241D01*
X013190Y005411D02*
X010172Y005411D01*
X010172Y005569D02*
X010076Y005569D01*
X010076Y005728D02*
X010172Y005728D01*
X010172Y005886D02*
X010076Y005886D01*
X009787Y005886D02*
X009754Y005886D01*
X010076Y005252D02*
X010172Y005252D01*
X010172Y005094D02*
X010076Y005094D01*
X010560Y005569D02*
X013190Y005569D01*
X013578Y005569D02*
X013674Y005569D01*
X013674Y005411D02*
X013578Y005411D01*
X013578Y005252D02*
X013674Y005252D01*
X013674Y005886D02*
X013578Y005886D01*
X013578Y006045D02*
X013674Y006045D01*
X014374Y005680D02*
X015250Y005680D01*
X016250Y004680D01*
X016250Y003680D01*
X016000Y003430D01*
X015750Y003430D01*
X015067Y003430D01*
X015000Y003497D01*
X015476Y003826D02*
X015970Y003826D01*
X015970Y003984D02*
X015476Y003984D01*
X015476Y004143D02*
X015970Y004143D01*
X015970Y004301D02*
X015476Y004301D01*
X015476Y004460D02*
X015970Y004460D01*
X015916Y004618D02*
X015476Y004618D01*
X015476Y004777D02*
X015758Y004777D01*
X015599Y004935D02*
X015476Y004935D01*
X015441Y005094D02*
X015399Y005094D01*
X015282Y005252D02*
X014780Y005252D01*
X015440Y005886D02*
X015730Y005886D01*
X015730Y005728D02*
X015598Y005728D01*
X015730Y006045D02*
X014830Y006045D01*
X015285Y006203D02*
X015400Y006203D01*
X015400Y006362D02*
X015285Y006362D01*
X015285Y006520D02*
X015400Y006520D01*
X015400Y006837D02*
X015285Y006837D01*
X015285Y006996D02*
X015400Y006996D01*
X015400Y007154D02*
X015285Y007154D01*
X014650Y007570D02*
X014650Y006710D01*
X014650Y007570D02*
X014640Y007580D01*
X015300Y008264D02*
X019685Y008264D01*
X019685Y008422D02*
X015142Y008422D01*
X014983Y008581D02*
X019685Y008581D01*
X019685Y008739D02*
X014825Y008739D01*
X014666Y008898D02*
X019685Y008898D01*
X019685Y009056D02*
X014508Y009056D01*
X014349Y009215D02*
X019685Y009215D01*
X019685Y009373D02*
X014191Y009373D01*
X014032Y009532D02*
X019685Y009532D01*
X019685Y009690D02*
X013874Y009690D01*
X013715Y009849D02*
X019685Y009849D01*
X019685Y010007D02*
X013557Y010007D01*
X013398Y010166D02*
X019685Y010166D01*
X019685Y010324D02*
X013240Y010324D01*
X013081Y010483D02*
X019685Y010483D01*
X019685Y010641D02*
X012923Y010641D01*
X012764Y010800D02*
X019685Y010800D01*
X019685Y010958D02*
X012606Y010958D01*
X012447Y011117D02*
X019685Y011117D01*
X019685Y011275D02*
X012289Y011275D01*
X012250Y011434D02*
X019685Y011434D01*
X019685Y011592D02*
X012250Y011592D01*
X012250Y011751D02*
X019685Y011751D01*
X019685Y011909D02*
X012250Y011909D01*
X012250Y012068D02*
X019685Y012068D01*
X019685Y012226D02*
X016504Y012226D01*
X016188Y012616D02*
X016124Y012680D01*
X016188Y012616D02*
X016976Y012616D01*
X017333Y012543D02*
X017387Y012543D01*
X017387Y012616D02*
X017724Y012616D01*
X018061Y012616D01*
X018061Y012817D01*
X018049Y012863D01*
X018026Y012904D01*
X017992Y012938D01*
X017951Y012961D01*
X017905Y012973D01*
X017724Y012973D01*
X017543Y012973D01*
X017497Y012961D01*
X017456Y012938D01*
X017422Y012904D01*
X017399Y012863D01*
X017387Y012817D01*
X017387Y012616D01*
X017387Y012702D02*
X017333Y012702D01*
X017333Y012860D02*
X017398Y012860D01*
X017701Y013177D02*
X019685Y013177D01*
X019685Y013019D02*
X016580Y013019D01*
X016999Y013177D02*
X015149Y013177D01*
X014990Y013336D02*
X016993Y013336D01*
X016993Y013494D02*
X014832Y013494D01*
X014673Y013653D02*
X016993Y013653D01*
X017070Y013811D02*
X014515Y013811D01*
X014356Y013970D02*
X017070Y013970D01*
X017070Y014128D02*
X014198Y014128D01*
X014039Y014287D02*
X017070Y014287D01*
X016928Y014445D02*
X013881Y014445D01*
X013722Y014604D02*
X016778Y014604D01*
X016712Y014762D02*
X013564Y014762D01*
X013089Y014445D02*
X012250Y014445D01*
X012250Y014287D02*
X013247Y014287D01*
X013406Y014128D02*
X012250Y014128D01*
X012250Y013970D02*
X013564Y013970D01*
X013723Y013811D02*
X012250Y013811D01*
X012250Y013653D02*
X013881Y013653D01*
X014040Y013494D02*
X012250Y013494D01*
X012250Y013336D02*
X014199Y013336D01*
X014357Y013177D02*
X012250Y013177D01*
X012250Y013019D02*
X014516Y013019D01*
X014674Y012860D02*
X012250Y012860D01*
X012250Y012702D02*
X014833Y012702D01*
X014920Y012543D02*
X012250Y012543D01*
X012250Y012385D02*
X014920Y012385D01*
X014996Y012226D02*
X012250Y012226D01*
X012250Y014604D02*
X012930Y014604D01*
X012772Y014762D02*
X012250Y014762D01*
X012250Y014921D02*
X012720Y014921D01*
X012672Y015079D02*
X012328Y015079D01*
X012480Y015238D02*
X012520Y015238D01*
X012520Y015396D02*
X012480Y015396D01*
X012480Y015555D02*
X012520Y015555D01*
X012604Y015713D02*
X012396Y015713D01*
X012237Y015872D02*
X012763Y015872D01*
X012721Y016030D02*
X012279Y016030D01*
X012437Y016189D02*
X012563Y016189D01*
X012520Y016347D02*
X012480Y016347D01*
X012480Y016506D02*
X012520Y016506D01*
X012555Y016664D02*
X012445Y016664D01*
X011721Y016030D02*
X011279Y016030D01*
X011237Y015872D02*
X011763Y015872D01*
X011604Y015713D02*
X011396Y015713D01*
X011480Y015555D02*
X011520Y015555D01*
X011520Y015396D02*
X011480Y015396D01*
X011480Y015238D02*
X011520Y015238D01*
X011563Y016189D02*
X011437Y016189D01*
X011480Y016347D02*
X011520Y016347D01*
X011520Y016506D02*
X011480Y016506D01*
X011445Y016664D02*
X011555Y016664D01*
X010720Y016981D02*
X000500Y016981D01*
X000500Y016823D02*
X007714Y016823D01*
X007555Y016664D02*
X000500Y016664D01*
X000500Y016506D02*
X007520Y016506D01*
X007520Y016347D02*
X000500Y016347D01*
X000500Y016189D02*
X007563Y016189D01*
X007721Y016030D02*
X000500Y016030D01*
X000500Y015872D02*
X007763Y015872D01*
X007604Y015713D02*
X000500Y015713D01*
X000500Y015555D02*
X007520Y015555D01*
X007520Y015396D02*
X000500Y015396D01*
X000500Y015238D02*
X007520Y015238D01*
X007672Y015079D02*
X000500Y015079D01*
X000500Y014921D02*
X007720Y014921D01*
X007686Y014762D02*
X000500Y014762D01*
X000500Y014604D02*
X007528Y014604D01*
X007369Y014445D02*
X000500Y014445D01*
X000500Y014287D02*
X007211Y014287D01*
X007052Y014128D02*
X000500Y014128D01*
X000500Y013970D02*
X006894Y013970D01*
X006735Y013811D02*
X000500Y013811D01*
X000500Y013653D02*
X006577Y013653D01*
X006418Y013494D02*
X000500Y013494D01*
X000500Y013336D02*
X006260Y013336D01*
X006101Y013177D02*
X000500Y013177D01*
X000500Y013019D02*
X005943Y013019D01*
X005784Y012860D02*
X000500Y012860D01*
X000500Y012702D02*
X005626Y012702D01*
X005467Y012543D02*
X000500Y012543D01*
X000500Y012385D02*
X005309Y012385D01*
X005150Y012226D02*
X000500Y012226D01*
X000500Y012068D02*
X004992Y012068D01*
X004833Y011909D02*
X000500Y011909D01*
X000500Y011751D02*
X004675Y011751D01*
X004516Y011592D02*
X000500Y011592D01*
X000500Y011434D02*
X003880Y011434D01*
X003699Y011275D02*
X000500Y011275D01*
X000500Y011117D02*
X003541Y011117D01*
X003382Y010958D02*
X000500Y010958D01*
X000500Y010800D02*
X003246Y010800D01*
X003220Y010641D02*
X000500Y010641D01*
X000500Y010483D02*
X003220Y010483D01*
X003220Y010324D02*
X000500Y010324D01*
X000500Y010166D02*
X003220Y010166D01*
X003220Y010007D02*
X000500Y010007D01*
X000500Y009849D02*
X003220Y009849D01*
X003220Y009690D02*
X000500Y009690D01*
X000500Y009532D02*
X003220Y009532D01*
X003220Y009373D02*
X000500Y009373D01*
X000500Y009215D02*
X003220Y009215D01*
X003220Y009056D02*
X000500Y009056D01*
X000500Y008898D02*
X003220Y008898D01*
X003220Y008739D02*
X000500Y008739D01*
X000500Y008581D02*
X003220Y008581D01*
X003096Y008422D02*
X000500Y008422D01*
X000500Y008264D02*
X002938Y008264D01*
X002779Y008105D02*
X000500Y008105D01*
X000500Y007947D02*
X002621Y007947D01*
X002492Y007788D02*
X000500Y007788D01*
X000500Y007630D02*
X002470Y007630D01*
X002470Y007471D02*
X000500Y007471D01*
X000500Y007313D02*
X002470Y007313D01*
X002470Y007154D02*
X000500Y007154D01*
X000500Y006996D02*
X002470Y006996D01*
X002470Y006837D02*
X000500Y006837D01*
X000500Y006679D02*
X002470Y006679D01*
X002470Y006520D02*
X000500Y006520D01*
X000500Y006362D02*
X002470Y006362D01*
X002470Y006203D02*
X000500Y006203D01*
X000500Y006045D02*
X002503Y006045D01*
X002648Y005886D02*
X000500Y005886D01*
X000500Y005728D02*
X002807Y005728D01*
X002965Y005569D02*
X000500Y005569D01*
X000500Y005411D02*
X003124Y005411D01*
X003220Y005252D02*
X000500Y005252D01*
X000500Y005094D02*
X003220Y005094D01*
X003220Y004935D02*
X000500Y004935D01*
X000500Y004777D02*
X003220Y004777D01*
X003220Y004618D02*
X000500Y004618D01*
X000500Y004460D02*
X003220Y004460D01*
X003220Y004301D02*
X002115Y004301D01*
X002069Y004320D02*
X001731Y004320D01*
X001419Y004191D01*
X001179Y003951D01*
X001050Y003639D01*
X001050Y003301D01*
X001179Y002989D01*
X001419Y002749D01*
X001731Y002620D01*
X002069Y002620D01*
X002381Y002749D01*
X002621Y002989D01*
X002750Y003301D01*
X002750Y003639D01*
X002621Y003951D01*
X002381Y004191D01*
X002069Y004320D01*
X001685Y004301D02*
X000500Y004301D01*
X000500Y004143D02*
X001370Y004143D01*
X001212Y003984D02*
X000500Y003984D01*
X000500Y003826D02*
X001127Y003826D01*
X001062Y003667D02*
X000500Y003667D01*
X000500Y003509D02*
X001050Y003509D01*
X001050Y003350D02*
X000500Y003350D01*
X000500Y003192D02*
X001095Y003192D01*
X001161Y003033D02*
X000500Y003033D01*
X000500Y002875D02*
X001293Y002875D01*
X001499Y002716D02*
X000500Y002716D01*
X000500Y002558D02*
X003220Y002558D01*
X003220Y002716D02*
X002301Y002716D01*
X002507Y002875D02*
X003220Y002875D01*
X003220Y003033D02*
X002639Y003033D01*
X002705Y003192D02*
X003220Y003192D01*
X003220Y003350D02*
X002750Y003350D01*
X002750Y003509D02*
X003220Y003509D01*
X003220Y003667D02*
X002738Y003667D01*
X002673Y003826D02*
X003220Y003826D01*
X003220Y003984D02*
X002588Y003984D01*
X002430Y004143D02*
X003220Y004143D01*
X003440Y005886D02*
X008998Y005886D01*
X009056Y006045D02*
X005832Y006045D01*
X005790Y006837D02*
X006783Y006837D01*
X007251Y006520D02*
X009056Y006520D01*
X009056Y006362D02*
X007107Y006362D01*
X006957Y006203D02*
X009056Y006203D01*
X009056Y007154D02*
X008265Y007154D01*
X008456Y007313D02*
X009056Y007313D01*
X009056Y007471D02*
X008551Y007471D01*
X008646Y007630D02*
X009056Y007630D01*
X009056Y007788D02*
X008744Y007788D01*
X008975Y007947D02*
X009056Y007947D01*
X008183Y007947D02*
X006477Y007947D01*
X006826Y008105D02*
X006922Y008105D01*
X006922Y008264D02*
X006826Y008264D01*
X007310Y008264D02*
X007440Y008264D01*
X007440Y008382D02*
X007440Y008111D01*
X007452Y008065D01*
X007476Y008024D01*
X007510Y007991D01*
X007551Y007967D01*
X007596Y007955D01*
X007828Y007955D01*
X007828Y008382D01*
X007440Y008382D01*
X007440Y008581D02*
X007310Y008581D01*
X007310Y008739D02*
X007440Y008739D01*
X007567Y008898D02*
X007183Y008898D01*
X006922Y008898D02*
X006826Y008898D01*
X006750Y008930D02*
X006126Y009554D01*
X006126Y010180D01*
X006078Y010166D02*
X005580Y010166D01*
X005690Y010132D02*
X005690Y009861D01*
X005702Y009815D01*
X005726Y009774D01*
X005760Y009741D01*
X005801Y009717D01*
X005846Y009705D01*
X006078Y009705D01*
X006078Y010132D01*
X005690Y010132D01*
X005690Y010007D02*
X005580Y010007D01*
X005580Y009849D02*
X005693Y009849D01*
X005636Y009690D02*
X006530Y009690D01*
X006174Y009849D02*
X006078Y009849D01*
X006078Y010007D02*
X006174Y010007D01*
X006174Y010324D02*
X006078Y010324D01*
X006078Y010483D02*
X006174Y010483D01*
X006174Y010641D02*
X006078Y010641D01*
X005797Y010641D02*
X005497Y010641D01*
X005580Y010483D02*
X005690Y010483D01*
X005690Y010324D02*
X005580Y010324D01*
X005124Y010804D02*
X008750Y014430D01*
X009500Y014430D01*
X010000Y014930D01*
X009587Y014163D02*
X009384Y013960D01*
X008694Y013960D01*
X008663Y013947D01*
X008866Y014150D01*
X009556Y014150D01*
X009587Y014163D01*
X009552Y014128D02*
X008844Y014128D01*
X008685Y013970D02*
X009394Y013970D01*
X007596Y012860D02*
X007576Y012860D01*
X007596Y012702D02*
X007417Y012702D01*
X007259Y012543D02*
X007596Y012543D01*
X007596Y012385D02*
X007100Y012385D01*
X006942Y012226D02*
X007596Y012226D01*
X007596Y012068D02*
X006783Y012068D01*
X006501Y010641D02*
X006455Y010641D01*
X006874Y010180D02*
X007876Y010180D01*
X007420Y009849D02*
X007330Y009849D01*
X007218Y009690D02*
X007532Y009690D01*
X008220Y009690D02*
X008280Y009690D01*
X008344Y009532D02*
X005794Y009532D01*
X005953Y009373D02*
X008344Y009373D01*
X008344Y009215D02*
X006111Y009215D01*
X006251Y009056D02*
X008344Y009056D01*
X008258Y008898D02*
X008185Y008898D01*
X007924Y008898D02*
X007828Y008898D01*
X007828Y008739D02*
X007924Y008739D01*
X007924Y008581D02*
X007828Y008581D01*
X007828Y008264D02*
X007924Y008264D01*
X007924Y008105D02*
X007828Y008105D01*
X007442Y008105D02*
X007308Y008105D01*
X007503Y007630D02*
X004095Y007630D01*
X003937Y007471D02*
X007359Y007471D01*
X008088Y007788D02*
X004254Y007788D01*
X004727Y007947D02*
X005775Y007947D01*
X005670Y008105D02*
X005558Y008105D01*
X005560Y008264D02*
X005670Y008264D01*
X005670Y008422D02*
X005172Y008422D01*
X005172Y008478D02*
X005560Y008478D01*
X005560Y008749D01*
X005548Y008795D01*
X005524Y008836D01*
X005490Y008869D01*
X005449Y008893D01*
X005404Y008905D01*
X005172Y008905D01*
X005172Y008478D01*
X005172Y008581D02*
X005076Y008581D01*
X005076Y008739D02*
X005172Y008739D01*
X005172Y008898D02*
X005076Y008898D01*
X005433Y008898D02*
X005637Y008898D01*
X005670Y008739D02*
X005560Y008739D01*
X005560Y008581D02*
X005670Y008581D01*
X005478Y009056D02*
X004656Y009056D01*
X004656Y009215D02*
X005320Y009215D01*
X005161Y009373D02*
X004656Y009373D01*
X004656Y009532D02*
X005003Y009532D01*
X004780Y009690D02*
X004720Y009690D01*
X004742Y008898D02*
X004815Y008898D01*
X005076Y008264D02*
X005172Y008264D01*
X005172Y008105D02*
X005076Y008105D01*
X004520Y006520D02*
X004480Y006520D01*
X004480Y006362D02*
X004520Y006362D01*
X004520Y006203D02*
X004480Y006203D01*
X004480Y006045D02*
X004520Y006045D01*
X007630Y004143D02*
X008792Y004143D01*
X008792Y003984D02*
X007788Y003984D01*
X009587Y002399D02*
X003780Y002399D01*
X003780Y002241D02*
X009746Y002241D01*
X009978Y002716D02*
X010391Y002716D01*
X010458Y002082D02*
X003780Y002082D01*
X003780Y001924D02*
X014524Y001924D01*
X014524Y001765D02*
X003780Y001765D01*
X003780Y001607D02*
X014524Y001607D01*
X014524Y001448D02*
X003780Y001448D01*
X003780Y001290D02*
X014524Y001290D01*
X014524Y001131D02*
X005751Y001131D01*
X005520Y001131D02*
X005480Y001131D01*
X005480Y000973D02*
X005520Y000973D01*
X005480Y000740D02*
X005480Y000700D01*
X005020Y000700D01*
X005020Y000682D01*
X005032Y000608D01*
X005055Y000536D01*
X005089Y000468D01*
X005024Y000656D02*
X004000Y000656D01*
X004000Y000814D02*
X005029Y000814D01*
X005090Y000973D02*
X003937Y000973D01*
X003796Y001131D02*
X005249Y001131D01*
X003220Y001290D02*
X000500Y001290D01*
X000500Y001448D02*
X003220Y001448D01*
X003220Y001607D02*
X000500Y001607D01*
X000500Y001765D02*
X003220Y001765D01*
X003220Y001924D02*
X000500Y001924D01*
X000500Y002082D02*
X003220Y002082D01*
X003220Y002241D02*
X000500Y002241D01*
X000500Y002399D02*
X003220Y002399D01*
X003204Y001131D02*
X000500Y001131D01*
X000500Y000973D02*
X003063Y000973D01*
X003000Y000814D02*
X000500Y000814D01*
X000500Y000656D02*
X003000Y000656D01*
X003051Y000497D02*
X000500Y000497D01*
X008963Y008925D02*
X009056Y008832D01*
X009056Y009778D01*
X008963Y009685D01*
X008904Y009685D01*
X008904Y008925D01*
X008963Y008925D01*
X008991Y008898D02*
X009056Y008898D01*
X009056Y009056D02*
X008904Y009056D01*
X008904Y009215D02*
X009056Y009215D01*
X009056Y009373D02*
X008904Y009373D01*
X008904Y009532D02*
X009056Y009532D01*
X009056Y009690D02*
X008968Y009690D01*
X008251Y010641D02*
X008249Y010641D01*
X013000Y014930D02*
X013000Y015430D01*
X013000Y014930D02*
X015250Y012680D01*
X015376Y012680D01*
X017333Y012385D02*
X017395Y012385D01*
X017724Y012385D02*
X017724Y012385D01*
X017724Y012543D02*
X017724Y012543D01*
X017724Y012616D02*
X017724Y012973D01*
X017724Y012616D01*
X017724Y012616D01*
X017724Y012702D02*
X017724Y012702D01*
X017724Y012860D02*
X017724Y012860D01*
X018050Y012860D02*
X019685Y012860D01*
X019685Y012702D02*
X018061Y012702D01*
X018061Y012543D02*
X019685Y012543D01*
X019685Y012385D02*
X018053Y012385D01*
X017707Y013336D02*
X019685Y013336D01*
X019685Y013494D02*
X017707Y013494D01*
X017707Y013653D02*
X019685Y013653D01*
X019685Y013811D02*
X017630Y013811D01*
X017630Y013970D02*
X019685Y013970D01*
X019685Y014128D02*
X017630Y014128D01*
X017630Y014287D02*
X019685Y014287D01*
X019685Y014445D02*
X017630Y014445D01*
X017722Y014604D02*
X019685Y014604D01*
X019685Y014762D02*
X017788Y014762D01*
X017800Y014921D02*
X019685Y014921D01*
X019685Y015079D02*
X017771Y015079D01*
X017691Y015238D02*
X019685Y015238D01*
X019685Y015396D02*
X017491Y015396D01*
X017009Y015396D02*
X014460Y015396D01*
X014443Y015555D02*
X019685Y015555D01*
X019685Y015713D02*
X014363Y015713D01*
X014130Y015872D02*
X019685Y015872D01*
X019685Y016030D02*
X014279Y016030D01*
X014437Y016189D02*
X019685Y016189D01*
X019685Y016347D02*
X014480Y016347D01*
X014480Y016506D02*
X019685Y016506D01*
X019685Y016664D02*
X014445Y016664D01*
X014286Y016823D02*
X019685Y016823D01*
X019685Y016981D02*
X017532Y016981D01*
X017708Y017140D02*
X019685Y017140D01*
X019685Y017298D02*
X017778Y017298D01*
X017800Y017457D02*
X019685Y017457D01*
X019685Y017615D02*
X017781Y017615D01*
X017714Y017774D02*
X019685Y017774D01*
X019685Y017932D02*
X017546Y017932D01*
X017250Y017460D02*
X014720Y017460D01*
X014000Y018180D01*
X012750Y019430D01*
X006713Y019430D01*
X006106Y018824D01*
X005569Y019042D02*
X000500Y019042D01*
X000500Y019200D02*
X005662Y019200D01*
X005882Y019359D02*
X000500Y019359D01*
X000500Y019517D02*
X006404Y019517D01*
X007106Y018824D02*
X007106Y018074D01*
X007250Y017930D01*
X007125Y018408D02*
X007088Y018408D01*
X007088Y018566D02*
X007125Y018566D01*
X007125Y018725D02*
X007088Y018725D01*
X006731Y018408D02*
X006510Y018408D01*
X006235Y018249D02*
X007978Y018249D01*
X007702Y018408D02*
X007482Y018408D01*
X007593Y019101D02*
X007614Y019150D01*
X007561Y019150D01*
X007585Y019117D01*
X007593Y019101D01*
X008235Y018249D02*
X008285Y018249D01*
X008443Y018091D02*
X000500Y018091D01*
X000500Y018249D02*
X005978Y018249D01*
X005702Y018408D02*
X000500Y018408D01*
X000500Y018566D02*
X005585Y018566D01*
X005526Y018725D02*
X000500Y018725D01*
X000500Y018883D02*
X005526Y018883D01*
X008602Y017932D02*
X000500Y017932D01*
X000500Y017774D02*
X008760Y017774D01*
X010419Y017615D02*
X000500Y017615D01*
X000500Y017457D02*
X010577Y017457D01*
X010720Y017298D02*
X000500Y017298D01*
X000500Y017140D02*
X010720Y017140D01*
X013059Y019517D02*
X019685Y019517D01*
X019685Y019359D02*
X013217Y019359D01*
X013376Y019200D02*
X019685Y019200D01*
X019685Y019042D02*
X013534Y019042D01*
X013693Y018883D02*
X019685Y018883D01*
X019685Y018725D02*
X013851Y018725D01*
X014010Y018566D02*
X019685Y018566D01*
X019685Y018408D02*
X014168Y018408D01*
X014237Y018339D02*
X014237Y018339D01*
X014327Y018249D02*
X019685Y018249D01*
X019685Y018091D02*
X014485Y018091D01*
X014644Y017932D02*
X016954Y017932D01*
X016786Y017774D02*
X014802Y017774D01*
X014486Y017298D02*
X014280Y017298D01*
X014280Y017140D02*
X016792Y017140D01*
X016968Y016981D02*
X014280Y016981D01*
X014280Y017457D02*
X014327Y017457D01*
X014000Y018180D02*
X014000Y016430D01*
X013990Y015872D02*
X014010Y015872D01*
X014010Y015713D02*
X013990Y015713D01*
X013990Y015555D02*
X014010Y015555D01*
X014418Y015238D02*
X016809Y015238D01*
X017250Y014900D02*
X017350Y014800D01*
X017350Y013443D01*
X015459Y008105D02*
X019685Y008105D01*
X019685Y007947D02*
X015617Y007947D01*
X015776Y007788D02*
X019685Y007788D01*
X019685Y007630D02*
X015934Y007630D01*
X016230Y006837D02*
X018548Y006837D01*
X018570Y006679D02*
X016230Y006679D01*
X016235Y005569D02*
X019124Y005569D01*
X018909Y005411D02*
X016393Y005411D01*
X016552Y005252D02*
X018839Y005252D01*
X018833Y005094D02*
X016710Y005094D01*
X016835Y004935D02*
X018886Y004935D01*
X019023Y004777D02*
X016850Y004777D01*
X016350Y003384D02*
X016350Y002184D01*
X015736Y001570D01*
X015476Y001570D01*
X015476Y001985D01*
X015476Y002418D01*
X015449Y002445D01*
X015449Y002446D01*
X015536Y002359D01*
X015675Y002302D01*
X015825Y002302D01*
X015964Y002359D01*
X016071Y002466D01*
X016128Y002605D01*
X016128Y002755D01*
X016071Y002894D01*
X016000Y002965D01*
X016000Y003150D01*
X016056Y003150D01*
X016159Y003193D01*
X016237Y003271D01*
X016350Y003384D01*
X016350Y003350D02*
X016316Y003350D01*
X016350Y003192D02*
X016156Y003192D01*
X016000Y003033D02*
X016350Y003033D01*
X016350Y002875D02*
X016079Y002875D01*
X016128Y002716D02*
X016350Y002716D01*
X016350Y002558D02*
X016109Y002558D01*
X016004Y002399D02*
X016350Y002399D01*
X016350Y002241D02*
X015476Y002241D01*
X015476Y002399D02*
X015496Y002399D01*
X015476Y002082D02*
X016248Y002082D01*
X016090Y001924D02*
X015476Y001924D01*
X015476Y001765D02*
X015931Y001765D01*
X015773Y001607D02*
X015476Y001607D01*
X016005Y001131D02*
X018552Y001131D01*
X018548Y000973D02*
X015798Y000973D01*
X015798Y000656D02*
X018548Y000656D01*
X018555Y000497D02*
X015792Y000497D01*
X016163Y001290D02*
X019685Y001290D01*
X019685Y001448D02*
X016322Y001448D01*
X015000Y002631D02*
X014544Y002631D01*
X015000Y002631D01*
X015000Y002631D01*
X015476Y002940D02*
X015500Y002965D01*
X015500Y003150D01*
X015476Y003150D01*
X015476Y002940D01*
X015476Y003033D02*
X015500Y003033D01*
X014550Y002814D02*
X014258Y002814D01*
X014258Y002665D01*
X014201Y002526D01*
X014105Y002430D01*
X014536Y002430D01*
X014551Y002445D01*
X014544Y002469D01*
X014544Y002631D01*
X014544Y002792D01*
X014550Y002814D01*
X014544Y002716D02*
X014258Y002716D01*
X014214Y002558D02*
X014544Y002558D01*
X014524Y003314D02*
X014298Y003314D01*
X014298Y003445D01*
X014246Y003572D01*
X014354Y003680D01*
X014524Y003680D01*
X014524Y003314D01*
X014524Y003350D02*
X014298Y003350D01*
X014272Y003509D02*
X014524Y003509D01*
X014524Y003667D02*
X014341Y003667D01*
X013950Y003984D02*
X013774Y003984D01*
X013774Y003948D02*
X013774Y004031D01*
X013761Y004077D01*
X013741Y004113D01*
X014080Y004113D01*
X013896Y003930D01*
X013774Y003930D01*
X013774Y003948D01*
X013681Y003948D01*
X013681Y003948D01*
X013774Y003948D01*
X013024Y003984D02*
X012128Y003984D01*
X012116Y003826D02*
X013004Y003826D01*
X013004Y003667D02*
X012022Y003667D01*
X011682Y003509D02*
X013004Y003509D01*
X013004Y003350D02*
X011476Y003350D01*
X011496Y003192D02*
X013024Y003192D01*
X013024Y003180D02*
X013117Y003180D01*
X013117Y003180D01*
X013117Y003180D01*
X013024Y003180D01*
X013004Y003033D02*
X011496Y003033D01*
X011496Y002875D02*
X013004Y002875D01*
X013004Y002716D02*
X012249Y002716D01*
X012476Y002558D02*
X013004Y002558D01*
X012244Y002082D02*
X012148Y002082D01*
X011852Y002082D02*
X010802Y002082D01*
X011467Y002241D02*
X011669Y002241D01*
X011622Y002399D02*
X011496Y002399D01*
X011496Y002558D02*
X011644Y002558D01*
X011751Y002716D02*
X011496Y002716D01*
X010252Y003690D02*
X010252Y003690D01*
X019493Y001607D02*
X019685Y001607D01*
X019685Y001765D02*
X019665Y001765D01*
X019685Y000481D02*
X019685Y000430D01*
X019656Y000430D01*
X019660Y000434D01*
X019683Y000475D01*
X019685Y000481D01*
X019607Y007471D02*
X019685Y007471D01*
D27*
X009376Y005430D02*
X009376Y011294D01*
X008450Y012220D01*
X004490Y006610D02*
X004490Y001910D01*
X005520Y000880D01*
D28*
X007750Y000930D03*
X008500Y000930D03*
X009250Y000930D03*
X010000Y000930D03*
X010750Y000930D03*
X011500Y000930D03*
X012250Y000930D03*
X013000Y000930D03*
X013750Y000930D03*
X014500Y000930D03*
X015750Y002680D03*
X016750Y001180D03*
X017500Y001930D03*
X017500Y002930D03*
X017500Y004180D03*
X017500Y005430D03*
X017000Y006680D03*
X017000Y007680D03*
X018300Y007870D03*
X016000Y008930D03*
X015000Y009930D03*
X014000Y010930D03*
X013500Y011930D03*
X013500Y012930D03*
X011250Y012180D03*
X011250Y011180D03*
X011250Y010180D03*
X011250Y009180D03*
X011250Y008180D03*
X011250Y007180D03*
X011750Y006180D03*
X011750Y003930D03*
X012000Y002430D03*
X010630Y002420D03*
X013880Y002740D03*
X013920Y003370D03*
X014650Y007570D03*
X008450Y012220D03*
X006250Y014180D03*
X005500Y013430D03*
X004750Y012680D03*
X004000Y011930D03*
X003000Y011430D03*
X002750Y010430D03*
X002750Y009430D03*
X001000Y009430D03*
X001000Y008680D03*
X001000Y007930D03*
X001000Y007180D03*
X001000Y006430D03*
X001000Y005680D03*
X001000Y004930D03*
X000750Y004180D03*
X000750Y003430D03*
X000750Y002680D03*
X001000Y001930D03*
X001000Y001180D03*
X001500Y000680D03*
X002250Y000680D03*
X004500Y005180D03*
X005500Y005180D03*
X006500Y005180D03*
X007500Y005930D03*
X008250Y006680D03*
X001000Y010180D03*
X001000Y010930D03*
X001000Y011680D03*
X001000Y012430D03*
X001000Y013180D03*
X001000Y013930D03*
X001000Y014680D03*
X001000Y015430D03*
X001000Y016180D03*
X001000Y016930D03*
X001000Y017680D03*
X001000Y018430D03*
X003750Y018930D03*
X004500Y018930D03*
X005250Y018930D03*
X007250Y017930D03*
X014250Y019180D03*
X017000Y019180D03*
X017750Y019180D03*
X018500Y019180D03*
X019250Y018930D03*
X019250Y018180D03*
M02*
