G75*
%MOIN*%
%OFA0B0*%
%FSLAX24Y24*%
%IPPOS*%
%LPD*%
%AMOC8*
5,1,8,0,0,1.08239X$1,22.5*
%
%ADD10C,0.0100*%
%ADD11C,0.0020*%
%ADD12C,0.0160*%
%ADD13C,0.0060*%
%ADD14C,0.0000*%
D10*
X000250Y000180D02*
X000250Y019865D01*
X019935Y019865D01*
X019935Y000180D01*
X000250Y000180D01*
D11*
X012020Y012864D02*
X012020Y012974D01*
X012057Y013011D01*
X012203Y013011D01*
X012240Y012974D01*
X012240Y012864D01*
X012020Y012864D01*
X012020Y013085D02*
X012020Y013232D01*
X012130Y013158D02*
X012130Y013085D01*
X012240Y013085D02*
X012020Y013085D01*
X012020Y013379D02*
X012240Y013379D01*
X012240Y013306D02*
X012240Y013453D01*
X012240Y013527D02*
X012020Y013527D01*
X012020Y013674D01*
X012057Y013748D02*
X012020Y013785D01*
X012020Y013858D01*
X012057Y013895D01*
X012203Y013895D02*
X012240Y013858D01*
X012240Y013785D01*
X012203Y013748D01*
X012057Y013748D01*
X012130Y013600D02*
X012130Y013527D01*
X012240Y013527D02*
X012240Y013674D01*
X012240Y013969D02*
X012240Y014116D01*
X012240Y014042D02*
X012020Y014042D01*
X011240Y014042D02*
X011167Y014116D01*
X011020Y014116D01*
X011130Y014116D02*
X011130Y013969D01*
X011167Y013969D02*
X011240Y014042D01*
X011167Y013969D02*
X011020Y013969D01*
X011020Y013895D02*
X011240Y013895D01*
X011240Y013748D02*
X011020Y013748D01*
X011020Y013674D02*
X011020Y013527D01*
X011240Y013527D01*
X011240Y013674D01*
X011240Y013748D02*
X011020Y013895D01*
X011130Y013600D02*
X011130Y013527D01*
X010240Y013527D02*
X010020Y013527D01*
X010020Y013674D01*
X010020Y013748D02*
X010240Y013748D01*
X010020Y013895D01*
X010240Y013895D01*
X010240Y013969D02*
X010240Y014079D01*
X010203Y014116D01*
X010167Y014116D01*
X010130Y014079D01*
X010130Y013969D01*
X010020Y013969D02*
X010240Y013969D01*
X010130Y014079D02*
X010093Y014116D01*
X010057Y014116D01*
X010020Y014079D01*
X010020Y013969D01*
X010240Y013674D02*
X010240Y013527D01*
X010130Y013527D02*
X010130Y013600D01*
X009240Y013601D02*
X009240Y013674D01*
X009240Y013637D02*
X009020Y013637D01*
X009020Y013601D02*
X009020Y013674D01*
X009057Y013748D02*
X009020Y013785D01*
X009020Y013858D01*
X009057Y013895D01*
X009093Y013895D01*
X009130Y013858D01*
X009130Y013785D01*
X009167Y013748D01*
X009203Y013748D01*
X009240Y013785D01*
X009240Y013858D01*
X009203Y013895D01*
X009203Y013969D02*
X009057Y013969D01*
X009020Y014006D01*
X009020Y014079D01*
X009057Y014116D01*
X009203Y014116D01*
X009240Y014079D01*
X009240Y014006D01*
X009203Y013969D01*
X009240Y013526D02*
X009020Y013526D01*
X009020Y013380D02*
X009240Y013380D01*
X009167Y013453D01*
X009240Y013526D01*
X008240Y013535D02*
X008203Y013498D01*
X008167Y013498D01*
X008130Y013535D01*
X008130Y013608D01*
X008093Y013645D01*
X008057Y013645D01*
X008020Y013608D01*
X008020Y013535D01*
X008057Y013498D01*
X008240Y013535D02*
X008240Y013608D01*
X008203Y013645D01*
X008240Y013719D02*
X008020Y013719D01*
X008093Y013792D01*
X008020Y013866D01*
X008240Y013866D01*
X009057Y017748D02*
X009020Y017785D01*
X009020Y017858D01*
X009057Y017895D01*
X009093Y017895D01*
X009130Y017858D01*
X009130Y017785D01*
X009167Y017748D01*
X009203Y017748D01*
X009240Y017785D01*
X009240Y017858D01*
X009203Y017895D01*
X009203Y017969D02*
X009167Y017969D01*
X009130Y018006D01*
X009130Y018079D01*
X009093Y018116D01*
X009057Y018116D01*
X009020Y018079D01*
X009020Y018006D01*
X009057Y017969D01*
X009203Y017969D02*
X009240Y018006D01*
X009240Y018079D01*
X009203Y018116D01*
X010020Y018137D02*
X010020Y018211D01*
X010057Y018247D01*
X010203Y018247D01*
X010240Y018211D01*
X010240Y018137D01*
X010203Y018101D01*
X010057Y018101D01*
X010020Y018137D01*
X010020Y018026D02*
X010240Y018026D01*
X010167Y017953D01*
X010240Y017880D01*
X010020Y017880D01*
X010057Y018322D02*
X010020Y018358D01*
X010020Y018432D01*
X010057Y018468D01*
X010093Y018468D01*
X010130Y018432D01*
X010130Y018358D01*
X010167Y018322D01*
X010203Y018322D01*
X010240Y018358D01*
X010240Y018432D01*
X010203Y018468D01*
X010240Y018543D02*
X010240Y018616D01*
X010240Y018579D02*
X010020Y018579D01*
X010020Y018543D02*
X010020Y018616D01*
X011020Y018366D02*
X011020Y018219D01*
X011240Y018219D01*
X011203Y018145D02*
X011240Y018108D01*
X011240Y018035D01*
X011203Y017998D01*
X011057Y017998D01*
X011020Y018035D01*
X011020Y018108D01*
X011057Y018145D01*
X011057Y017924D02*
X011020Y017887D01*
X011020Y017814D01*
X011057Y017777D01*
X011130Y017814D02*
X011167Y017777D01*
X011203Y017777D01*
X011240Y017814D01*
X011240Y017887D01*
X011203Y017924D01*
X011130Y017887D02*
X011093Y017924D01*
X011057Y017924D01*
X011130Y017887D02*
X011130Y017814D01*
X012020Y017814D02*
X012057Y017777D01*
X012020Y017814D02*
X012020Y017887D01*
X012057Y017924D01*
X012093Y017924D01*
X012130Y017887D01*
X012130Y017814D01*
X012167Y017777D01*
X012203Y017777D01*
X012240Y017814D01*
X012240Y017887D01*
X012203Y017924D01*
X012240Y017998D02*
X012240Y018108D01*
X012203Y018145D01*
X012057Y018145D01*
X012020Y018108D01*
X012020Y017998D01*
X012240Y017998D01*
X012167Y018219D02*
X012020Y018219D01*
X012130Y018219D02*
X012130Y018366D01*
X012167Y018366D02*
X012020Y018366D01*
X012167Y018366D02*
X012240Y018292D01*
X012167Y018219D01*
X013020Y018219D02*
X013240Y018219D01*
X013203Y018145D02*
X013240Y018108D01*
X013240Y018035D01*
X013203Y017998D01*
X013057Y017998D01*
X013020Y018035D01*
X013020Y018108D01*
X013057Y018145D01*
X013093Y018219D02*
X013240Y018366D01*
X013130Y018256D02*
X013020Y018366D01*
X013057Y017924D02*
X013020Y017887D01*
X013020Y017814D01*
X013057Y017777D01*
X013130Y017814D02*
X013130Y017887D01*
X013093Y017924D01*
X013057Y017924D01*
X013130Y017814D02*
X013167Y017777D01*
X013203Y017777D01*
X013240Y017814D01*
X013240Y017887D01*
X013203Y017924D01*
X014020Y017850D02*
X014093Y017777D01*
X014240Y017777D01*
X014240Y017924D02*
X014093Y017924D01*
X014020Y017850D01*
X014057Y017998D02*
X014020Y018035D01*
X014020Y018108D01*
X014057Y018145D01*
X014057Y018219D02*
X014020Y018256D01*
X014020Y018329D01*
X014057Y018366D01*
X014203Y018366D02*
X014240Y018329D01*
X014240Y018256D01*
X014203Y018219D01*
X014057Y018219D01*
X014203Y018145D02*
X014240Y018108D01*
X014240Y018035D01*
X014203Y017998D01*
X014057Y017998D01*
X014057Y014116D02*
X014203Y014116D01*
X014240Y014079D01*
X014240Y013969D01*
X014020Y013969D01*
X014020Y014079D01*
X014057Y014116D01*
X014020Y013895D02*
X014240Y013895D01*
X014240Y013748D02*
X014020Y013748D01*
X014057Y013674D02*
X014130Y013674D01*
X014130Y013600D01*
X014057Y013527D02*
X014020Y013564D01*
X014020Y013637D01*
X014057Y013674D01*
X014203Y013674D02*
X014240Y013637D01*
X014240Y013564D01*
X014203Y013527D01*
X014057Y013527D01*
X014240Y013748D02*
X014020Y013895D01*
X013240Y013895D02*
X013240Y013748D01*
X013240Y013674D02*
X013057Y013674D01*
X013020Y013637D01*
X013020Y013564D01*
X013057Y013527D01*
X013240Y013527D01*
X013203Y013453D02*
X013167Y013453D01*
X013130Y013416D01*
X013130Y013306D01*
X013020Y013306D02*
X013240Y013306D01*
X013240Y013416D01*
X013203Y013453D01*
X013130Y013416D02*
X013093Y013453D01*
X013057Y013453D01*
X013020Y013416D01*
X013020Y013306D01*
X013020Y013748D02*
X013020Y013895D01*
X013020Y013969D02*
X013020Y014116D01*
X013020Y013969D02*
X013057Y013969D01*
X013203Y014116D01*
X013240Y014116D01*
X013240Y013969D01*
X013240Y013895D02*
X013203Y013895D01*
X013057Y013748D01*
X013020Y013748D01*
X012240Y013232D02*
X012240Y013085D01*
D12*
X012000Y014430D02*
X012000Y014930D01*
X011000Y014930D02*
X011000Y014430D01*
X010000Y014430D02*
X010000Y014930D01*
X009000Y014930D02*
X009000Y014430D01*
X008000Y014180D02*
X008000Y014930D01*
X009000Y016930D02*
X009000Y017430D01*
X010000Y017680D02*
X010000Y016930D01*
X011000Y016930D02*
X011000Y017430D01*
X012000Y017430D02*
X012000Y016930D01*
X013000Y016930D02*
X013000Y017430D01*
X014000Y017430D02*
X014000Y016930D01*
X014000Y014930D02*
X014000Y014430D01*
X013000Y014430D02*
X013000Y014930D01*
D13*
X015682Y012457D02*
X015682Y012351D01*
X015682Y012137D02*
X015682Y011710D01*
X015788Y011710D02*
X015575Y011710D01*
X015359Y011817D02*
X015252Y011710D01*
X014932Y011710D01*
X014932Y011603D02*
X014932Y012137D01*
X015252Y012137D01*
X015359Y012030D01*
X015359Y011817D01*
X015145Y011496D02*
X015038Y011496D01*
X014932Y011603D01*
X014714Y011817D02*
X014607Y011710D01*
X014287Y011710D01*
X014287Y011603D02*
X014287Y012137D01*
X014607Y012137D01*
X014714Y012030D01*
X014714Y011817D01*
X014501Y011496D02*
X014394Y011496D01*
X014287Y011603D01*
X014070Y011817D02*
X014070Y012030D01*
X013963Y012137D01*
X013749Y012137D01*
X013642Y012030D01*
X013642Y011924D01*
X014070Y011924D01*
X014070Y011817D02*
X013963Y011710D01*
X013749Y011710D01*
X013425Y011710D02*
X013425Y012137D01*
X013425Y011924D02*
X013211Y012137D01*
X013105Y012137D01*
X012888Y012137D02*
X012888Y011710D01*
X012888Y011924D02*
X012674Y012137D01*
X012568Y012137D01*
X011706Y012030D02*
X011279Y012030D01*
X010417Y012137D02*
X010310Y012030D01*
X010097Y012030D01*
X009990Y011924D01*
X009990Y011817D01*
X010097Y011710D01*
X010310Y011710D01*
X010417Y011817D01*
X010417Y012137D02*
X010417Y012244D01*
X010310Y012351D01*
X010097Y012351D01*
X009990Y012244D01*
X009773Y012137D02*
X009452Y012137D01*
X009345Y012030D01*
X009345Y011817D01*
X009452Y011710D01*
X009773Y011710D01*
X009773Y011496D02*
X009773Y012137D01*
X009128Y011817D02*
X009021Y011924D01*
X008701Y011924D01*
X008701Y012030D02*
X008701Y011710D01*
X009021Y011710D01*
X009128Y011817D01*
X009021Y012137D02*
X008808Y012137D01*
X008701Y012030D01*
X008483Y012137D02*
X008377Y012137D01*
X008377Y011710D01*
X008483Y011710D02*
X008270Y011710D01*
X008054Y011710D02*
X008054Y012137D01*
X007733Y012137D01*
X007627Y012030D01*
X007627Y011710D01*
X007409Y011710D02*
X006982Y011710D01*
X006765Y011817D02*
X006658Y011924D01*
X006338Y011924D01*
X006338Y012030D02*
X006338Y011710D01*
X006658Y011710D01*
X006765Y011817D01*
X006658Y012137D02*
X006444Y012137D01*
X006338Y012030D01*
X006120Y012137D02*
X005800Y012137D01*
X005693Y012030D01*
X005693Y011817D01*
X005800Y011710D01*
X006120Y011710D01*
X006120Y012351D01*
X005476Y012030D02*
X005369Y011924D01*
X005155Y011924D01*
X005048Y011817D01*
X005155Y011710D01*
X005476Y011710D01*
X005476Y012030D02*
X005369Y012137D01*
X005048Y012137D01*
X007409Y012351D02*
X007409Y011710D01*
X008377Y012351D02*
X008377Y012457D01*
X015682Y012137D02*
X015788Y012137D01*
X016005Y012137D02*
X016112Y012137D01*
X016325Y011924D01*
X016325Y012137D02*
X016325Y011710D01*
X016756Y011710D02*
X016756Y012351D01*
X016543Y012351D02*
X016970Y012351D01*
D14*
X019034Y005150D02*
X019036Y005181D01*
X019042Y005211D01*
X019051Y005241D01*
X019064Y005269D01*
X019081Y005295D01*
X019101Y005318D01*
X019123Y005340D01*
X019148Y005358D01*
X019175Y005373D01*
X019204Y005384D01*
X019234Y005392D01*
X019265Y005396D01*
X019295Y005396D01*
X019326Y005392D01*
X019356Y005384D01*
X019385Y005373D01*
X019412Y005358D01*
X019437Y005340D01*
X019459Y005318D01*
X019479Y005295D01*
X019496Y005269D01*
X019509Y005241D01*
X019518Y005211D01*
X019524Y005181D01*
X019526Y005150D01*
X019524Y005119D01*
X019518Y005089D01*
X019509Y005059D01*
X019496Y005031D01*
X019479Y005005D01*
X019459Y004982D01*
X019437Y004960D01*
X019412Y004942D01*
X019385Y004927D01*
X019356Y004916D01*
X019326Y004908D01*
X019295Y004904D01*
X019265Y004904D01*
X019234Y004908D01*
X019204Y004916D01*
X019175Y004927D01*
X019148Y004942D01*
X019123Y004960D01*
X019101Y004982D01*
X019081Y005005D01*
X019064Y005031D01*
X019051Y005059D01*
X019042Y005089D01*
X019036Y005119D01*
X019034Y005150D01*
X019034Y002001D02*
X019036Y002032D01*
X019042Y002062D01*
X019051Y002092D01*
X019064Y002120D01*
X019081Y002146D01*
X019101Y002169D01*
X019123Y002191D01*
X019148Y002209D01*
X019175Y002224D01*
X019204Y002235D01*
X019234Y002243D01*
X019265Y002247D01*
X019295Y002247D01*
X019326Y002243D01*
X019356Y002235D01*
X019385Y002224D01*
X019412Y002209D01*
X019437Y002191D01*
X019459Y002169D01*
X019479Y002146D01*
X019496Y002120D01*
X019509Y002092D01*
X019518Y002062D01*
X019524Y002032D01*
X019526Y002001D01*
X019524Y001970D01*
X019518Y001940D01*
X019509Y001910D01*
X019496Y001882D01*
X019479Y001856D01*
X019459Y001833D01*
X019437Y001811D01*
X019412Y001793D01*
X019385Y001778D01*
X019356Y001767D01*
X019326Y001759D01*
X019295Y001755D01*
X019265Y001755D01*
X019234Y001759D01*
X019204Y001767D01*
X019175Y001778D01*
X019148Y001793D01*
X019123Y001811D01*
X019101Y001833D01*
X019081Y001856D01*
X019064Y001882D01*
X019051Y001910D01*
X019042Y001940D01*
X019036Y001970D01*
X019034Y002001D01*
M02*
