G75*
%MOIN*%
%OFA0B0*%
%FSLAX24Y24*%
%IPPOS*%
%LPD*%
%AMOC8*
5,1,8,0,0,1.08239X$1,22.5*
%
%ADD10C,0.0100*%
%ADD11R,0.0787X0.0551*%
%ADD12R,0.0551X0.0504*%
%ADD13R,0.0551X0.0768*%
%ADD14R,0.0551X0.0276*%
%ADD15C,0.0000*%
%ADD16R,0.0390X0.0120*%
%ADD17R,0.0472X0.0217*%
%ADD18R,0.0512X0.0591*%
%ADD19R,0.0315X0.0354*%
D10*
X000250Y000180D02*
X000250Y019865D01*
X019935Y019865D01*
X019935Y000180D01*
X000250Y000180D01*
D11*
X019122Y000820D03*
X019122Y007040D03*
D12*
X015343Y000796D03*
D13*
X015343Y006696D03*
D14*
X015000Y004796D03*
X015000Y004363D03*
X015000Y003930D03*
X015000Y003497D03*
X015000Y003064D03*
X015000Y002631D03*
X015000Y002198D03*
X015000Y001765D03*
X015000Y001332D03*
D15*
X019034Y002001D02*
X019036Y002032D01*
X019042Y002062D01*
X019051Y002092D01*
X019064Y002120D01*
X019081Y002146D01*
X019101Y002169D01*
X019123Y002191D01*
X019148Y002209D01*
X019175Y002224D01*
X019204Y002235D01*
X019234Y002243D01*
X019265Y002247D01*
X019295Y002247D01*
X019326Y002243D01*
X019356Y002235D01*
X019385Y002224D01*
X019412Y002209D01*
X019437Y002191D01*
X019459Y002169D01*
X019479Y002146D01*
X019496Y002120D01*
X019509Y002092D01*
X019518Y002062D01*
X019524Y002032D01*
X019526Y002001D01*
X019524Y001970D01*
X019518Y001940D01*
X019509Y001910D01*
X019496Y001882D01*
X019479Y001856D01*
X019459Y001833D01*
X019437Y001811D01*
X019412Y001793D01*
X019385Y001778D01*
X019356Y001767D01*
X019326Y001759D01*
X019295Y001755D01*
X019265Y001755D01*
X019234Y001759D01*
X019204Y001767D01*
X019175Y001778D01*
X019148Y001793D01*
X019123Y001811D01*
X019101Y001833D01*
X019081Y001856D01*
X019064Y001882D01*
X019051Y001910D01*
X019042Y001940D01*
X019036Y001970D01*
X019034Y002001D01*
X019034Y005150D02*
X019036Y005181D01*
X019042Y005211D01*
X019051Y005241D01*
X019064Y005269D01*
X019081Y005295D01*
X019101Y005318D01*
X019123Y005340D01*
X019148Y005358D01*
X019175Y005373D01*
X019204Y005384D01*
X019234Y005392D01*
X019265Y005396D01*
X019295Y005396D01*
X019326Y005392D01*
X019356Y005384D01*
X019385Y005373D01*
X019412Y005358D01*
X019437Y005340D01*
X019459Y005318D01*
X019479Y005295D01*
X019496Y005269D01*
X019509Y005241D01*
X019518Y005211D01*
X019524Y005181D01*
X019526Y005150D01*
X019524Y005119D01*
X019518Y005089D01*
X019509Y005059D01*
X019496Y005031D01*
X019479Y005005D01*
X019459Y004982D01*
X019437Y004960D01*
X019412Y004942D01*
X019385Y004927D01*
X019356Y004916D01*
X019326Y004908D01*
X019295Y004904D01*
X019265Y004904D01*
X019234Y004908D01*
X019204Y004916D01*
X019175Y004927D01*
X019148Y004942D01*
X019123Y004960D01*
X019101Y004982D01*
X019081Y005005D01*
X019064Y005031D01*
X019051Y005059D01*
X019042Y005089D01*
X019036Y005119D01*
X019034Y005150D01*
D16*
X013399Y003948D03*
X013399Y003692D03*
X013399Y003436D03*
X013399Y003180D03*
X013399Y002924D03*
X013399Y002668D03*
X013399Y002412D03*
X011101Y002412D03*
X011101Y002668D03*
X011101Y002924D03*
X011101Y003180D03*
X011101Y003436D03*
X011101Y003692D03*
X011101Y003948D03*
D17*
X010252Y004064D03*
X010252Y003690D03*
X010252Y003316D03*
X009228Y003316D03*
X009228Y004064D03*
D18*
X009376Y005430D03*
X010124Y005430D03*
X008624Y008430D03*
X007876Y008430D03*
X006874Y008430D03*
X006126Y008430D03*
X005124Y008430D03*
X004376Y008430D03*
X004376Y010180D03*
X005124Y010180D03*
X006126Y010180D03*
X006874Y010180D03*
X007876Y010180D03*
X008624Y010180D03*
X013626Y005680D03*
X014374Y005680D03*
X015376Y012680D03*
X016124Y012680D03*
D19*
X016976Y012616D03*
X017724Y012616D03*
X017350Y013443D03*
M02*
